<svg xmlns="http://www.w3.org/2000/svg" xmlns:xlink="http://www.w3.org/1999/xlink" viewBox="0 0 178.21 170.83"><defs><style>.cls-1{fill:#404040;}.cls-2{fill:#202020;}.cls-3{fill:#3b3b3b;}.cls-4{fill:#6a6a6a;}.cls-5{fill:#fefefe;}.cls-6{fill:#424242;}</style><symbol id="New_Symbol" data-name="New Symbol" viewBox="0 0 178.21 170.83"><path d="M177.19,91.37l.13,2c-1.47,1.84-1.1,4.1-1.49,6.17a82.6,82.6,0,0,1-27.57,48.21,87.51,87.51,0,0,1-52.3,22c-.34,0-.61.09-.68.48H91.45c-.93-.52-2-.12-2.91-.25-1.35.15-2.75-.48-4,.75l-3.21.14c-2.29-2-5.1-1.52-7.7-1.94a88.56,88.56,0,0,1-39.07-16.58c-16.18-12.06-27.23-27.73-32-47.38C-3.17,81.45.78,59.46,14.18,39.31a83.53,83.53,0,0,1,29.11-27C68.64-1.82,95.21-3.94,122.05,6.73c28.27,11.22,46.4,32,53.4,62,.68,2.9.46,6,1.89,8.72l.06,3.2q-1.52,2.59.81,5.19l-.41,3.38C176.75,89.9,176.55,90.63,177.19,91.37Z"/><path class="cls-1" d="M85,170.19c1-.9,2.21-.37,3.33-.37.17.08.22.16.17.24s-.1.13-.16.13Z"/><path class="cls-2" d="M177.09,83.76a2.17,2.17,0,0,1,0-2.88Z"/><path class="cls-3" d="M88.34,170.19c0-.13,0-.25,0-.37,1,0,2-.54,2.89.37Z"/><path class="cls-4" d="M177.09,90.93c-.75-.48-.57-1,0-1.43Z"/><path class="cls-5" d="M174,86.42a77.87,77.87,0,0,1-16.92,47.23c-13.4,17.1-30.9,27.63-52.14,31.69-19.86,3.8-39.07,1.22-57-8.2C25.47,145.31,10.4,127.19,4.7,102.22c-5.2-22.74-.91-44.1,12.63-63.06,15.14-21.19,36.1-33,62-35.82a84.15,84.15,0,0,1,49.43,9.26c23.29,12.4,38.4,31.31,43.77,57.49A80.74,80.74,0,0,1,174,86.42Z"/><path d="M85.28,113.59c-2.55,0-5.1-.07-7.65,0-1.25,0-1.75-.19-1.85-1.63-1.63-22.67-6.18-44.7-14.7-65.83-1.87-4.64-3.94-9.2-6.26-13.63-.69-1.33-1.39-2.72.24-3.77s2.66,0,3.67,1.16C68.64,41.2,76,54,81.8,67.83A206,206,0,0,1,94.64,111.9c.27,1.53-.16,1.74-1.47,1.71C90.54,113.54,87.91,113.59,85.28,113.59Z"/><path d="M109.62,113.59c-2.48,0-5,0-7.42,0-1.21,0-1.53-.34-1.22-1.53,6.34-24.18,17.22-45.78,35.75-63,.58-.54,1.21-1,1.8-1.57,1-.92,2.18-1.53,3.39-.47s.8,2.43,0,3.62a108.66,108.66,0,0,0-6,9.47,137.69,137.69,0,0,0-17,51.77c-.15,1.29-.48,1.81-1.84,1.76C114.56,113.52,112.09,113.59,109.62,113.59Z"/><path class="cls-6" d="M96.92,95.73C94.46,86.85,92,78,88.35,69.47a2.1,2.1,0,0,1,.13-1.8c7.24-18.25,16.92-34.93,31.38-48.5,1.28-1.2,2.62-3.54,4.75-1.79s.12,3.46-.86,5A168.74,168.74,0,0,0,98.83,86.63c-.94,2.67-.5,5.54-1.16,8.26C97.56,95.33,97.64,95.87,96.92,95.73Z"/><path class="cls-6" d="M62.91,113.59c-2.23,0-4.45,0-6.68,0-.88,0-1.44-.06-1.54-1.22C53.14,94.24,46.24,78,37.43,62.32a6.77,6.77,0,0,1-.73-1.74,1.86,1.86,0,0,1,1-2.2,2.55,2.55,0,0,1,3,.64A88.6,88.6,0,0,1,51.41,70.29C60.94,82.34,67,96,70.58,110.9c.64,2.67.6,2.68-2.17,2.69Z"/><path class="cls-6" d="M96.92,95.73a14.63,14.63,0,0,0,1-5.51,5.49,5.49,0,0,1,.94-3.59l-1,10.46c-.21.3-.29.83-.86.46Z"/><path d="M71.6,125.46c0,.42,0,.89,0,1.6v3.37a3.35,3.35,0,0,1-.83,2.65,3.06,3.06,0,0,1-2.11.69,3.66,3.66,0,0,1-1.93-.48l.26-.8a3.3,3.3,0,0,0,1.7.46c1.08,0,1.88-.57,1.88-2v-.65h0a2.07,2.07,0,0,1-1.85,1,2.6,2.6,0,0,1-2.47-2.83,2.79,2.79,0,0,1,2.62-3.08,1.92,1.92,0,0,1,1.81,1h0l0-.88Zm-1.1,2.29a1.47,1.47,0,0,0-.06-.48A1.51,1.51,0,0,0,69,126.16c-1,0-1.73.85-1.73,2.19,0,1.14.58,2.09,1.72,2.09a1.55,1.55,0,0,0,1.46-1.08,1.81,1.81,0,0,0,.08-.56Z"/><path d="M73.23,127.27c0-.68,0-1.27,0-1.81h.92l0,1.14h0a1.74,1.74,0,0,1,1.61-1.27,1,1,0,0,1,.3,0v1a1.94,1.94,0,0,0-.36,0,1.48,1.48,0,0,0-1.42,1.35,3.52,3.52,0,0,0,0,.49v3.1h-1Z"/><path d="M80.31,131.27l-.09-.73h0a2.19,2.19,0,0,1-1.78.86,1.65,1.65,0,0,1-1.77-1.67c0-1.4,1.25-2.17,3.49-2.16v-.12a1.19,1.19,0,0,0-1.32-1.34,2.93,2.93,0,0,0-1.51.43l-.24-.69a3.6,3.6,0,0,1,1.9-.52c1.78,0,2.21,1.21,2.21,2.38v2.17a8.4,8.4,0,0,0,.1,1.39Zm-.16-3c-1.15,0-2.46.18-2.46,1.3a.94.94,0,0,0,1,1,1.45,1.45,0,0,0,1.4-1,1,1,0,0,0,.06-.34Z"/><path d="M82.73,130.19a2.86,2.86,0,0,0,1.4.42c.76,0,1.12-.39,1.12-.87s-.3-.78-1.08-1.06c-1-.37-1.53-1-1.53-1.65a1.79,1.79,0,0,1,2-1.7,2.94,2.94,0,0,1,1.43.36l-.27.77a2.15,2.15,0,0,0-1.18-.34c-.63,0-1,.36-1,.79s.34.7,1.1,1c1,.38,1.52.89,1.52,1.75,0,1-.79,1.74-2.17,1.74a3.33,3.33,0,0,1-1.63-.4Z"/><path d="M87.49,130.19a2.79,2.79,0,0,0,1.39.42c.76,0,1.12-.39,1.12-.87s-.3-.78-1.07-1.06c-1.05-.37-1.54-1-1.54-1.65a1.79,1.79,0,0,1,2-1.7,2.91,2.91,0,0,1,1.43.36l-.26.77a2.22,2.22,0,0,0-1.19-.34c-.62,0-1,.36-1,.79s.35.7,1.1,1c1,.38,1.52.89,1.52,1.75,0,1-.79,1.74-2.17,1.74a3.33,3.33,0,0,1-1.63-.4Z"/><path d="M94.83,127.63v.78h-3v-.78Z"/><path d="M96.17,131.27v-5h-.81v-.81h.81v-.27a2.71,2.71,0,0,1,.68-2,2,2,0,0,1,1.41-.54,2.32,2.32,0,0,1,.9.17l-.14.81a1.67,1.67,0,0,0-.68-.13c-.9,0-1.12.79-1.12,1.68v.31h1.4v.81h-1.4v5Z"/><path d="M100,128.56a1.86,1.86,0,0,0,2,2,3.8,3.8,0,0,0,1.61-.3l.18.76a4.67,4.67,0,0,1-1.93.36A2.7,2.7,0,0,1,99,128.46c0-1.75,1-3.13,2.73-3.13a2.46,2.46,0,0,1,2.39,2.74,4.88,4.88,0,0,1,0,.49Zm3.1-.76a1.5,1.5,0,0,0-1.47-1.71A1.75,1.75,0,0,0,100,127.8Z"/><path d="M110.44,122.75v7c0,.51,0,1.1,0,1.5h-.95l-.05-1h0a2.16,2.16,0,0,1-2,1.14c-1.41,0-2.48-1.19-2.48-3,0-1.93,1.18-3.12,2.6-3.12a1.93,1.93,0,0,1,1.75.89h0v-3.47Zm-1.06,5.08a1.68,1.68,0,0,0,0-.45,1.54,1.54,0,0,0-1.52-1.22c-1.09,0-1.74,1-1.74,2.24s.58,2.15,1.72,2.15a1.58,1.58,0,0,0,1.54-1.26,1.71,1.71,0,0,0,0-.46Z"/><path d="M52.6,145.45a3.81,3.81,0,0,1-1.67.34,2.76,2.76,0,0,1-2.89-3,3,3,0,0,1,3.12-3.09,3.52,3.52,0,0,1,1.46.3l-.24.82a2.35,2.35,0,0,0-1.22-.28,2,2,0,0,0-2,2.2,2,2,0,0,0,2,2.17,3,3,0,0,0,1.29-.29Z"/><path d="M59,142.72a2.84,2.84,0,0,1-2.89,3.08,2.76,2.76,0,0,1-2.78-3,2.83,2.83,0,0,1,2.88-3.08A2.75,2.75,0,0,1,59,142.72Zm-4.61.06c0,1.27.74,2.23,1.77,2.23s1.76-.95,1.76-2.26c0-1-.49-2.23-1.74-2.23S54.41,141.67,54.41,142.78Z"/><path d="M60.35,137.15h1.06v8.52H60.35Z"/><path d="M63.19,137.15h1v8.52h-1Z"/><path d="M69.23,145.67l-.08-.73h0a2.16,2.16,0,0,1-1.77.86,1.66,1.66,0,0,1-1.78-1.67c0-1.4,1.25-2.17,3.49-2.16v-.12a1.19,1.19,0,0,0-1.32-1.34,2.93,2.93,0,0,0-1.51.43l-.24-.69a3.64,3.64,0,0,1,1.91-.52c1.78,0,2.21,1.21,2.21,2.38v2.17a8.47,8.47,0,0,0,.09,1.39Zm-.15-3c-1.15,0-2.46.18-2.46,1.3a.93.93,0,0,0,1,1,1.45,1.45,0,0,0,1.41-1,1.35,1.35,0,0,0,.06-.34Z"/><path d="M76.8,139.86c0,.42,0,.89,0,1.6v3.37a3.35,3.35,0,0,1-.83,2.65,3.07,3.07,0,0,1-2.11.69,3.73,3.73,0,0,1-1.93-.47l.26-.81a3.25,3.25,0,0,0,1.7.46c1.08,0,1.88-.57,1.88-2v-.65h0a2.07,2.07,0,0,1-1.85,1,2.59,2.59,0,0,1-2.47-2.83A2.79,2.79,0,0,1,74,139.73a1.92,1.92,0,0,1,1.81,1h0l0-.88Zm-1.09,2.29a1.47,1.47,0,0,0-.06-.48,1.52,1.52,0,0,0-1.47-1.11c-1,0-1.73.85-1.73,2.19,0,1.14.58,2.09,1.72,2.09a1.55,1.55,0,0,0,1.46-1.08,1.81,1.81,0,0,0,.08-.56Z"/><path d="M79.1,143a1.85,1.85,0,0,0,2,2,3.8,3.8,0,0,0,1.61-.3l.18.76a4.71,4.71,0,0,1-1.93.36,2.7,2.7,0,0,1-2.86-2.93c0-1.75,1-3.13,2.72-3.13a2.46,2.46,0,0,1,2.4,2.74,4.88,4.88,0,0,1,0,.49Zm3.09-.76a1.5,1.5,0,0,0-1.46-1.71,1.74,1.74,0,0,0-1.62,1.71Z"/><path d="M84.52,141.43c0-.6,0-1.09,0-1.57h.94l.06,1h0a2.14,2.14,0,0,1,1.92-1.09c.81,0,2,.48,2,2.47v3.47h-1v-3.35c0-.93-.35-1.71-1.35-1.71a1.5,1.5,0,0,0-1.41,1.08,1.45,1.45,0,0,0-.07.49v3.49H84.52Z"/><path d="M93.73,141.76c0-.75,0-1.35,0-1.9h.95l0,1h0a2.27,2.27,0,0,1,2.06-1.13c1.4,0,2.46,1.19,2.46,3,0,2.09-1.27,3.12-2.64,3.12a2.05,2.05,0,0,1-1.79-.91h0V148h-1Zm1,1.55a2,2,0,0,0,0,.43A1.63,1.63,0,0,0,96.4,145c1.12,0,1.76-.91,1.76-2.24,0-1.16-.61-2.16-1.72-2.16a1.7,1.7,0,0,0-1.6,1.31,2,2,0,0,0-.07.43Z"/><path d="M100.56,141.67c0-.68,0-1.27,0-1.81h.92l0,1.14h0a1.75,1.75,0,0,1,1.61-1.27,1,1,0,0,1,.3,0v1a1.86,1.86,0,0,0-.36,0,1.47,1.47,0,0,0-1.41,1.35,2.46,2.46,0,0,0-.05.49v3.1h-1Z"/><path d="M109.61,142.72a2.84,2.84,0,0,1-2.89,3.08,2.76,2.76,0,0,1-2.78-3,2.83,2.83,0,0,1,2.88-3.08A2.75,2.75,0,0,1,109.61,142.72Zm-4.6.06c0,1.27.73,2.23,1.76,2.23s1.76-.95,1.76-2.26c0-1-.49-2.23-1.74-2.23S105,141.67,105,142.78Z"/><path d="M112.22,138.2v1.66h1.51v.81h-1.51v3.13c0,.72.2,1.12.79,1.12a2.21,2.21,0,0,0,.61-.07l0,.79a2.44,2.44,0,0,1-.94.15,1.47,1.47,0,0,1-1.14-.45,2.13,2.13,0,0,1-.4-1.51v-3.16h-.9v-.81h.9v-1.39Z"/><path d="M115.43,143a1.87,1.87,0,0,0,2,2,3.75,3.75,0,0,0,1.6-.3l.18.76a4.67,4.67,0,0,1-1.93.36,2.69,2.69,0,0,1-2.85-2.93c0-1.75,1-3.13,2.72-3.13a2.47,2.47,0,0,1,2.4,2.74,4.35,4.35,0,0,1,0,.49Zm3.1-.76a1.5,1.5,0,0,0-1.46-1.71,1.74,1.74,0,0,0-1.62,1.71Z"/><path d="M122,138.23a.62.62,0,0,1-.67.65.63.63,0,0,1-.63-.65.64.64,0,0,1,.66-.66A.62.62,0,0,1,122,138.23Zm-1.17,7.44v-5.81h1v5.81Z"/><path d="M123.67,141.43c0-.6,0-1.09,0-1.57h.93l.06,1h0a2.14,2.14,0,0,1,1.92-1.09c.8,0,2.05.48,2.05,2.47v3.47h-1.06v-3.35c0-.93-.35-1.71-1.34-1.71a1.5,1.5,0,0,0-1.42,1.08,1.75,1.75,0,0,0-.07.49v3.49h-1Z"/></symbol></defs><g id="Layer_2" data-name="Layer 2"><g id="Layer_1-2" data-name="Layer 1"><use width="178.21" height="170.83" xlink:href="#New_Symbol"/></g></g></svg>