<svg xmlns="http://www.w3.org/2000/svg" viewBox="0 0 191.65 190.59"><defs><style>.cls-1{fill:#fff;}.cls-2{fill:none;stroke:#000;stroke-linecap:round;stroke-linejoin:round;stroke-width:2px;}</style></defs><g id="Layer_2" data-name="Layer 2"><g id="Layer_1-2" data-name="Layer 1"><path d="M.1,95.31a39.44,39.44,0,0,0,0-4.07c-.29-2.76.28-5.49.63-8.16.37-2.86.51-5.86,1.75-8.58-.07-2.24,1-4.22,1.5-6.32a55,55,0,0,1,1.9-5.91,88,88,0,0,1,4.92-10.89c1.34-2.5,3-4.84,4.36-7.3a86.55,86.55,0,0,1,6.57-9c1.2-1.58,2.65-2.88,3.94-4.34a18.89,18.89,0,0,1,2.58-3A32.64,32.64,0,0,0,31,25.33a100.05,100.05,0,0,1,9-7.21,81.57,81.57,0,0,1,9.09-5.9A67.36,67.36,0,0,1,60.89,6.67c1.82-.61,3.6-1.33,5.43-1.93,2.05-.66,4.13-1.21,6.18-1.81s4.4-.87,6.59-1.44A20.87,20.87,0,0,1,83.91,1c1.24,0,2.34-.71,3.63-.55a9.21,9.21,0,0,0,3.81,0c2-.64,4-.35,6-.38,1.29,0,2.58.35,3.88.43s2.77-.24,4,.09a20.92,20.92,0,0,0,3.41.43,30.26,30.26,0,0,1,3.14.53c2.55.51,5.11,1,7.65,1.69,3.39.86,6.71,1.9,10,3,1,.35,2.11.67,3.12,1.12,2.69,1.21,5.4,2.39,8,3.74,2,1.06,4,2.37,6,3.52,3.35,1.94,6.28,4.46,9.45,6.64A42.57,42.57,0,0,1,160,24.62c1.29,1.12,2.22,2.66,3.86,3.38.63,1.62,2.17,2.44,3.22,3.69S168.93,34,170,35a20.29,20.29,0,0,1,2.54,3.5,11.78,11.78,0,0,0,1.43,1.8c1.83,1.95,2.84,4.42,4.28,6.62a53.73,53.73,0,0,1,3.35,5.79q2.14,4.36,3.88,8.92a41.6,41.6,0,0,1,2,5.66,25,25,0,0,0,.89,2.74c.29.87.26,1.85.54,2.65.89,2.48.85,5.17,1.84,7.61.06.14,0,.32,0,.48a55.68,55.68,0,0,0,.53,6.73c.79,4,.27,8,.4,12a32.72,32.72,0,0,1-.43,3.39,18.5,18.5,0,0,1-.07,3.34c-.51,1.93-.56,3.9-.92,5.84-.31,1.69-.63,3.39-1.07,5.06a113,113,0,0,1-3.7,11.63c-.43,1.1-.75,2.24-1.21,3.33-.63,1.5-1.27,3-2,4.42-1.35,2.56-2.78,5.08-4.22,7.59a35.81,35.81,0,0,0-2.08,3.21,26.43,26.43,0,0,1-3.88,5.55,90.62,90.62,0,0,1-10.12,11.15,69.31,69.31,0,0,1-8.53,7.13c-1.34.87-2.53,2-3.85,2.85-1.87,1.25-3.75,2.47-5.7,3.58-2.13,1.2-4.34,2.24-6.5,3.38a77.48,77.48,0,0,1-11.91,4.77c-2.53.82-5.09,1.58-7.65,2.32a29,29,0,0,0-2.91.49c-1.19.44-2.68.1-3.82.61-1.69.76-3.45.24-5.17.79s-3.52-.14-5.22.18a27.51,27.51,0,0,1-4.13.41c-3.29.11-6.54-.84-9.85-.49a11.48,11.48,0,0,0-3.63-.52,28.35,28.35,0,0,1-3.38-.51c-2-.53-4.11-.81-6.14-1.28s-3.88-1.1-5.84-1.56a26.06,26.06,0,0,1-5.89-1.93c-2.06-1-4.3-1.58-6.3-2.74s-4-1.92-5.95-3c-2.56-1.37-5-3-7.51-4.4a42.63,42.63,0,0,1-4.55-3.49c-2.61-2-5-4.19-7.44-6.38a38.11,38.11,0,0,1-3.83-3.9c-1.23-1.46-2.9-2.58-4-4.12-2.8-3.92-6.13-7.48-8.17-11.92-2.5-3-3.88-6.69-5.69-10.1a58.65,58.65,0,0,1-2.92-7.4,61.89,61.89,0,0,1-2.08-6.57c-.45-1.81-.91-3.61-1.33-5.43-.54-2.35-.53-4.8-1.38-7.08a1,1,0,0,1,0-.48c.34-2-.62-4-.51-6S.1,97.31.1,95.31ZM35.25,116c-.41,1.34-1.13,2.29-.21,3.32.76.85,1.38,1.83,2.11,2.71.52.61,1.15,1.11,1.68,1.71s.65,1,1,1.47.8.82,1.2,1.23c-.64-3.6-2.83-6.28-4.58-9.17a3.7,3.7,0,0,0-1.35-1.12l-.51-2c1.61-1.35,2.63-1.88,5,.22,1.52,1.37,2.29,3.2,3.4,4.84h4.18a7.41,7.41,0,0,1,1.41.86A12.1,12.1,0,0,1,51.27,123a22.86,22.86,0,0,1,2,5.4,8.22,8.22,0,0,0,1,2.69,12.87,12.87,0,0,0,6,5,10.46,10.46,0,0,0,1.44.39c.37-1.9-1-3.18-.93-4.75A67,67,0,0,1,49.91,119a18.45,18.45,0,0,1-2.84-7.44c-.24-1.48.24-3.1-.12-4.52a20.06,20.06,0,0,1-.4-4.61c0-1.52,0-3,0-4.55,0-4.07,0-8.14,0-12.21a24,24,0,0,1,.52-5.29,23.15,23.15,0,0,1,1-3.64,7.56,7.56,0,0,1,1.17-1.66c.41-.49.93-.88,1.34-1.37s.68-1.35,1.21-1.61c1.79-.88,2.92-2.5,4.44-3.67a75,75,0,0,1,8.67-5.72,49.43,49.43,0,0,1,9-4.19c1.48-.48,3-.84,4.51-1.26L78.18,57l1.42-.71a1.21,1.21,0,0,1-.19-1.78,48.64,48.64,0,0,1,8-9.37,5.52,5.52,0,0,1,3-1.7c2-1.74,3.53-3.88,5.79-5.25,1.82-1.12,3.68-2.23,6-1.79a19.63,19.63,0,0,1,4.56,1.12c2.6,1.23,5.44,2,7.83,3.65,1,.69,2.08,1.2,3,1.94,2.53,2,5.28,3.72,7.56,6a22.06,22.06,0,0,1,4.11,5c1.56,2.94,4.15,5.14,6.24,7.7,1.74,2.13,3.91,3.86,5.6,6.06,1.33,1.73,3.15,3,4.37,4.91a11.17,11.17,0,0,1,1.14,2.87c-.33,5.38.55,10.72.49,16.08,0,1.6.06,3.2,0,4.79s-.35,3.06-.44,4.59a22.49,22.49,0,0,1-.43,4.61c-.24.9-.77,1.61-1,2.46-.9,3-2.32,5.74-3.36,8.66-.42,1.18-1.12,2.22-1.53,3.45a30.46,30.46,0,0,1-1.82,3.54c-.73,1.47-1.52,2.89-2.32,4.32-1.74,3.07-2.55,4.69-4.38,6a4.2,4.2,0,0,0-1.28,1.38c-.05.08,0,.22,0,.33l.45.45a16.1,16.1,0,0,0,3.19-1.59,8.87,8.87,0,0,0,3.85-4.11c1-2.16,1.23-4.56,2.32-6.71.94-1.85,1.69-3.17,3.43-4,.85-.43,1.76-.75,2.67-1.13.72.84,1.66.25,2.43.39,1.7-2.25,2.53-5,5.7-6.22a3.18,3.18,0,0,1,3.12,1.37,19.76,19.76,0,0,1-1.39,2.11,27.08,27.08,0,0,0-3.71,5.66c-3.07,6.15-4.23,9-5.51,15.19a7.92,7.92,0,0,0-.48,2,15.1,15.1,0,0,1-.38,3.65,4.74,4.74,0,0,1-2.53,3.58,53.58,53.58,0,0,0-8.58,5.28c-1.39,1.11-2.73,2.26-4.1,3.4-.18.15-.43.31-.49.51-.32,1.14-1.36,1.68-2.05,2.51s-1.35,1.67-2,2.5c-.05.06-.21,0-.3,0l-.64-.65a29.19,29.19,0,0,0,2-2.41,28.48,28.48,0,0,1,6.95-6.86c1.14-.84,2.3-1.68,3.5-2.46,1.83-1.18,3.87-1.93,5.65-3.21a3.17,3.17,0,0,0,1.55-2.76,7.32,7.32,0,0,1,0-2.15c.7-1.91.72-3.95,1.34-5.9A60,60,0,0,1,149.5,126a40.1,40.1,0,0,1,2.86-5.76c1.16-1.66,2.26-3.36,3.33-5.09.17-.27,0-.73,0-1.14h-1.24a16.4,16.4,0,0,0-2.4,2.45c-2.25,3.49-4.45,7-5.48,11.14-.42,1.71-1,3.39-1.54,5h-.83c0-.69-.24-1.52.06-2,.39-.67.21-1.38.45-2,.63-1.54.44-3.23,1.2-4.78.51-1,1.26-2.35.42-3.69a3.5,3.5,0,0,0-2.6,1.21c-1.07,1.12-2.63,2-2.82,3.61a30.29,30.29,0,0,1-1.6,5.35c-.41,1.34-.9,3-2.22,3.82a18.36,18.36,0,0,1-4.23,2.5,9.43,9.43,0,0,0-3.26,1.31c-1.86,1.54-4,2.66-5.49,4.77-1.81,2.53-3.79,5-5.47,7.58a20.69,20.69,0,0,0-2,4,22.2,22.2,0,0,0-1.13,4.56,9.45,9.45,0,0,0,1.07,5.28c.49,1.08,1.22,2,1.76,3.1a31,31,0,0,0,4.79,6.88c.08.08,0,.3,0,.62l-1.2.07-2.5-3.83-1-.41V185a5.09,5.09,0,0,1,1.35-.61c1.73-.17,3.27-1,4.94-1.36a37.6,37.6,0,0,0,4.17-1.5,60.31,60.31,0,0,0,7.55-3.14,107.83,107.83,0,0,0,14.17-8.66,131.83,131.83,0,0,0,10.62-8.92,42.91,42.91,0,0,0,4.14-4.48c1.7-2,3.38-4,5.06-6.05,3.2-3.85,5.47-8.26,8.05-12.49a62.44,62.44,0,0,0,3.41-7.2,30.53,30.53,0,0,0,1.07-3.14c.89-2.74,1.82-5.48,2.65-8.24.63-2.06,1.13-4.17,1.6-6.27s.6-4.2,1-6.3a47.81,47.81,0,0,0,.52-7c.08-3.43,0-6.86,0-10.29,0-2-.81-4-.48-6,0-.07,0-.2,0-.23-.74-.51-.37-1.29-.48-2a13.19,13.19,0,0,1-.44-2.2c0-2.08-.77-4-1.2-6s-1.07-3.85-1.68-5.75c-1.36-4.22-3.1-8.3-4.85-12.35a35.85,35.85,0,0,0-2.69-4.64c-1.72-2.72-3.25-5.55-5.18-8.17a98.39,98.39,0,0,0-9.89-11.67c-1.5-1.49-3.24-2.73-4.67-4.27-2.38-2.59-5.45-4.26-8.12-6.44a16.72,16.72,0,0,0-2-1.44c-2-1.17-4.12-2.13-6-3.48C138,12.47,134.24,11.48,131,9.58c-3.28-.65-6.26-2.24-9.52-3-3-.74-6-1.38-8.9-2.14a35.21,35.21,0,0,0-6.3-.93C104,3.3,101.77,3,99.52,2.89a122.65,122.65,0,0,0-13.69.49c-.66,0-1.3.37-2,.44a23.79,23.79,0,0,1-2.39,0,.57.57,0,0,0-.23,0c-1.85.91-3.93,1-5.89,1.35-2.36.47-4.61,1.21-6.9,1.87A92.59,92.59,0,0,0,58.3,10.87c-2.6,1.08-5,2.6-7.65,3.5-2.88,2.32-6.3,3.82-9.22,6.14-2.3,1.84-4.92,3.38-7,5.41-3.52,3.39-7.22,6.64-10.24,10.55-2.28,3-4.6,5.84-6.63,9a89.31,89.31,0,0,0-4.84,8.3A75.91,75.91,0,0,0,8.18,64.34c-.33,1-.72,2.1-1.09,3.14s-.73,1.94-1,2.93-.2,2.39-.79,3.25c-.73,1.06-.11,2.22-.81,3.29-.56.87-.39,2.21-.56,3.34a17.27,17.27,0,0,0-.43,3.15A28.69,28.69,0,0,1,3,86.84c-.16,2.49.35,5-.45,7.47a4.67,4.67,0,0,0,0,1.9c.09.67.41,1.31.45,2C3,99.45,3,100.73,3,102a17.05,17.05,0,0,0,.43,3.89,31.67,31.67,0,0,1,.45,3.62c.18,2.23,1.17,4.29,1,6.54,1,.57,0,1.91,1,2.48-.3,1,.43,1.91.56,2.89a11.29,11.29,0,0,0,.88,2.5c1.13,2.88,2,5.84,3.33,8.67,1.84,4.06,4.21,7.83,6.24,11.78,1,.67,1.17,1.92,1.85,2.83a107.47,107.47,0,0,0,7.18,9,90.94,90.94,0,0,0,9.18,8.91c2.21,1.78,4.48,3.47,6.7,5.23a86.39,86.39,0,0,0,9.5,6,80.81,80.81,0,0,0,13.09,5.94c2,.76,4.13,1.2,6.16,1.9a54.85,54.85,0,0,0,6.28,1.56c1.39.3,2.85.44,4.22.83s3.12-.27,4.51.67c2.6-.36,5.11.59,7.7.49,1.43-.05,2.88,0,4.31,0a18.58,18.58,0,0,0,4.19-.25,22.61,22.61,0,0,1,4.23-.23c.58,0,1.13-.37,1.72-.44a12.63,12.63,0,0,0,2.14,0c2.45-.75,5-.83,7.54-1.61V167.79c-1.27-1.92-2.63-3.77-2.3-6.39l-1.46-.59c-1.34,1.09-2.42,2.11-3.63,2.93a23.84,23.84,0,0,1-9.5,4.21,6.65,6.65,0,0,1-3.87-.25c-1.88-.69-3.72-1.45-5.52-2.3-2.87-1.37-5.63-3-8.36-4.62-1.27-.75-2.84-1.26-3.73-2.62-.06-.1-.27-.1-.68-.23l-1.19.85c.23.59.65,1.19.51,1.39-.75,1.06-.34,2.34-.84,3.49a14.49,14.49,0,0,0-1.07,6.52c.15,3.11,0,6.22,0,9.33,0,1.63-.19,3.27.46,4.84,0,.1-.09.27-.16.43H74.8c0-4.58,0-9.11,0-13.63a4.79,4.79,0,0,1,.5-1.43L75,170l-.35-1a3.55,3.55,0,0,0-2.17,2.31A10.6,10.6,0,0,1,70,174.52c-.2.17-.6.12-1.23.21,1.66-2.49,3-4.74,4.58-6.84a13.1,13.1,0,0,0,2.9-9.1,11.42,11.42,0,0,0-.17-2.57,28.27,28.27,0,0,0-3.69-7.57,54.51,54.51,0,0,0-6.92-8.4,13.54,13.54,0,0,0-4.82-2.83,19.89,19.89,0,0,1-5.26-2.91c-2.25-1.73-2.93-4.37-3.5-6.91a11.18,11.18,0,0,0-3.8-6.57,2.82,2.82,0,0,0-3.08-.64c.42,1.37.84,2.7,1.24,4s.88,2.69,1.16,4.07.34,2.74.55,4.56c-.72-.59-1.36-.89-1.35-1.15.08-1.43-.75-2.6-1-3.92a29.54,29.54,0,0,0-3.31-8c-.63-1.19-1.71-2.15-2.3-3.36A5.32,5.32,0,0,0,37.1,114l-1.12.6a80.3,80.3,0,0,1,4.38,6.74,41,41,0,0,1,3,6.89,44.73,44.73,0,0,1,2.5,7.34c.54,2.6.89,5.24,1.37,8.21.37.41.84,1.35,1.59,1.71a49.79,49.79,0,0,1,8.79,5.34,44.46,44.46,0,0,1,5.24,4.64,58.49,58.49,0,0,1,3.85,5c-3.69,5.67-7.39,11.38-12.27,16.21l-.68-.67a127.59,127.59,0,0,0,11.66-15.69L60.54,155c-.38-.41-.8-.78-1.18-1.19-2.48-2.64-5.67-4.34-8.7-6.19-1.63-1-3.39-1.73-4.42-3.33-.79-1-.66-2.2-.65-3.36a16.2,16.2,0,0,0-.87-4.66c-.48-1.65-.75-3.35-1.07-4.86l-2.23-1.14c0-1.61-1.05-2.79-2-3.94-1.86-2.38-3.92-4.6-5.83-6.81V116.9A14.45,14.45,0,0,0,35.25,116Zm98.36-15.28a7.54,7.54,0,0,0-.65-4.88,24.61,24.61,0,0,0-5.52-8.49c-.87-.81-1.7-1.68-2.54-2.53a46.9,46.9,0,0,0-5.17-4.25,54.31,54.31,0,0,0-6-3.52,62,62,0,0,0-11.1-5,3.35,3.35,0,0,0-2-.21c-2.16.69-4.44.68-6.6,1.36-1.07.34-2.25.34-3.32.67a27,27,0,0,1-3.23.87A19,19,0,0,0,84,76.14c-1.23.49-2.45,1-3.7,1.45a24,24,0,0,0-3.39,1.62,26.3,26.3,0,0,0-4,2.46A41.19,41.19,0,0,0,69,85.05c-3.62,3.71-7.67,7-10.51,11.64,0,2.26,0,4.74,0,7.21s.12,4.81.34,7.23a65.52,65.52,0,0,1,.61,7.68c0,.23-.07.56.05.69.91.91.2,2.19.83,3.26.53.91.32,2.24.57,3.34.37,1.59.94,3.14,1.27,4.73.39,1.9,1.44,3.6,1.61,5.57a2.94,2.94,0,0,0,1.64,2.38,9.24,9.24,0,0,1,3.29,3,96.28,96.28,0,0,1,5.75,8.14A9.26,9.26,0,0,1,76.3,154a16.92,16.92,0,0,0,2.31,2.23,95.2,95.2,0,0,0,9.17,5.56c3.08,1.62,6.2,3.14,9.49,4.8.89,0,2,.07,3.12,0a51.55,51.55,0,0,0,7-3.16c2.1-1.27,3.86-3,5.81-4.43a4.57,4.57,0,0,0,1.83-3.07,12.07,12.07,0,0,1,1.64-4.55c1-1.57,1.55-3.47,3.07-4.75a9.3,9.3,0,0,0,1.45-2,23.66,23.66,0,0,1,6-6.33,5.44,5.44,0,0,0,1.5-2,2,2,0,0,0-.2-2,2.32,2.32,0,0,1,0-2,33.63,33.63,0,0,0,2.31-5.76,24.61,24.61,0,0,0,1.79-5.22c.33-2.17,1.43-4.24,1-6.53.72-.79.38-1.76.49-2.67s.43-1.78.45-2.67c.06-2.62,0-5.23,0-7.74Zm-1.87,31.94c.74-1.32,1.34-2.62,2.14-3.77,2.27-3.25,3.43-7.07,5.56-10.39.19-1.89,1.43-3.38,2-5.17s1.41-3.4,2.09-5.11a27.53,27.53,0,0,0,1.71-7.43c0-3.83.06-7.66,0-11.48s.43-7.71-.42-11.54a14.4,14.4,0,0,1,0-3.14,21,21,0,0,0-1.39-2c-1.83-2.05-3.7-4.06-5.57-6.07-2.31-2.48-4.67-4.9-6.92-7.43a21.37,21.37,0,0,1-3.29-4.38,15.17,15.17,0,0,0-2.47-3.28,45.15,45.15,0,0,0-7.25-6.21,47.5,47.5,0,0,0-6.27-3.89,42,42,0,0,0-5.89-2.53,16.89,16.89,0,0,0-4.38-.95,6.51,6.51,0,0,0-3.54,1.2,15.53,15.53,0,0,0-3.68,3.22,15.47,15.47,0,0,1-4.19,3.19c-.26.14-.62.17-.8.36-2.33,2.46-4.65,4.92-6.94,7.42A11,11,0,0,0,81.07,55v1.6a18.74,18.74,0,0,0,1.4,2,20.41,20.41,0,0,0,6,4.55A23.74,23.74,0,0,0,92.73,65a44.44,44.44,0,0,0,4.65,1.46c2.45.42,4.75,1.58,7.29,1.5.76.87,1.87.14,2.65.53a5.7,5.7,0,0,0,2.47.42c.45.22.71.38,1,.48a45.44,45.44,0,0,1,4.6,1.6,54.6,54.6,0,0,1,12.24,7.41A29.9,29.9,0,0,1,135,88.77a11,11,0,0,1,1,3.63,44,44,0,0,1,0,5.74c-.09,2,.82,3.81.51,5.78-.1.7,0,1.44,0,2.15s-.39,1.46-.45,2.2c-.16,2-.06,4-.39,6s-.74,4.36-1.17,6.5a30.83,30.83,0,0,1-2.52,7.54c-.65,1.31-1.14,2.7-1.77,4.24ZM79.57,58.37c-.51.16-1.07.38-1.64.53A44.62,44.62,0,0,0,69,62.28a66.46,66.46,0,0,0-6.79,3.83A57.36,57.36,0,0,0,52.35,74a12.38,12.38,0,0,0-2.81,3.84,13.44,13.44,0,0,0-1,4.11c-.07,2.35-.42,4.66-.53,7-.12,2.63-.09,5.27,0,7.9s.31,5.3.46,7.94c.15,2.41-.19,4.82.41,7.24A16.82,16.82,0,0,0,50,115.62c1.41,2.75,2.83,5.54,5.19,7.67a5.75,5.75,0,0,1,.5.75,6.12,6.12,0,0,0,2.87,2.52c0-.9.28-1.81-.06-2.24-.6-.76-.29-1.51-.42-2.24a23.25,23.25,0,0,1-.46-2.44c-.14-1.85-.11-3.69-.4-5.56-.42-2.68-.12-5.44-.5-8.18A56.08,56.08,0,0,1,56.61,98a7.11,7.11,0,0,1,1.12-3.12,47.22,47.22,0,0,1,2.89-3.82c1.67-1.82,3.45-3.55,5.24-5.26s3.58-3.28,5.38-4.91a3.64,3.64,0,0,1,.34-.34A57.72,57.72,0,0,1,84.74,74.2c1.63-.55,3.34-.81,4.9-1.46s3.56-.54,5.17-1.39c1.13.35,2.08-.47,3.16-.49s2.14.21,3.17-.43a1.92,1.92,0,0,1,1.64,0c2.2,1.26,4.72,1.71,7,2.83A114.31,114.31,0,0,1,120.3,79c3.73,2.39,6.72,5.58,9.82,8.66a2.36,2.36,0,0,1,.22.38c1,1.59,2,3.17,3,4.74.09.12.41.09.82.17V91.49a1.92,1.92,0,0,0,0-.72c-1.22-2.63-2.36-5.36-4.24-7.56a36.68,36.68,0,0,0-10.79-8.55,65.48,65.48,0,0,0-7.08-3.14,45,45,0,0,0-8-2.07c-2.22-.41-4.42-.84-6.59-1.44a53.24,53.24,0,0,1-10.38-3.84,14.65,14.65,0,0,1-2.32-1.32C83.06,61.47,81.44,60,79.57,58.37Z"/><path class="cls-1" d="M35.13,116.15l-1.49.75v2.63c1.91,2.21,4,4.43,5.83,6.81.9,1.15,1.92,2.33,2,3.94l2.23,1.14c.32,1.51.59,3.21,1.07,4.86a16.2,16.2,0,0,1,.87,4.66c0,1.16-.14,2.33.65,3.36,1,1.6,2.79,2.33,4.42,3.33,3,1.85,6.22,3.55,8.7,6.19.38.41.8.78,1.18,1.19l4.9,5.32A127.59,127.59,0,0,1,53.78,176l.68.67c4.88-4.83,8.58-10.54,12.27-16.21a58.49,58.49,0,0,0-3.85-5,44.46,44.46,0,0,0-5.24-4.64,49.79,49.79,0,0,0-8.79-5.34c-.75-.36-1.22-1.3-1.59-1.71-.48-3-.83-5.61-1.37-8.21a44.73,44.73,0,0,0-2.5-7.34,41,41,0,0,0-3-6.89A80.3,80.3,0,0,0,36,114.63l1.12-.6A5.32,5.32,0,0,1,40,116.67c.59,1.21,1.67,2.17,2.3,3.36a29.54,29.54,0,0,1,3.31,8c.26,1.32,1.09,2.49,1,3.92,0,.26.63.56,1.35,1.15-.21-1.82-.27-3.21-.55-4.56s-.75-2.72-1.16-4.07-.82-2.67-1.24-4a2.82,2.82,0,0,1,3.08.64,11.18,11.18,0,0,1,3.8,6.57c.57,2.54,1.25,5.18,3.5,6.91a19.89,19.89,0,0,0,5.26,2.91,13.54,13.54,0,0,1,4.82,2.83,54.51,54.51,0,0,1,6.92,8.4,28.27,28.27,0,0,1,3.69,7.57,11.42,11.42,0,0,1,.17,2.57,13.1,13.1,0,0,1-2.9,9.1c-1.56,2.1-2.92,4.35-4.58,6.84.63-.09,1,0,1.23-.21a10.6,10.6,0,0,0,2.45-3.28,3.55,3.55,0,0,1,2.17-2.31l.35,1,.36-.23a4.79,4.79,0,0,0-.5,1.43c0,4.52,0,9,0,13.63h1.26c.07-.16.2-.33.16-.43-.65-1.57-.45-3.21-.46-4.84,0-3.11.11-6.22,0-9.33a14.49,14.49,0,0,1,1.07-6.52c.5-1.15.09-2.43.84-3.49.14-.2-.28-.8-.51-1.39l1.19-.85c.41.13.62.13.68.23.89,1.36,2.46,1.87,3.73,2.62,2.73,1.62,5.49,3.25,8.36,4.62,1.8.85,3.64,1.61,5.52,2.3a6.65,6.65,0,0,0,3.87.25,23.84,23.84,0,0,0,9.5-4.21c1.21-.82,2.29-1.84,3.63-2.93l1.46.59c-.33,2.62,1,4.47,2.3,6.39V185.1c-2.5.78-5.09.86-7.54,1.61a12.63,12.63,0,0,1-2.14,0c-.59.07-1.14.4-1.72.44a22.61,22.61,0,0,0-4.23.23,18.58,18.58,0,0,1-4.19.25c-1.43.08-2.88,0-4.31,0-2.59.1-5.1-.85-7.7-.49-1.39-.94-3-.24-4.51-.67s-2.83-.53-4.22-.83a54.85,54.85,0,0,1-6.28-1.56c-2-.7-4.15-1.14-6.16-1.9a80.81,80.81,0,0,1-13.09-5.94,86.39,86.39,0,0,1-9.5-6c-2.22-1.76-4.49-3.45-6.7-5.23a90.94,90.94,0,0,1-9.18-8.91,107.47,107.47,0,0,1-7.18-9c-.68-.91-.81-2.16-1.85-2.83-2-4-4.4-7.72-6.24-11.78-1.29-2.83-2.2-5.79-3.33-8.67a11.29,11.29,0,0,1-.88-2.5c-.13-1-.86-1.84-.56-2.89-1-.57,0-1.91-1-2.48.13-2.25-.86-4.31-1-6.54a31.67,31.67,0,0,0-.45-3.62A17.05,17.05,0,0,1,3,102c0-1.27.06-2.55,0-3.83,0-.65-.36-1.29-.45-2a4.67,4.67,0,0,1,0-1.9c.8-2.46.29-5,.45-7.47a28.69,28.69,0,0,0,.52-3.4,17.27,17.27,0,0,1,.43-3.15c.17-1.13,0-2.47.56-3.34.7-1.07.08-2.23.81-3.29.59-.86.49-2.17.79-3.25s.65-2,1-2.93.76-2.1,1.09-3.14a75.91,75.91,0,0,1,4.51-10.58,89.31,89.31,0,0,1,4.84-8.3c2-3.15,4.35-6,6.63-9,3-3.91,6.72-7.16,10.24-10.55,2.11-2,4.73-3.57,7-5.41,2.92-2.32,6.34-3.82,9.22-6.14,2.67-.9,5.05-2.42,7.65-3.5A92.59,92.59,0,0,1,68.46,7.08c2.29-.66,4.54-1.4,6.9-1.87,2-.39,4-.44,5.89-1.35a.57.57,0,0,1,.23,0,23.79,23.79,0,0,0,2.39,0c.66-.07,1.3-.4,2-.44a122.65,122.65,0,0,1,13.69-.49c2.25.11,4.49.41,6.73.57a35.21,35.21,0,0,1,6.3.93c3,.76,5.94,1.4,8.9,2.14,3.26.81,6.24,2.4,9.52,3.05,3.27,1.9,7,2.89,10.09,5.15,1.85,1.35,4,2.31,6,3.48a16.72,16.72,0,0,1,2,1.44c2.67,2.18,5.74,3.85,8.12,6.44,1.43,1.54,3.17,2.78,4.67,4.27A98.39,98.39,0,0,1,171.75,42c1.93,2.62,3.46,5.45,5.18,8.17a35.85,35.85,0,0,1,2.69,4.64c1.75,4,3.49,8.13,4.85,12.35.61,1.9,1.26,3.83,1.68,5.75s1.2,3.91,1.2,6a13.19,13.19,0,0,0,.44,2.2c.11.67-.26,1.45.48,2,0,0,0,.16,0,.23-.33,2.05.49,4,.48,6,0,3.43.06,6.86,0,10.29a47.81,47.81,0,0,1-.52,7c-.36,2.1-.5,4.24-1,6.3s-1,4.21-1.6,6.27c-.83,2.76-1.76,5.5-2.65,8.24a30.53,30.53,0,0,1-1.07,3.14,62.44,62.44,0,0,1-3.41,7.2c-2.58,4.23-4.85,8.64-8.05,12.49-1.68,2-3.36,4-5.06,6.05a42.91,42.91,0,0,1-4.14,4.48,131.83,131.83,0,0,1-10.62,8.92,107.83,107.83,0,0,1-14.17,8.66,60.31,60.31,0,0,1-7.55,3.14,37.6,37.6,0,0,1-4.17,1.5c-1.67.35-3.21,1.19-4.94,1.36a5.09,5.09,0,0,0-1.35.61V170.54l1,.41,2.5,3.83,1.2-.07c0-.32.07-.54,0-.62a31,31,0,0,1-4.79-6.88c-.54-1.06-1.27-2-1.76-3.1a9.45,9.45,0,0,1-1.07-5.28,22.2,22.2,0,0,1,1.13-4.56,20.69,20.69,0,0,1,2-4c1.68-2.62,3.66-5,5.47-7.58,1.51-2.11,3.63-3.23,5.49-4.77a9.43,9.43,0,0,1,3.26-1.31,18.36,18.36,0,0,0,4.23-2.5c1.32-.82,1.81-2.48,2.22-3.82a30.29,30.29,0,0,0,1.6-5.35c.19-1.6,1.75-2.49,2.82-3.61a3.5,3.5,0,0,1,2.6-1.21c.84,1.34.09,2.66-.42,3.69-.76,1.55-.57,3.24-1.2,4.78-.24.59-.06,1.3-.45,2-.3.51-.06,1.34-.06,2h.83c.51-1.66,1.12-3.34,1.54-5,1-4.12,3.23-7.65,5.48-11.14a16.4,16.4,0,0,1,2.4-2.45h1.24c0,.41.14.87,0,1.14-1.07,1.73-2.17,3.43-3.33,5.09A40.1,40.1,0,0,0,149.5,126a60,60,0,0,0-2.94,8.36c-.62,2-.64,4-1.34,5.9a7.32,7.32,0,0,0,0,2.15,3.17,3.17,0,0,1-1.55,2.76c-1.78,1.28-3.82,2-5.65,3.21-1.2.78-2.36,1.62-3.5,2.46a28.48,28.48,0,0,0-6.95,6.86,29.19,29.19,0,0,1-2,2.41l.64.65c.09,0,.25,0,.3,0,.69-.83,1.36-1.67,2-2.5s1.73-1.37,2.05-2.51c.06-.2.31-.36.49-.51,1.37-1.14,2.71-2.29,4.1-3.4a53.58,53.58,0,0,1,8.58-5.28,4.74,4.74,0,0,0,2.53-3.58,15.1,15.1,0,0,0,.38-3.65,7.92,7.92,0,0,1,.48-2c1.28-6.23,2.44-9,5.51-15.19a27.08,27.08,0,0,1,3.71-5.66,19.76,19.76,0,0,0,1.39-2.11,3.18,3.18,0,0,0-3.12-1.37c-3.17,1.25-4,4-5.7,6.22-.77-.14-1.71.45-2.43-.39-.91.38-1.82.7-2.67,1.13-1.74.86-2.49,2.18-3.43,4-1.09,2.15-1.31,4.55-2.32,6.71a8.87,8.87,0,0,1-3.85,4.11,16.1,16.1,0,0,1-3.19,1.59l-.45-.45c0-.11-.08-.25,0-.33a4.2,4.2,0,0,1,1.28-1.38c1.83-1.35,2.64-3,4.38-6,.8-1.43,1.59-2.85,2.32-4.32a30.46,30.46,0,0,0,1.82-3.54c.41-1.23,1.11-2.27,1.53-3.45,1-2.92,2.46-5.69,3.36-8.66.25-.85.78-1.56,1-2.46a22.49,22.49,0,0,0,.43-4.61c.09-1.53.36-3.06.44-4.59s0-3.19,0-4.79c.06-5.36-.82-10.7-.49-16.08a11.17,11.17,0,0,0-1.14-2.87c-1.22-1.86-3-3.18-4.37-4.91-1.69-2.2-3.86-3.93-5.6-6.06-2.09-2.56-4.68-4.76-6.24-7.7a22.06,22.06,0,0,0-4.11-5c-2.28-2.32-5-4-7.56-6-.94-.74-2-1.25-3-1.94-2.39-1.69-5.23-2.42-7.83-3.65a19.63,19.63,0,0,0-4.56-1.12c-2.27-.44-4.13.67-6,1.79-2.26,1.37-3.81,3.51-5.79,5.25a5.52,5.52,0,0,0-3,1.7,48.64,48.64,0,0,0-8,9.37,1.21,1.21,0,0,0,.19,1.78L78.18,57l.31.27c-1.51.42-3,.78-4.51,1.26a49.43,49.43,0,0,0-9,4.19,75,75,0,0,0-8.67,5.72c-1.52,1.17-2.65,2.79-4.44,3.67-.53.26-.78,1.09-1.21,1.61s-.93.88-1.34,1.37a7.56,7.56,0,0,0-1.17,1.66,23.15,23.15,0,0,0-1,3.64,24,24,0,0,0-.52,5.29c-.07,4.07,0,8.14,0,12.21,0,1.52,0,3,0,4.55a20.06,20.06,0,0,0,.4,4.61c.36,1.42-.12,3,.12,4.52A18.45,18.45,0,0,0,49.91,119a67,67,0,0,0,10.94,12.75c0,1.57,1.3,2.85.93,4.75a10.46,10.46,0,0,1-1.44-.39,12.87,12.87,0,0,1-6-5,8.22,8.22,0,0,1-1-2.69,22.86,22.86,0,0,0-2-5.4,12.1,12.1,0,0,0-2.71-2.94,7.41,7.41,0,0,0-1.41-.86H43c-1.11-1.64-1.88-3.47-3.4-4.84-2.32-2.1-3.34-1.57-5-.22Z"/><path class="cls-1" d="M133.61,100.72l1,1c0,2.51,0,5.12,0,7.74,0,.89-.34,1.78-.45,2.67s.23,1.88-.49,2.67c.4,2.29-.7,4.36-1,6.53a24.61,24.61,0,0,1-1.79,5.22,33.63,33.63,0,0,1-2.31,5.76,2.32,2.32,0,0,0,0,2,2,2,0,0,1,.2,2,5.44,5.44,0,0,1-1.5,2,23.66,23.66,0,0,0-6,6.33,9.3,9.3,0,0,1-1.45,2c-1.52,1.28-2,3.18-3.07,4.75a12.07,12.07,0,0,0-1.64,4.55,4.57,4.57,0,0,1-1.83,3.07c-2,1.45-3.71,3.16-5.81,4.43a51.55,51.55,0,0,1-7,3.16c-1.11.09-2.23,0-3.12,0-3.29-1.66-6.41-3.18-9.49-4.8a95.2,95.2,0,0,1-9.17-5.56A16.92,16.92,0,0,1,76.3,154a9.26,9.26,0,0,0-1.81-4.16,96.28,96.28,0,0,0-5.75-8.14,9.24,9.24,0,0,0-3.29-3,2.94,2.94,0,0,1-1.64-2.38c-.17-2-1.22-3.67-1.61-5.57-.33-1.59-.9-3.14-1.27-4.73-.25-1.1,0-2.43-.57-3.34-.63-1.07.08-2.35-.83-3.26-.12-.13-.06-.46-.05-.69a65.52,65.52,0,0,0-.61-7.68c-.22-2.42-.28-4.82-.34-7.23s0-5,0-7.21c2.84-4.62,6.89-7.93,10.51-11.64a41.19,41.19,0,0,1,3.85-3.38,26.3,26.3,0,0,1,4-2.46,24,24,0,0,1,3.39-1.62c1.25-.44,2.47-1,3.7-1.45a19,19,0,0,1,3.5-1.36,27,27,0,0,0,3.23-.87c1.07-.33,2.25-.33,3.32-.67,2.16-.68,4.44-.67,6.6-1.36a3.35,3.35,0,0,1,2,.21,62,62,0,0,1,11.1,5,54.31,54.31,0,0,1,6,3.52,46.9,46.9,0,0,1,5.17,4.25c.84.85,1.67,1.72,2.54,2.53A24.61,24.61,0,0,1,133,95.84,7.54,7.54,0,0,1,133.61,100.72Zm-6.15.5c-1.14-.33-2.31-.57-3.41-1s-2.24,0-3.41-.4a12.74,12.74,0,0,0-3.73-.22h-1a9.36,9.36,0,0,0-7.73,3.76,3.41,3.41,0,0,0-.52,3.71,19.56,19.56,0,0,0,2-1.94,7.17,7.17,0,0,1,3.21-2.1c.78-.31,1.73-.46,2.54-.79,1-.41,2-.13,3-.24s1.69-.63,2.67-.51c2,.24,4,.35,6,.49.11,0,.23-.16.34-.25ZM85.3,106.1c-.15-.25-.44-.51-.42-.74a4.23,4.23,0,0,0-1.35-3c-1.45-1.79-3.62-2.06-5.59-2.66-1.48-.45-7.56-.12-9,.51-.79.33-1.6.11-2.19.46s-1.68,0-1.42,1.37c.84,0,1.76.27,2.37,0a6.31,6.31,0,0,1,3.41-.4c1.29,0,2.57.37,3.86.44a19.84,19.84,0,0,1,5.21,1.26c1.94.64,3.09,2.24,4.49,3.54Zm-7.54,13.27a18,18,0,0,0,6.68-2.74l-.65-.6a28.42,28.42,0,0,1-4.21,1.71c-1.38.32-2.61,1.17-4.14,1s-3.17,0-4.58,0c-1.18-.86-2.22-1.63-3.28-2.38-.06,0-.25.11-.39.18l.46,2-2.16.87c1.82,1,3.33-.75,5,.06a6.66,6.66,0,0,1-.1,1.07,6.72,6.72,0,0,1-.52,1.06h1.23l1.44-1.79h2.31l1.68,1.7.66-.54-.41-.47Zm43.76-.62c-.91,0-1.79,0-2.66,0a12.52,12.52,0,0,1-6-1c-1.08-.47-2.15-1-3.25-1.36-.42-.15-1.09-.39-1.34.63,1,.41,2,.82,3,1.2s2.21.81,3.25,1.19l.29,2.05,2-1.8h1.83c.82.63,1.35,1.56,2.62,2.16l-.26-1.72,2-1c.94.34,1.73,1,2.65.34l-1.08-1.16,1.19-1.53-.41-.46ZM86.24,144.88a3.71,3.71,0,0,1,.94.4,15.43,15.43,0,0,0,9,3.12c1.43.07,2.89-.43,4.34-.41,2.43,0,4.5-1,6.6-2,.57-.26.93-1,1.63-1.73l-1.6-.19a7.06,7.06,0,0,1-3.69,2.41c-2,.71-4.21.44-6.3.92-.89.2-1.92-.37-2.9-.39A10.5,10.5,0,0,1,89,145.18c-.83-.51-1.61-1.1-2.61-1.78Zm3.46-12.06c1.09,1.72,3,2.27,4.71,2.6a9,9,0,0,0,8.09-2.15V132c-4.13,3.52-8.2,3.39-12.15.2Z"/><path class="cls-1" d="M131.74,132.66l-1.49-.07c.63-1.54,1.12-2.93,1.77-4.24a30.83,30.83,0,0,0,2.52-7.54c.43-2.14.83-4.33,1.17-6.5s.23-4,.39-6c.06-.74.37-1.46.45-2.2s-.07-1.45,0-2.15c.31-2-.6-3.82-.51-5.78a44,44,0,0,0,0-5.74,11,11,0,0,0-1-3.63,29.9,29.9,0,0,0-7.41-10.33A54.6,54.6,0,0,0,115.38,71a45.44,45.44,0,0,0-4.6-1.6c-.28-.1-.54-.26-1-.48a5.7,5.7,0,0,1-2.47-.42c-.78-.39-1.89.34-2.65-.53-2.54.08-4.84-1.08-7.29-1.5A44.44,44.44,0,0,1,92.73,65a23.74,23.74,0,0,1-4.25-1.84,20.41,20.41,0,0,1-6-4.55,18.74,18.74,0,0,1-1.4-2V55a11,11,0,0,1,1.06-1.74c2.29-2.5,4.61-5,6.94-7.42.18-.19.54-.22.8-.36a15.47,15.47,0,0,0,4.19-3.19,15.53,15.53,0,0,1,3.68-3.22,6.51,6.51,0,0,1,3.54-1.2,16.89,16.89,0,0,1,4.38.95,42,42,0,0,1,5.89,2.53,47.5,47.5,0,0,1,6.27,3.89,45.15,45.15,0,0,1,7.25,6.21,15.17,15.17,0,0,1,2.47,3.28,21.37,21.37,0,0,0,3.29,4.38c2.25,2.53,4.61,4.95,6.92,7.43,1.87,2,3.74,4,5.57,6.07a21,21,0,0,1,1.39,2,14.4,14.4,0,0,0,0,3.14c.85,3.83.33,7.69.42,11.54s0,7.65,0,11.48a27.53,27.53,0,0,1-1.71,7.43c-.68,1.71-1.58,3.35-2.09,5.11s-1.77,3.28-2,5.17c-2.13,3.32-3.29,7.14-5.56,10.39C133.08,130,132.48,131.34,131.74,132.66Z"/><path class="cls-1" d="M79.57,58.37c1.87,1.63,3.49,3.1,5.19,4.48a14.65,14.65,0,0,0,2.32,1.32A53.24,53.24,0,0,0,97.46,68c2.17.6,4.37,1,6.59,1.44a45,45,0,0,1,8,2.07,65.48,65.48,0,0,1,7.08,3.14,36.68,36.68,0,0,1,10.79,8.55c1.88,2.2,3,4.93,4.24,7.56a1.92,1.92,0,0,1,0,.72v1.45c-.41-.08-.73,0-.82-.17-1-1.57-2-3.15-3-4.74a2.36,2.36,0,0,0-.22-.38C127,84.57,124,81.38,120.3,79a114.31,114.31,0,0,0-10.55-5.73c-2.25-1.12-4.77-1.57-7-2.83a1.92,1.92,0,0,0-1.64,0c-1,.64-2.11.42-3.17.43s-2,.84-3.16.49c-1.61.85-3.48.7-5.17,1.39s-3.27.91-4.9,1.46a57.72,57.72,0,0,0-13.16,6.36,3.64,3.64,0,0,0-.34.34c-1.8,1.63-3.62,3.24-5.38,4.91s-3.57,3.44-5.24,5.26a47.22,47.22,0,0,0-2.89,3.82A7.11,7.11,0,0,0,56.61,98a56.08,56.08,0,0,0,.07,7.89c.38,2.74.08,5.5.5,8.18.29,1.87.26,3.71.4,5.56a23.25,23.25,0,0,0,.46,2.44c.13.73-.18,1.48.42,2.24.34.43.06,1.34.06,2.24A6.12,6.12,0,0,1,55.65,124a5.75,5.75,0,0,0-.5-.75c-2.36-2.13-3.78-4.92-5.19-7.67A16.82,16.82,0,0,1,48.87,112c-.6-2.42-.26-4.83-.41-7.24-.15-2.64-.38-5.29-.46-7.94s-.11-5.27,0-7.9c.11-2.32.46-4.63.53-7a13.44,13.44,0,0,1,1-4.11A12.38,12.38,0,0,1,52.35,74a57.36,57.36,0,0,1,9.9-7.87A66.46,66.46,0,0,1,69,62.28a44.62,44.62,0,0,1,8.89-3.38C78.5,58.75,79.06,58.53,79.57,58.37Z"/><path class="cls-1" d="M35.25,116a8.69,8.69,0,0,1,1.23,1.27c1.75,2.89,3.94,5.57,4.58,9.17-.4-.41-.84-.79-1.2-1.23s-.64-1-1-1.47-1.16-1.1-1.68-1.71c-.73-.88-1.35-1.86-2.11-2.71C34.12,118.29,34.84,117.34,35.25,116Z"/><path d="M127.46,101.22v.51c-.11.09-.23.26-.34.25-2-.14-4-.25-6-.49-1-.12-1.77.4-2.67.51s-2-.17-3,.24c-.81.33-1.76.48-2.54.79a7.17,7.17,0,0,0-3.21,2.1,19.56,19.56,0,0,1-2,1.94,3.41,3.41,0,0,1,.52-3.71A9.36,9.36,0,0,1,116,99.6h1a12.74,12.74,0,0,1,3.73.22c1.17.43,2.3,0,3.41.4S126.32,100.89,127.46,101.22Z"/><path d="M85.3,106.1l-.68.68c-1.4-1.3-2.55-2.9-4.49-3.54A19.84,19.84,0,0,0,74.92,102c-1.29-.07-2.57-.4-3.86-.44a6.31,6.31,0,0,0-3.41.4c-.61.32-1.53,0-2.37,0-.26-1.32.94-1.09,1.42-1.37s1.4-.13,2.19-.46c1.49-.63,7.57-1,9-.51,2,.6,4.14.87,5.59,2.66a4.23,4.23,0,0,1,1.35,3C84.86,105.59,85.15,105.85,85.3,106.1Z"/><path d="M77.76,119.37l-1,1.09.41.47-.66.54-1.68-1.7H72.55l-1.44,1.79H69.88a6.72,6.72,0,0,0,.52-1.06,6.66,6.66,0,0,0,.1-1.07c-1.68-.81-3.19.94-5-.06l2.16-.87-.46-2c.14-.07.33-.22.39-.18,1.06.75,2.1,1.52,3.28,2.38,1.41,0,3-.1,4.58,0s2.76-.72,4.14-1A28.42,28.42,0,0,0,83.79,116l.65.6A18,18,0,0,1,77.76,119.37Z"/><path d="M121.52,118.75l3.72-2.42.41.46-1.19,1.53,1.08,1.16c-.92.7-1.71,0-2.65-.34l-2,1,.26,1.72c-1.27-.6-1.8-1.53-2.62-2.16h-1.83l-2,1.8-.29-2.05c-1-.38-2.15-.77-3.25-1.19s-2-.79-3-1.2c.25-1,.92-.78,1.34-.63,1.1.38,2.17.89,3.25,1.36a12.52,12.52,0,0,0,6,1C119.73,118.7,120.61,118.75,121.52,118.75Z"/><path d="M86.24,144.88l.18-1.48c1,.68,1.78,1.27,2.61,1.78A10.5,10.5,0,0,0,94.24,147c1,0,2,.59,2.9.39,2.09-.48,4.28-.21,6.3-.92a7.06,7.06,0,0,0,3.69-2.41l1.6.19c-.7.76-1.06,1.47-1.63,1.73-2.1,1-4.17,2-6.6,2-1.45,0-2.91.48-4.34.41a15.43,15.43,0,0,1-9-3.12A3.71,3.71,0,0,0,86.24,144.88Z"/><path d="M89.7,132.82l.65-.65c4,3.19,8,3.32,12.15-.2v1.3a9,9,0,0,1-8.09,2.15C92.71,135.09,90.79,134.54,89.7,132.82Z"/><path class="cls-2" d="M124.12,184.71l4.07-1.32"/><path class="cls-2" d="M178.94,139.58c1.77-2.69,4.16-8.27,5.88-13.16a93.51,93.51,0,0,0,4.3-16.76c.18-1.2.39-2.4.59-3.6"/><path class="cls-2" d="M189.71,105.82l.48-5"/><path class="cls-2" d="M190.07,89.07a93.16,93.16,0,0,0-3.71-20.35"/><path class="cls-2" d="M184.33,62.73a81.89,81.89,0,0,0-5.39-12"/><path class="cls-2" d="M135.13,9.94l-4.55-1.79"/><path class="cls-2" d="M130.34,7.91c-2.07-.68-4.14-1.37-6.22-2a90.28,90.28,0,0,0-18-3.72,8.42,8.42,0,0,1-1-.24"/><path class="cls-2" d="M102.09,1.8,98.5,1.45"/><path class="cls-2" d="M92.52,1.57l-3.12.35"/><path class="cls-2" d="M85.81,2A106.85,106.85,0,0,0,71.93,4.57c-1.37.35-2.72.79-4.07,1.18"/><path class="cls-2" d="M8.12,60.34c-.91,2.63-1.89,5.25-2.74,7.9A79.3,79.3,0,0,0,2,84.52c-.1,1-.31,1.91-.47,2.87"/><path class="cls-2" d="M1.42,92.9l.12,5"/><path class="cls-2" d="M1.66,103.43a90.17,90.17,0,0,0,3.71,18.91"/><path class="cls-2" d="M6.45,125.46l2.75,7.42"/><path class="cls-2" d="M60,182.07c2.55.88,5.09,1.79,7.66,2.63a84.61,84.61,0,0,0,17.95,3.72,7.92,7.92,0,0,1,1,.24"/><path class="cls-2" d="M89.64,188.78l3.59.36"/><path class="cls-2" d="M99.22,189l3.11-.36"/><path class="cls-2" d="M105.92,188.54c3.59-.6,7.19-1.19,10.77-1.81a14.48,14.48,0,0,0,1.68-.47"/><path class="cls-2" d="M129.86,133.83a4.21,4.21,0,0,0,3.37-2.14,79,79,0,0,0,5-9.11c.82-1.66,1.68-3.31,2.38-5,1.47-3.66,3-7.28,4.34-11a14.34,14.34,0,0,0,.93-4.32c.11-4.23.27-8.46.23-12.68-.05-4.63-.29-9.26-.47-13.89a13.35,13.35,0,0,0-.35-1.82c-1.87-2.16-4-4.63-6.11-7-2.35-2.59-4.82-5.08-7.16-7.68a29.69,29.69,0,0,1-4.09-5.49,8.63,8.63,0,0,0-1.2-1.67,56.48,56.48,0,0,0-13.67-10.72,41.5,41.5,0,0,0-9.75-3.77c-3.38-.95-5.53.74-7.92,2.29a9.42,9.42,0,0,0-1.68,1.66,14.92,14.92,0,0,1-4.31,3.37c-2.27,1.16-3.77,3.24-5.48,5a54.21,54.21,0,0,0-3.85,5.07l.21,2.4L74.8,59.14c-8.46,2.75-15.63,7.65-22.24,13.44a34.81,34.81,0,0,0-2.91,3.55c-1.39,1.59-1.58,3.64-1.84,5.52-.83,6.11-.58,12.28-.52,18.43,0,3.43.3,6.86.45,10.29A21.25,21.25,0,0,0,50.16,118a74.79,74.79,0,0,0,6.44,8.4,3.69,3.69,0,0,0,2.64,1.43"/><path class="cls-2" d="M129.86,136.47c-.08-.4-.36-.93-.2-1.18.58-.93-.18-1.62-.19-2.44a73.94,73.94,0,0,0,4.95-15.77,89,89,0,0,0,1.19-15.8c-1.5-1.18-.16-3-1-4.31"/><path class="cls-2" d="M133.69,94.21c-.77-.36-1-1.13-1.44-1.79a42.35,42.35,0,0,0-14.82-14.15,63.5,63.5,0,0,0-14.38-6.68,1.71,1.71,0,0,0-2.13-.41,8.57,8.57,0,0,1-2.42.43c-.8.08-1.59.32-2.39.46-2.43.42-4.82,1-7.19,1.64a60.36,60.36,0,0,0-9.81,3.62,36.38,36.38,0,0,0-8.67,5.46c-3.06,2.69-5.92,5.57-8.79,8.45a40,40,0,0,0-3.18,4,4.15,4.15,0,0,0-.89,2.67A103.57,103.57,0,0,0,58,110.86c.33,2.69.27,5.43.54,8.13.16,1.61.65,3.19.91,4.79.17,1,.18,2.07.26,3.11"/><path class="cls-2" d="M60.67,129.64c.32.76.66,1.51,1,2.28a20.2,20.2,0,0,1,.71,2.16c.21.86.33,1.75.49,2.63"/><path class="cls-2" d="M80.31,57.47c3.31,4.32,7.84,6.76,12.92,8.4,1.59.51,3.21.92,4.77,1.48s3.27.66,4.84,1.3a9.56,9.56,0,0,0,2.85.47,27.42,27.42,0,0,1,6.44,1.56,45.39,45.39,0,0,1,14.39,8.08,24.75,24.75,0,0,1,8,11.24c.6,1.7.8,3.14-.07,4.69"/><path class="cls-2" d="M147.34,120.19c-1-1.09-2.24-.51-3.08,0a8.25,8.25,0,0,0-3.89,5.21A38.62,38.62,0,0,1,139,130a10.32,10.32,0,0,1-5.26,5.74c-.79.42-1.62.76-2.54,1.19l-1.27-.27a71.48,71.48,0,0,0-5.48,4.87,50.65,50.65,0,0,0-4.8,6.21,35.7,35.7,0,0,0-3.2,5.94c-.85,2-.7,4.26-2.41,6.12a7.19,7.19,0,0,0-2.1,1.3,26.55,26.55,0,0,1-8.13,5.05,16.31,16.31,0,0,1-3.59,1.15,9.05,9.05,0,0,1-4.82-.83A134.6,134.6,0,0,1,81.27,159c-1.27-.74-2.35-1.8-3.72-2.11-1.93-2.67-2.82-5.78-4.64-8.43-3-4.28-6.1-8.35-10.42-11.42-.62,0-1.48.21-2-.1-2.6-1.45-5.36-2.71-6.78-5.67-.38-.8-.55-1.64-.9-2.43a18.88,18.88,0,0,1-.89-2.89,10,10,0,0,0-4.88-6.2c-.88.07-1.84-.24-2.62.48"/><path class="cls-2" d="M144.71,132.4a48.19,48.19,0,0,1,2.62-9.58,22.56,22.56,0,0,0,.67-2.3c1.19-.29,1.63-1.36,2.2-2.25a16,16,0,0,1,4.17-4.78h1.35l1,1c-.8,1.25-1.58,2.55-2.45,3.78a49.77,49.77,0,0,0-5.47,10.79,41.33,41.33,0,0,0-2.42,8.6c-.24,1.6-.58,3.19-.69,4.79a3.91,3.91,0,0,1-2.14,3.42c-1.58,1-3.29,1.74-4.85,2.77a39.4,39.4,0,0,0-10,8.65,13,13,0,0,0-2.39,2.88"/><path class="cls-2" d="M34.58,116.84c-1,.79-.43,1.78-.2,2.62a3.67,3.67,0,0,0,1.17,1.67c2.34,1.91,3.64,4.8,6.2,6.5a1.55,1.55,0,0,1,.48.94,4.76,4.76,0,0,0,1.7,2.4,58,58,0,0,1,2.65,13,8.62,8.62,0,0,0,3.29,2.63c5.74,3.18,11.1,6.86,14.89,12.39a11.31,11.31,0,0,0,1.35,1.38A103.94,103.94,0,0,1,54.45,176"/><path class="cls-2" d="M47.51,132.4c-.76-2-.92-4.19-1.61-6.25-.4-1.2-.89-2.36-1.27-3.57-.21-.64-.48-1.27-.81-2.16-1.24-.51-1.82-1.85-2.56-3.09a9.45,9.45,0,0,0-3.82-3.83c-.19-.1-.47,0-.81,0l-1.34,1a6.66,6.66,0,0,0,.74,1.43c2.31,2.66,3.84,5.8,5.49,8.87.48.88.8,1.75,0,2.63"/><path class="cls-2" d="M86.77,143.89a11.34,11.34,0,0,0,6.94,3.6,17.09,17.09,0,0,0,2.4.44,49.4,49.4,0,0,0,7.65-1,8.85,8.85,0,0,0,2.4-1.16c.66-.37,1.28-.79,1.92-1.19"/><path class="cls-2" d="M127.23,101.52c-2.26,0-4.39-.92-6.71-.77s-4.86-.26-7.18.77"/><path class="cls-2" d="M84.61,106.06a11.25,11.25,0,0,0-.72-1.43,7.9,7.9,0,0,0-4-2.94c-2.77-1-5.55-.93-8.4-.94-2.06,0-4,.63-6,.77"/><path class="cls-2" d="M118.37,169.74c-.58.44-.48,1.08-.48,1.68,0,4.07,0,8.14,0,12.21a13.26,13.26,0,0,0,.46,2.39"/><path class="cls-2" d="M74.8,168.31c.32.76,1.19,1.42.48,2.39,0,4.23,0,8.46,0,12.69a2.51,2.51,0,0,0,.23.72"/><path class="cls-2" d="M102.33,132.4c-1,1.74-2.83,2.29-4.56,2.57a7.49,7.49,0,0,1-6.46-1.6c-.17-.16-.47-.17-.71-.25"/><path class="cls-2" d="M77.43,157.06a4.88,4.88,0,0,0-.56,2.88c.17,2.05-.68,4-1.37,6a20,20,0,0,1-1,2.12,8,8,0,0,0-2.11,2.4c-.88,1.31-1.54,2.83-2.82,3.86"/><path class="cls-2" d="M114.54,160.17a6.85,6.85,0,0,1,1,2.62,7.93,7.93,0,0,0,1.41,3.33,8.14,8.14,0,0,1,1.41,3.34c2.13,1,2.4,3.77,4.53,4.83"/><path class="cls-2" d="M83.42,116.84c-2.32,1.14-4.94,1.55-7.18,2.87a7.35,7.35,0,0,0-4.41-.27l-1.58,1.71"/><path class="cls-2" d="M115,119.23c-.08-.08-.15-.21-.24-.23-2.15-.52-4-1.73-6.22-2.16"/><path class="cls-2" d="M125.31,119.47l-2-1-3.2,1.28a6.4,6.4,0,0,0-4.51-.23l-.56,1.4"/><path class="cls-2" d="M67.62,116.84l1,1.34,2.12,1"/></g></g></svg>