<svg xmlns="http://www.w3.org/2000/svg" viewBox="0 0 169.15 165.43"><defs><style>.cls-1{fill:#fefefe;}.cls-2{fill:#424242;}.cls-3{fill:#f6f8f5;}.cls-4{fill:#d7ddd2;}.cls-5{fill:#fbfcf9;}.cls-6{fill:#e3e9d4;}.cls-7{fill:#496334;}.cls-8{fill:#fbfbfa;}.cls-9{fill:#e9ece5;}.cls-10{fill:#d5dbce;}.cls-11{fill:#f6f7f5;}.cls-12{fill:#e6eae3;}.cls-13{fill:#e3e7e0;}.cls-14{fill:#4d6837;}.cls-15{fill:#d8ded3;}</style></defs><g id="Layer_2" data-name="Layer 2"><g id="Layer_1-2" data-name="Layer 1"><path d="M83.67,165.43c-29.94-1.15-54.89-13.78-71.52-40.69C-.65,104-3.33,81.57,4.07,58.39S26.67,18.06,49,8.14c28.61-12.7,56.61-10.5,82.92,6.36,18.79,12,30.89,29.51,35.34,51.39,5.58,27.39-1.31,51.84-20.38,72.45C130.26,156.33,109.23,164.65,83.67,165.43Z"/><path class="cls-1" d="M166.93,82.51c-.2,17.45-5.24,33.88-16.4,48.11-17.85,22.75-41.59,33.64-70.25,32.23-26.87-1.33-48.66-13.36-63.95-35.68C2.62,107.15-1,85,5.49,61.52A76.82,76.82,0,0,1,36.34,18C57.82,2.94,81.5-1.27,106.82,5.54c20.61,5.54,36.7,17.6,48.12,35.69C162.78,53.66,166.49,67.34,166.93,82.51Z"/><path d="M114,104.77a4,4,0,0,1,1.42,3.74c-.48,3.62-2.79,5.41-6.13,6.19a4.91,4.91,0,0,1-.76.17,41.49,41.49,0,0,1-6.78-.07c-1.38-.54-2.86-.18-4.27-.46l-.77-.11c-1.9-.29-3.79-.59-5.7-.83a29.29,29.29,0,0,1-3.23-.8,16.36,16.36,0,0,0-11,.21,25,25,0,0,0-4.37,1c-1.93.24-3.84.64-5.79.75a5.09,5.09,0,0,1-.67.18c-1.15.23-2.34,0-3.46.22a5.58,5.58,0,0,0,2.11.12,14,14,0,0,0,4-.32,30.83,30.83,0,0,0,5.72-1,11.36,11.36,0,0,1,7,.1c2,.61,4,.91,6,1.38,3,.69,5.81,0,8.62-.93a3.63,3.63,0,0,1,1.14,0,10.83,10.83,0,0,0,2.54.31,6.76,6.76,0,0,1,1.08.18,7.43,7.43,0,0,0,2.53.23c2-.08,4,.19,6-.23,3.15-.06,4.69-2.54,6.62-4.42.61-1.77,1.38-3.49,1.11-5.47-.11-.85.72-1.18,1.36-1.47,1.08-.51,2.19-1,3.31-1.38a20.64,20.64,0,0,0,8.66-5.7,24.25,24.25,0,0,1,8.59-6.36,9.18,9.18,0,0,1,7-.17c2,.74,2.47,2.06,1.44,4a11.36,11.36,0,0,1-1.36,2c-9.37,10.92-19,21.52-32.37,27.83a33.47,33.47,0,0,0-5.39,3.52C97.52,135,85.74,137.48,72.71,135.3c-11.29-1.88-22-5.81-33-8.57a88.85,88.85,0,0,0-9.1-2A5.65,5.65,0,0,1,25.82,121c-.77-1.82-1.6-3.65-1.33-5.73a3.76,3.76,0,0,0,0-2.87,13.52,13.52,0,0,1,3.69-8.3,2.8,2.8,0,0,1,2.13-.84c2-.17,3.94-.41,5.92-.63,4.3-.48,8.38-1.49,12-4.13a26.89,26.89,0,0,1,7.36-3.32c4.17-1.38,8.45-.46,12.68-.67a15.57,15.57,0,0,1,4.44.63c2.87.62,5.8.88,8.7,1.31a4.51,4.51,0,0,1,.73.07,5.44,5.44,0,0,1,.7.15c.76.29,1.59.31,2.37.53.33.09.67.18,1,.24,1.31.17,2.6.45,3.9.66,2.72.56,5.42,1.12,8.09,1.88,3.75.88,7.51,1.75,11.24,2.7A12.7,12.7,0,0,1,114,104.77Z"/><path d="M61.35,35.83c.35-1.46.52-3.08,2.77-2,.6.29,1.13-.32,1.57-.78,1.86-1.19,2.11.46,2.74,1.63.15-1.78-3.32-2.41-1.33-4.6a1.65,1.65,0,0,1,.32-.06c.34-.17.64-.76.94-.58,1.72,1,2-.73,2.77-1.4.78-.52,1.3-1.37,2.19-1.76l0,0c.66-.75.09-1.08-.48-1.42-1.13-1.18-.36-2.05.48-2.9,1.26-.11,3-1.1,2.89,1.45h0c-.21.35-.65.69-.29,1.12.16.18.54,0,.81-.13,1.34-1,2.67-.52,3.94.12s2.08.76,2.72-.63c.35-.37.73-.26,1.12-.06a3,3,0,0,0,1.61.55c.59-.06.73-.59,1-1,2.19-1.34,3.69-.69,4.32,1.87-.07,1.12-1.43,1.5-1.51,2.62-.09.69.18,1.09.9,1.13a12.44,12.44,0,0,1,1.49.22,2.43,2.43,0,0,0,2.23-.29c.83-1.07,1.63-2.18,3.19-2.18a2,2,0,0,1,1.36.58c.28,1.64,1.57,1,2.51,1.1,1.17.42,2,1.06,1.49,2.47-.72,1.93-.37,3.06,2,2.93a1.73,1.73,0,0,1,1.25.63c.21.92,1,1.75.49,2.8-.57,1.63.67,2.8,1.3,4,.29.56.68,2,2.06,1.76l.06,0c1.6-.49,2,.86,1.56,1.61a18.52,18.52,0,0,0-2.09,5.8c-.08.35-.51.57-.81.81-.13.15-.45.3-.34.48s.52,0,.79.11a5.69,5.69,0,0,1,1.39.76c2.13,2.37,2.24,3.69.46,5.15a2.94,2.94,0,0,1-3.7.36c-.49-.3-.84-1-1.6-.49-1.54,1.82-3.26,3.16-5.9,2.39-.22-.06-.5,1.08-1.13,1.37s-1.41.31-1,1.36a.88.88,0,0,1-.49,1.13,2.86,2.86,0,0,1-1.66.15,4.48,4.48,0,0,1-.62-.2c-1.25-1.45-1.5.53-2.28.68s-1.45.62-1.55,1.57a111.23,111.23,0,0,0-.2,22c.79,2.2.62,4.54,1,6.8.4,2.62-.31,3.17-3,3a13.08,13.08,0,0,1-1.65-.22,19.37,19.37,0,0,1-4.38-1c-2.06-.56-2.33-2.16-2.28-3.94.07-6.88.16-13.75.85-20.6a3.91,3.91,0,0,0-.19-1.86c-.73-1.26-2.11-.49-3.08-1-1.22-.72-2.38-1.19-3.67,0a2,2,0,0,1-2.82-.07c-.3-.3-.54-.66-.87-.93-1.43-.83-3-1.62-1.51-3.63.06-.3.27.12.11-.16s-.35.07-.53,0c-1.73.41-3.05-.72-4.55-1.14a6,6,0,0,0-2.07,0,5.25,5.25,0,0,1-3.16.09c-1.52-1-.2-2.38-.4-3.56a1.45,1.45,0,0,0-.44-.34c-.72-.15-1.44.28-2.14-.05-1-.62-1.14-2-2.19-2.67-.6-.4-.34-1.35,0-2a8.58,8.58,0,0,0,1-3.31c.6-1,1.59-1.8,0-2.9-1.1-.75-.39-1.81.13-2.7.51-.62,1.18-.26,1.78-.3,1.08-.09-.13-.61.17-.84.28-2.81,1.66-3.42,4.24-1.86.67.6,1.46,0,2.39.39-.47-.41-.79-.55-1-.82l.09-.14a3.5,3.5,0,0,1-.44-2.92,1.57,1.57,0,0,0,.38-2.18C62.35,36.77,61.67,36.47,61.35,35.83Z"/><path class="cls-2" d="M97.22,63.6c1.1-1.15-.7-1.23-.73-2,.56-.71,1.4-.25,2.1-.4,1.48-1.46,3.16-1.08,4.87-.56a1.59,1.59,0,0,1,1,.72c-.32,1,.59.23.77.52,0,0,.52.2,0-.08a.83.83,0,0,0-.19-.15,4.29,4.29,0,0,1-.55-1.44c.15-1.07-.25-2.39,1.26-2.86,0-.88.38-1.94,1.15-.7,1.32,2.12,2.64,1.93,4.12.51,1.85-1.76.41-2.94-.92-4.07-.75-1.06.55-1.56.63-2.4-.4.54-.75,1.15-1.53,1.18a1,1,0,0,1-1-.69c1-.81,1.77-1.6,1.14-3.15-.51-1.25,1-1.77,1.57-2.62.81-1.19.91-2-.74-2.33,1.94-1.18,2.11,1.18,3.22,1.7.93.44.14,1.3-.5,1.84-.08.06.09.42.14.64l1.73,1.69c.75.68,1.94.41,2.61,1.25l.4.5c-.28.83.17,1.25.88,1.52.83.78,2.46-.19,2.94,1.36.58,1-.24,1.36-.77,1.88,1.24-.05,1.19.57.73,1.4-.57.31-.51.86-.53,1.39a3.3,3.3,0,0,1-.47.77c.06.44.31,0,.45.08.36-.07.77.09,1-.28,1.87-.2,2-.11,2.48,1.48a5.54,5.54,0,0,0-.6,3c-.6,1.92,1.51,1,1.93,1.84.4,1.83,1.94,3.86-.58,5.25-1.13.62-2.26.7-2,2.58.14,1-1.27.88-2.1.51a2.19,2.19,0,0,0-3,.58c-.35.9-2-.42-2,1.15l.13.82c.15.12.2.23.13.32s-.12.14-.18.14c-.53.12-1.29,0-1.55.38-1.09,1.37-2.16,1.32-3.44.33a.87.87,0,0,0-1.24.27c-1.18.76-2,.12-2.79-.94a121,121,0,0,0,.4,20.63c.15,1.17.06,2.4,1,3.33.43.38.92,1.07,0,1.12-3.27.15-6.54,0-9.36-2-.37-3.12.5-6.15.82-9.21.46-4.53-.39-9,.11-13.56.14-1.34-.76-2-2.07-2.09a4,4,0,0,1-3.16-1.37,2,2,0,0,0-2.55-.71,2.36,2.36,0,0,0-1.29,2.36c-.08,3.42,0,6.84,0,10.26-.12,1,.14,2-.7,2.78a1.51,1.51,0,0,1-.45-1.3c0-7.11-.17-14.23.42-21.33.19-2.3,1.79-1.1,2.82-1.31.6-.45,1.18-1,2-.45h0A1.25,1.25,0,0,0,97.22,63.6Z"/><path class="cls-2" d="M71.93,68.82a1.91,1.91,0,0,0,2.71-.25c1.18-1.26,2.41-1.29,3.43.28.09,1.9-2,1.18-2.62,2.18S74,73,72.61,73c-2,0-2.5,1.22-2.48,3,0,5.26-.14,10.52.57,15.75a5.26,5.26,0,0,1,0,1.43c-.81,1.68-2.31,1-3.61,1.08a4,4,0,0,1-.78-.18,5.78,5.78,0,0,0-1.93-.64c-1.16-.08-1-.84-.69-1.64-.07-5.43.75-10.83.49-16.27-.32-.59-.66-.55-1-.05-2.15-.67-4.66,1.12-6.61-.95-.58-1-1.12-1.94-2.37-2.16a2.59,2.59,0,0,0-2.55-.23c-.47,0-1.32,0-1.34-.12C50,70,47.69,69.49,47,68a3,3,0,0,1,1.4-3.73c1.69-.78,1.74-1.62.87-2.91-.41-.59-1-1.06-.34-1.84s1.51-.67,2.33-.18c1.59.59.44-.76.76-1.07,1-1.47-.73-2.78-.25-4.22,1.24-.61,3-.51,3.29-2.44.17,1.2.66,2.37-.44,3.5-.59.61-.92,1.58.4,2,1,.35.67,1.69,1.53,2.17.82.73,1.6-.72,2.41,0h0c.91,1.26-1.14,2.57.06,3.84a6.15,6.15,0,0,0,3.28-.45,2.63,2.63,0,0,0,2.38,0c1.54.62,2.88,1.9,4.74,1.38a.62.62,0,0,1,.51.54c-1.62,2,.16,2.59,1.49,3.33-.15.26-.46.2-.67.32A3.37,3.37,0,0,1,71.93,68.82Z"/><path class="cls-1" d="M70.43,93.25a44.26,44.26,0,0,1-1-10.33c0-2.77,0-5.54-.05-8.3,0-1.34.33-2.19,1.75-2.08,1.89.13,3.05-.89,4.08-2.24,2.32.25,4.26-2.06,6.7-1,.83,1.77.14,3.58.09,5.38-.14,6-.34,12.07-.53,18.11-.29,1.29-1.1,2.74,1,3.29a.82.82,0,0,1-.11,1h-.47c-3-.87-6.09-1-9.14-1.39l-4.26-.54c-1-.68-2.53.46-3.35-.92v-.42a1.1,1.1,0,0,1,1.44-.08h0C67.92,93.87,69.31,94.67,70.43,93.25Z"/><path class="cls-3" d="M106.29,34.46a11.07,11.07,0,0,0-1.89-.22c-2.05.11-3.1-1.19-2.11-3,.74-1.33.44-2-.73-2.64-.16-.07-.23-.16-.2-.26s.07-.17.11-.17a1.93,1.93,0,0,0,2-.48c.58.74.87,1.75,1.91,2.1.92.74,1.78,1.5.86,2.81C106.24,33.24,105.91,33.85,106.29,34.46Z"/><path class="cls-4" d="M65.16,94.21c1,.75,2.4,0,3.35.92-2.19-.14-4.39-.26-6.58-.44a33.61,33.61,0,0,0-6.34.48c2.08-1.56,4.49-.83,6.77-1C63.29,94.15,64.22,94.21,65.16,94.21Z"/><path class="cls-4" d="M66.6,93.71l-1.44.08c-1.19-.14-2.75,0-1.44-2C63.55,94.17,65.87,92.73,66.6,93.71Z"/><path class="cls-5" d="M54.2,72.17v.49a5.24,5.24,0,0,0-2.55-.51A1.82,1.82,0,0,1,54.2,72.17Z"/><path class="cls-6" d="M116.26,75.14c-.08-.86-.08-.86,2-1.15C117.92,75,116.66,74.33,116.26,75.14Z"/><path class="cls-7" d="M24.5,112.39a2.19,2.19,0,0,1,0,2.87Z"/><path class="cls-1" d="M99.61,99.47c0,1-.89.88-1.53,1L90,98.56c2.36-1.44,1.64-3.45,1.37-5.65-.3-2.58-.67-5.18-.77-7.79,0-3.66.11-7.33-.07-11-.09-1.84,1.18-2.06,2.27-2.55a2.16,2.16,0,0,1,2.89,1.27c.48,1.08.9,1.14,1.94,1,2.79-.3,3.37.22,3.32,3C100.83,84.46,101.38,92,99.61,99.47Z"/><path class="cls-8" d="M76.62,112.3c4.88-2.42,9.63-.8,14.38.52a20,20,0,0,0,5.26.9.77.77,0,0,1,0,1.06c-4.45,2.48-8.94,1.41-13.44.17-2.77-.76-5.54-1.56-8.43-.58-2.1.33-4.22.51-6.3,1-1.26.41-2.63-.19-3.89.37-1.16-.08-2.6.78-3.31-.93,1.69-.71,3.54.26,5.21-.54h0c2-.2,3.94-.35,5.9-.67C73.55,113.25,75.07,112.73,76.62,112.3Z"/><path class="cls-9" d="M90.61,85.12c1,3.91.93,8,1.56,11.95.28,1.77-1.84.41-2.16,1.49a10.68,10.68,0,0,1-4.14-.89c.24-.61,1-.13,1.29-.57a13,13,0,0,1,1.65,0c3,.42,3,.43,2.57-2.52-.32-2.2-.58-4.42-.87-6.62C90.54,87,90.58,86.07,90.61,85.12Z"/><path class="cls-10" d="M72.77,95.67c3.12,0,6.23,0,9.14,1.39A51.23,51.23,0,0,1,72.77,95.67Z"/><path class="cls-11" d="M87.16,97.1c-.27.57-.89.32-1.29.57l-.62-.1c-.74-.6-1.7,0-2.47-.44l-.21,0-.19-.09v-.85c.27-.41.58-.37.92-.08Z"/><path class="cls-12" d="M68,115.16c2.13-.41,4.22-1.11,6.44-.79a15.65,15.65,0,0,1-5.71.95A.47.47,0,0,1,68,115.16Z"/><path class="cls-13" d="M72.33,113.81c-2.08.21-4.13.81-6.25.45l6.26-1c.16.11.21.22.16.33S72.39,113.81,72.33,113.81Z"/><path class="cls-13" d="M66.1,114.25c-1.64,1.14-3.48.25-5.21.54C62.5,113.36,64.37,114.48,66.1,114.25Z"/><path class="cls-12" d="M72.33,113.81v-.5a14,14,0,0,1,4.28-1C75.33,113.2,73.78,113.35,72.33,113.81Z"/><ellipse class="cls-14" cx="82.38" cy="135.59" rx="2.68" ry="0.15"/><path class="cls-13" d="M68,115.16l.73.16a9.09,9.09,0,0,1-4.48.4C65.34,114.79,66.72,115.49,68,115.16Z"/><path class="cls-15" d="M82.78,97.13c.86-.06,1.77-.4,2.47.44A4.23,4.23,0,0,1,82.78,97.13Z"/><path class="cls-10" d="M83.29,96.14l-.92.08c-2.41-.6-1.42-2.08-.9-3.44C81.59,94.16,81.16,95.84,83.29,96.14Z"/><path class="cls-4" d="M70.43,93.25c.34.32.43.8-.07.85-1.26.12-2.59.53-3.76-.39C67.86,93.38,69.27,94.39,70.43,93.25Z"/></g></g></svg>