<svg xmlns="http://www.w3.org/2000/svg" viewBox="0 0 197 189.14"><defs><style>.cls-1{fill:#fff;}</style></defs><g id="Layer_2" data-name="Layer 2"><g id="Layer_1-2" data-name="Layer 1"><path d="M92.24,189.14c-5.57-.87-11.2-1.5-16.71-2.66a93.38,93.38,0,0,1-35.72-16.1c-18-13-30.49-30-36.41-51.61A88.82,88.82,0,0,1,7.64,58.32c9.69-22.25,26-38.33,47.7-48.7a98.72,98.72,0,0,1,50.9-9.3A99,99,0,0,1,154.71,17c14.9,10,26.43,23.05,33.88,39.46a89.49,89.49,0,0,1,4.78,63.12c-6.46,22.82-20.23,40.36-39.82,53.31a95.56,95.56,0,0,1-42.5,15.42c-2.12.24-4.24.53-6.36.81Zm82.3-40c1.1-1.34,1.92-2.21,2.6-3.19,15-21.63,20.1-45.39,14.19-71.06-6.37-27.72-23.2-47.67-48-60.8C124.25,4,103.69,1.18,82.47,4.6A93.72,93.72,0,0,0,28.23,33.17C12.57,49.64,4.21,69.32,3.4,92.07a84.16,84.16,0,0,0,7.27,37.54c2.31,5.21,5.28,10.12,8,15.29,3.58-1.74,6.57-3.59,10.26-2.67a27.18,27.18,0,0,1-6.15,3.37c-1.89.76-2,1.58-.75,3.16a91.17,91.17,0,0,0,25.34,22.72c22,13.4,45.7,17.13,70.84,12.38A90,90,0,0,0,157.49,166c5.07-4,9.51-8.73,14.19-13.17.8-.75,1.73-1.73.49-2.84-1.71-1.53-3.3-3.47-5.32-4.31-3.42-1.41-7.13-2.09-10.72-3.12-1.06-.3-2.08-.72-3.13-1.09l.15-.81a13.25,13.25,0,0,1,2.64-.25C162.9,141.14,169.75,142.49,174.54,149.14Z"/><path class="cls-1" d="M174.54,149.14c-4.79-6.65-11.64-8-18.75-8.69a13.25,13.25,0,0,0-2.64.25l-.15.81c1.05.37,2.07.79,3.13,1.09,3.59,1,7.3,1.71,10.72,3.12,2,.84,3.61,2.78,5.32,4.31,1.24,1.11.31,2.09-.49,2.84-4.68,4.44-9.12,9.21-14.19,13.17a90,90,0,0,1-39.26,17.82c-25.14,4.75-48.86,1-70.84-12.38a91.17,91.17,0,0,1-25.34-22.72c-1.21-1.58-1.14-2.4.75-3.16A27.18,27.18,0,0,0,29,142.23c-3.69-.92-6.68.93-10.26,2.67-2.74-5.17-5.71-10.08-8-15.29A84.16,84.16,0,0,1,3.4,92.07c.81-22.75,9.17-42.43,24.83-58.9A93.72,93.72,0,0,1,82.47,4.6c21.22-3.42,41.78-.62,60.87,9.49,24.79,13.13,41.62,33.08,48,60.8,5.91,25.67.79,49.43-14.19,71.06C176.46,146.93,175.64,147.8,174.54,149.14Zm-71.3-51.66.7.09c.39,2.48,1.25,5,1.07,7.44-.2,2.83,1,4.75,2.61,6.64a22.52,22.52,0,0,0,3.51,3.59c3.32,2.46,4,5.87,3.91,9.67-.24,8.76,1.17,10.56,9.69,12.49.24,0,.47.09.71.12,5.93.66,11.87,1.27,17.8,2,5.36.66,6.21,0,6.61-5.42.08-1.11.1-2.23.21-3.35a14.53,14.53,0,0,1,6.18-10.89,45,45,0,0,1,4.41-2.87c6.39-3.59,9.13-9.1,7.29-16.1-1.7-6.48-.33-11.92,3.39-17.13a20.31,20.31,0,0,0,1.87-3.62c3.27-7.43,1.23-14.07-3.26-20.21a12.24,12.24,0,0,1-2.32-8.33c.17-2.55.45-5.1.66-7.64.58-6.79-2.11-11.4-8.31-14.15a13.42,13.42,0,0,0-3.81-1.37c-5.39-.57-9.8-3.14-13.92-6.4a22.49,22.49,0,0,0-2.83-1.79c-4.57-2.6-9.15-2.95-13.87-.28a3.13,3.13,0,0,1-2.7-.17C110,11.28,96.71,11,83.29,18.19a30.35,30.35,0,0,1-10.82,3.39c-5.55.68-11.06,1.66-15.75,5.08C50.22,31.4,47.8,38.4,45.82,45.8a59.22,59.22,0,0,1-4.68,11.69,32.92,32.92,0,0,1-5.36,7c-8.08,8.66-10.49,18.49-6,29.6C32,99.74,31.28,104.9,29,110.3A59.48,59.48,0,0,0,25,123c-1.49,8.3,5.61,16.66,14,17.26a23.1,23.1,0,0,1,6.05,1.25c3.45,1.24,6.81,2.73,10.18,4.18A40.54,40.54,0,0,0,74,149c6.46-.39,11-3.5,13.1-9.76.92-2.72,1.72-5.49,2.58-8.24a10.07,10.07,0,0,1,5.69-6.68c5-2.2,7.25-6.2,7-11.63,0-1-.11-2.08-.11-3.12,0-2.78-.07-5.58.07-8.36A19.66,19.66,0,0,1,103.24,97.48Zm8,23.49c-3.31-2.94-5.92-2.84-9,0Z"/><path d="M103.24,97.48a19.66,19.66,0,0,0-.9,3.71c-.14,2.78-.07,5.58-.07,8.36,0,1,.07,2.08.11,3.12.2,5.43-2.09,9.43-7,11.63A10.07,10.07,0,0,0,89.64,131c-.86,2.75-1.66,5.52-2.58,8.24C85,145.48,80.42,148.59,74,149a40.54,40.54,0,0,1-18.69-3.27c-3.37-1.45-6.73-2.94-10.18-4.18A23.1,23.1,0,0,0,39,140.28c-8.4-.6-15.5-9-14-17.26A59.48,59.48,0,0,1,29,110.3c2.31-5.4,3.07-10.56.8-16.19-4.48-11.11-2.07-20.94,6-29.6a32.92,32.92,0,0,0,5.36-7A59.22,59.22,0,0,0,45.82,45.8c2-7.4,4.4-14.4,10.9-19.14,4.69-3.42,10.2-4.4,15.75-5.08a30.35,30.35,0,0,0,10.82-3.39C96.71,11,110,11.28,122.84,19.8a3.13,3.13,0,0,0,2.7.17c4.72-2.67,9.3-2.32,13.87.28A22.49,22.49,0,0,1,142.24,22c4.12,3.26,8.53,5.83,13.92,6.4A13.42,13.42,0,0,1,160,29.81c6.2,2.75,8.89,7.36,8.31,14.15-.21,2.54-.49,5.09-.66,7.64a12.24,12.24,0,0,0,2.32,8.33c4.49,6.14,6.53,12.78,3.26,20.21a20.31,20.31,0,0,1-1.87,3.62c-3.72,5.21-5.09,10.65-3.39,17.13,1.84,7-.9,12.51-7.29,16.1a45,45,0,0,0-4.41,2.87,14.53,14.53,0,0,0-6.18,10.89c-.11,1.12-.13,2.24-.21,3.35-.4,5.44-1.25,6.08-6.61,5.42-5.93-.73-11.87-1.34-17.8-2-.24,0-.47-.07-.71-.12-8.52-1.93-9.93-3.73-9.69-12.49.1-3.8-.59-7.21-3.91-9.67a22.52,22.52,0,0,1-3.51-3.59c-1.62-1.89-2.81-3.81-2.61-6.64.18-2.44-.68-5-1.07-7.44Zm45.23-44.89c.82,5.79-1.82,9.57-6.93,10.31a39.79,39.79,0,0,1-5.47.2c-3.1,0-6.24-.28-9.31,0-4.62.48-7.32,3.11-8.35,7.67-.43,1.94-.57,4-.87,5.92-.83,5.45-2.77,10.12-8.15,12.73-4.93,2.39-6.2,10.43-2.09,14.23,7.07,6.53,15.12,11.47,24.63,13.67a6.33,6.33,0,0,0,7.13-3.14,28.36,28.36,0,0,0,1.51-3.78c.61-1.56.6-3.57,2.94-3.86.28,0,.68-.55.71-.88.21-2.12.38-4.25.46-6.37.06-1.79-.57-3.81,1.86-4.59,5.82-1.88,6.6-4.09,3.23-9.22-.22-.33-.45-.65-.65-1-2.49-4.33-3.35-8.62-.73-13.38,2.73-5,4.08-10.41,2.91-16.2a6.43,6.43,0,0,1,.18-1.81,5,5,0,0,1,3.83,5.74c-.32,3.86-.7,7.89-2.11,11.44-2.12,5.36-1.92,10.11.86,15.11,2.15,3.87,1.42,7.68-1.88,10.66a22.43,22.43,0,0,0-7.11,12.72,24.92,24.92,0,0,1-1.09,3.67c-2.61,7.26-8.67,10.3-16,8-2-.61-3.87-1.48-5.81-2.21-2.26-.85-3-.29-2.7,2.1.27,2.22.71,4.42.9,6.65.23,2.62,1.6,4.23,4.07,4.61,5.66.88,11.34,1.62,17,2.32,2,.24,2.59-1,3-2.83A49.33,49.33,0,0,1,147.87,121c2.08-4.21,6.09-6.7,10-9.06a8.68,8.68,0,0,0,4.42-9.74c-1.31-7.2-.66-14,3.47-20.24,3.57-5.39,4.51-11.06.67-16.59-4.33-6.24-4.58-13-4-20.2.48-6.13-1.26-9-5.69-10.31-1.37-.42-2.75-.81-4.06-1.36-3.65-1.54-7.59-2.67-10.82-4.85-4.43-3-8.7-5.22-14.2-3.64-3.57,1-6.88.12-10.1-1.67-9.15-5.07-18.76-6-28.26-1.53a65.66,65.66,0,0,1-19.27,6c-9.63,1.28-15.35,6.92-17.73,16.36C50.87,49.65,49.61,55.25,46.32,60c-1.89,2.75-4,5.39-6,8.07-2.82,3.77-6.49,7.25-6.59,12.25a41.7,41.7,0,0,0,1.51,12.23,28.67,28.67,0,0,1-1.38,20.56,38.8,38.8,0,0,0-2.52,7c-1.07,4.56-.95,9.11,3.17,12.22,1.83,1.38,4.26,2,6.5,2.8,3.53,1.21,7.23,2,10.68,3.4,6.74,2.78,13.4,5.52,20.95,5,5-.31,8.12-2.08,9.49-6.88,2.23-7.83,5.45-14.8,13-19a5.38,5.38,0,0,0,2.4-3.15,103.11,103.11,0,0,0,2.64-14.83c.43-6.1,2.59-10.88,7.75-14.25a11.21,11.21,0,0,0,5-7.57,78.12,78.12,0,0,1,2.09-8.86,14,14,0,0,1,13.47-10c2.55-.07,5.11,0,7.66,0,3.36-.06,6.46-.66,8.77-3.52A23.39,23.39,0,0,1,148.47,52.59Z"/><path d="M111.2,121h-9C105.28,118.13,107.89,118,111.2,121Z"/><path class="cls-1" d="M148.47,52.59A23.39,23.39,0,0,0,145,55.5c-2.31,2.86-5.41,3.46-8.77,3.52-2.55,0-5.11,0-7.66,0a14,14,0,0,0-13.47,10A78.12,78.12,0,0,0,113,77.92a11.21,11.21,0,0,1-5,7.57c-5.16,3.37-7.32,8.15-7.75,14.25a103.11,103.11,0,0,1-2.64,14.83,5.38,5.38,0,0,1-2.4,3.15c-7.52,4.18-10.74,11.15-13,19-1.37,4.8-4.5,6.57-9.49,6.88-7.55.48-14.21-2.26-20.95-5-3.45-1.42-7.15-2.19-10.68-3.4-2.24-.77-4.67-1.42-6.5-2.8-4.12-3.11-4.24-7.66-3.17-12.22a38.8,38.8,0,0,1,2.52-7,28.67,28.67,0,0,0,1.38-20.56,41.7,41.7,0,0,1-1.51-12.23c.1-5,3.77-8.48,6.59-12.25,2-2.68,4.06-5.32,6-8.07,3.29-4.78,4.55-10.38,5.94-15.86,2.38-9.44,8.1-15.08,17.73-16.36a65.66,65.66,0,0,0,19.27-6c9.5-4.46,19.11-3.54,28.26,1.53,3.22,1.79,6.53,2.7,10.1,1.67,5.5-1.58,9.77.66,14.2,3.64,3.23,2.18,7.17,3.31,10.82,4.85,1.31.55,2.69.94,4.06,1.36,4.43,1.36,6.17,4.18,5.69,10.31-.56,7.18-.31,14,4,20.2,3.84,5.53,2.9,11.2-.67,16.59-4.13,6.24-4.78,13-3.47,20.24a8.68,8.68,0,0,1-4.42,9.74c-3.89,2.36-7.9,4.85-10,9.06a49.33,49.33,0,0,0-3.36,10.15c-.46,1.86-1.08,3.07-3,2.83-5.69-.7-11.37-1.44-17-2.32-2.47-.38-3.84-2-4.07-4.61-.19-2.23-.63-4.43-.9-6.65-.3-2.39.44-3,2.7-2.1,1.94.73,3.83,1.6,5.81,2.21,7.34,2.29,13.4-.75,16-8a24.92,24.92,0,0,0,1.09-3.67,22.43,22.43,0,0,1,7.11-12.72c3.3-3,4-6.79,1.88-10.66-2.78-5-3-9.75-.86-15.11,1.41-3.55,1.79-7.58,2.11-11.44a5,5,0,0,0-3.83-5.74,6.43,6.43,0,0,0-.18,1.81c1.17,5.79-.18,11.21-2.91,16.2-2.62,4.76-1.76,9,.73,13.38.2.35.43.67.65,1,3.37,5.13,2.59,7.34-3.23,9.22-2.43.78-1.8,2.8-1.86,4.59-.08,2.12-.25,4.25-.46,6.37,0,.33-.43.85-.71.88-2.34.29-2.33,2.3-2.94,3.86a28.36,28.36,0,0,1-1.51,3.78,6.33,6.33,0,0,1-7.13,3.14c-9.51-2.2-17.56-7.14-24.63-13.67-4.11-3.8-2.84-11.84,2.09-14.23,5.38-2.61,7.32-7.28,8.15-12.73.3-2,.44-4,.87-5.92,1-4.56,3.73-7.19,8.35-7.67,3.07-.32,6.21,0,9.31,0a39.79,39.79,0,0,0,5.47-.2C146.65,62.16,149.29,58.38,148.47,52.59Zm-5.35,47.72-8.9-1.18-.36.79c1.78,1.78,3.5,3.62,5.39,5.28a2,2,0,0,0,1.94-.44A34.34,34.34,0,0,0,143.12,100.31ZM129.35,74.24c1.23,5.56,9.74,8.51,13.58,5.08a4.19,4.19,0,0,0-4.38-1.58,8,8,0,0,1-7.1-2C130.94,75.32,130.34,75,129.35,74.24Z"/><path d="M143.12,100.31a34.34,34.34,0,0,1-1.93,4.45,2,2,0,0,1-1.94.44c-1.89-1.66-3.61-3.5-5.39-5.28l.36-.79Z"/><path d="M129.35,74.24c1,.72,1.59,1.08,2.1,1.53a8,8,0,0,0,7.1,2,4.19,4.19,0,0,1,4.38,1.58C139.09,82.75,130.58,79.8,129.35,74.24Z"/></g></g></svg>