<svg xmlns="http://www.w3.org/2000/svg" viewBox="0 0 191.6 190.21"><defs><style>.cls-1{fill:#fff;}</style></defs><g id="Layer_2" data-name="Layer 2"><g id="Layer_1-2" data-name="Layer 1"><path d="M96,0c51.71-.35,95.31,42.49,95.63,94,.34,53.21-42,96-95.76,96.21C43.2,190.44.28,147.77,0,95.81-.28,43,42.32.37,96,0Zm40.73,178.05c15.78-8,28.39-19.09,37.74-33.84,12.93-20.41,17.15-42.6,12.73-66.19-4.34-23.2-16.29-42-35.19-56.26C129.49,4.85,104.14-1,76.79,4.9,43.65,12,20.85,32.15,8.41,63.62A84.48,84.48,0,0,0,4.62,113.3c6.77,31.13,25.2,53.14,54.08,66.47A2.86,2.86,0,0,0,63,177.84c1.87-6.27,3.7-12.54,5.57-18.8a23.06,23.06,0,0,0,.22-12.52c-.87-3.4-1.6-6.84-2.62-10.19-2.72-9-3.32-18.49-7.47-27.09-1.09-2.27-1.34-4.86,1.09-7,1.46-1.29,1-5.69-.52-7.07a15.67,15.67,0,0,1-5.38-11.11,5.71,5.71,0,0,1,1.64-4.11c.65-.57,2.59,0,3.8.53a25.69,25.69,0,0,1,4,2.43c1.45-5.17,4.38-9.59,3.18-15A3.47,3.47,0,0,1,69,63.77a2.11,2.11,0,0,0,1.31-1.12c.93-3.52,1.63-7.1,2.66-10.59.49-1.65,1.28-4.13,2.41-4.43,1.57-.41,3.61.8,5.39,1.49.58.22,1,1,1.49,1.58.55-.63,1-1.15,1.48-1.7,4-4.83,8-9.7,12.16-14.48,2.12-2.47,4.21-2.09,5.81.78,1.41,2.53,3.17,5,1.12,8.13A33.9,33.9,0,0,0,106.09,40c1-1.15,2-2.29,3.06-3.36,2.27-2.26,4.91-1.63,5.81,1.46,1.05,3.61,1.2,7.25-.51,10.74-.9,1.83-1.9,3.61-2.86,5.42,2.26-2.09,4.19-4.48,6.36-6.62.92-.91,2.72-2.1,3.45-1.75a5.57,5.57,0,0,1,2.94,3.56c.56,4.54.46,9.12-2.51,13-1.54,2-3.13,4-4.69,6q-3.39,4.35-6.77,8.72c3.26-3.2,6-6.79,9-10.18.75-.86,2.55-1.74,3.33-1.4a4.52,4.52,0,0,1,2.21,3.26,14,14,0,0,1-.87,6.51,91,91,0,0,1-6.14,10.76,2.93,2.93,0,0,0-.23,3.42c2.95,5.57,6,11.1,8.59,16.82a23.14,23.14,0,0,1,2,8.28c.7,14.49,1.17,29,1.71,43.51C130.22,165.41,133.07,171.72,136.69,178.05ZM62.58,112a15,15,0,0,0,1.82,2.69A77.32,77.32,0,0,1,78.05,132.1c1.13,2,2.52,3.88,3.69,5.88a5.86,5.86,0,0,1,.78,2.4c.63,7.15,1,14.33,1.85,21.45C85,167.4,86.56,173,91.75,176c4.13,2.39,6.88,5.25,7.59,10a2.16,2.16,0,0,0,1.73,1.23c4.42-.43,8.86-.8,13.2-1.63a60.6,60.6,0,0,0,19.5-7.81c-.52-1.22-1.06-2.29-1.43-3.41-1.36-4.13-3.54-8.23-3.84-12.45-1.13-15.74-1.56-31.54-2.43-47.3a21.21,21.21,0,0,0-1.88-7.78c-3.54-7.4-7.4-14.66-11.23-21.92a10.11,10.11,0,0,0-2.66-3.31c-5.81-4.48-11.72-8.83-17.6-13.22-.74-.55-1.51-1.06-2.27-1.59l.07.69c-1.38.73-2.77,2-4.16,2-1.54,0-3.1-1.13-5-1.92a11.19,11.19,0,0,0,1.34,2.73c2.38,2.54,4.58,5.39,7.38,7.38,7.21,5.11,13.58,10.8,16.76,19.34a7.58,7.58,0,0,0,.45.84c3.06,5.69,6.14,11.36,9.14,17.09.29.55,0,1.38,0,2.08a17.16,17.16,0,0,1-1.76-1.15,3.54,3.54,0,0,1-.58-1C110.36,107.9,106.47,101,102.93,94A27.26,27.26,0,0,0,94,83.33c-5.36-3.7-10.5-7.74-15.85-11.73-2.73,5-5.89,2.53-9.37.23,2,5.26,5.48,8.21,9.13,11.1,4.56,3.62,9,7.38,13.46,11.13A5.65,5.65,0,0,1,92.72,96q4.69,9.81,9.31,19.66c.27.56.7,1.51.48,1.75-1.53,1.65.06,2.65.59,3.92a9,9,0,0,1,.3,2.47c-.65-.44-1.52-.74-1.92-1.34-3.11-4.74-6.33-9.41-9.11-14.33a30.1,30.1,0,0,0-11-11.25c-5.31-3.2-10.4-6.77-14.89-9.73-1.94,1.21-3.26,2.62-4.69,2.76s-3.11-1-4.91-1.58c1.85,4.11,5.06,6.67,8.43,9.1C70.19,101,75.1,104.5,80,108.11a6.75,6.75,0,0,1,1.92,2.35q4.53,9.08,8.9,18.22c.18.38-.05,1-.09,1.45a5.89,5.89,0,0,1-1.48-.3c-.33-.16-.5-.61-.76-.9a146.47,146.47,0,0,0-20.69-19.11ZM64,117.74c.13.94.17,1.56.32,2.16,2,8.12,3.89,16.27,6,24.36A28.94,28.94,0,0,1,70.14,161c-1.89,5.91-3.54,11.91-5.28,17.87-.29,1-.73,1.9.7,2.56,10,4.69,20.66,6,31.74,6.1-.39-3.54-1-6.82-4.36-8.42A16.88,16.88,0,0,1,83.17,166c-1.3-8-1.79-16.15-2.64-24.23a5.86,5.86,0,0,0-.46-2.53C75.11,132,71.62,123.63,64,117.74Zm40.47-72.92L89.14,63.36l8.32,5.85c1.35-1.85,2.53-3.53,3.77-5.17,3-4,6.15-7.92,9.09-12a15.71,15.71,0,0,0,3.3-8.63C108.21,47.65,107.83,47.71,104.49,44.82Zm9.39,10.48L99.35,70.56l8.47,6.5c4-5,8-9.72,11.54-14.69,1.65-2.28,2.53-5.11,3.75-7.69l-.64-.3C117.86,58.22,117.09,58.32,113.88,55.3ZM91.78,42.9a4.88,4.88,0,0,0-.69.59c-4.78,5.67-9.6,11.3-14.29,17a19.16,19.16,0,0,0-2.3,4.4c-.19.42-.2,1.28.08,1.51C76.22,67.8,78,69,80,70.55a51.25,51.25,0,0,1-1.24-7.35,5,5,0,0,1,1.53-3.69c.75-.56,2.5-.11,3.66.31a19.57,19.57,0,0,1,3.61,2.24c5.19-7.07,10.62-13.78,14-21.79C95.71,45.74,95.43,45.82,91.78,42.9ZM69.66,78.35c-.66,1.76-1.18,3.49-1.94,5.11-.64,1.38-.3,2.07,1,2.87,5.3,3.37,10.44,7,15.82,10.25a23.47,23.47,0,0,1,8.61,9c1.46,2.6,3.2,5,4.81,7.57-1.4-4.3-3.57-8.21-5.11-12.35-2.64-7.12-9.43-10-13.76-14.56l-2.81,1.58V84.37Zm14.58,42.72c-2.5-4.52-2.94-10.19-8-13.41-4.46-2.82-8.57-6.2-12.9-9.37-1.39,2.79-1.3,4.79,1.32,6.18A11.43,11.43,0,0,1,66.44,106ZM116.1,85.73l6.5-11.16-.46-.65c-2,1.68-3.84,1.43-5.56-.26-1.74,2.14-3.33,4.09-4.81,5.93ZM73.07,62c2-2.46,4.18-5,6.16-7.66.56-.74,1.08-2.25.71-2.79a8.94,8.94,0,0,0-3.16-2.23c-.16-.09-1.06.63-1.16,1.09C74.69,54.29,73.87,58.24,73.07,62ZM98.56,34.76c-1.52,1.82-3,3.45-4.28,5.25-.36.5,0,1.51,0,2.29.84-.08,1.89.11,2.47-.32a15.67,15.67,0,0,0,2.51-2.85C100.5,37.64,100.43,36.25,98.56,34.76Zm-16.84,26L81,61c0,1-.42,2.4.07,2.88a26.34,26.34,0,0,0,5,3.6c.35.2,1.47-.29,1.75-.75a1.92,1.92,0,0,0-.31-1.83C85.61,63.46,83.64,62.15,81.72,60.78Zm30-23.73c-1.55,1.74-3.08,3.26-4.34,5-.41.55-.13,1.6-.17,2.42.85-.07,1.9.14,2.51-.29a15.27,15.27,0,0,0,2.59-2.78C113.53,39.88,113.45,38.51,111.68,37.05ZM69.5,65.64c-1.31,1.41-1.41,2.72-.26,3.76a21.23,21.23,0,0,0,4.27,2.92,2.09,2.09,0,0,0,2-.59,2.06,2.06,0,0,0-.23-2C73.43,68.25,71.45,67,69.5,65.64ZM56.9,81.28c-1.56,1.42-1.39,2.77-.08,4a12.08,12.08,0,0,0,3.34,2.26c.76.31,1.81-.06,2.72-.12-.27-.87-.28-2-.87-2.55A54,54,0,0,0,56.9,81.28Zm63.92-33.8c-1.54,1.83-3,3.45-4.3,5.24a2.25,2.25,0,0,0,.17,2.2,2.33,2.33,0,0,0,2.23-.09,17.18,17.18,0,0,0,2.67-3C122.74,50.31,122.68,48.91,120.82,47.48ZM60.93,104.19l-.7.28c.14.79,0,1.86.47,2.31a25.54,25.54,0,0,0,3.57,2.54c.18-.59.7-1.49.49-1.71C63.58,106.38,62.23,105.31,60.93,104.19Zm61-37-2.83,3.53c-.15.19-.4.36-.43.56a2.41,2.41,0,0,0,0,1.31,1.16,1.16,0,0,0,1,.39C121.36,72.75,123,69.06,122,67.2Z"/><path class="cls-1" d="M136.69,178.05c-3.62-6.33-6.47-12.64-6.74-19.85-.54-14.51-1-29-1.71-43.51a23.14,23.14,0,0,0-2-8.28c-2.61-5.72-5.64-11.25-8.59-16.82a2.93,2.93,0,0,1,.23-3.42,91,91,0,0,0,6.14-10.76,14,14,0,0,0,.87-6.51,4.52,4.52,0,0,0-2.21-3.26c-.78-.34-2.58.54-3.33,1.4-3,3.39-5.75,7-9,10.18q3.39-4.36,6.77-8.72c1.56-2,3.15-4,4.69-6,3-3.92,3.07-8.5,2.51-13a5.57,5.57,0,0,0-2.94-3.56c-.73-.35-2.53.84-3.45,1.75-2.17,2.14-4.1,4.53-6.36,6.62,1-1.81,2-3.59,2.86-5.42,1.71-3.49,1.56-7.13.51-10.74-.9-3.09-3.54-3.72-5.81-1.46-1.07,1.07-2.07,2.21-3.06,3.36a33.9,33.9,0,0,1-3.23,3.46c2-3.16.29-5.6-1.12-8.13-1.6-2.87-3.69-3.25-5.81-.78C91.82,39.3,87.82,44.17,83.77,49c-.45.55-.93,1.07-1.48,1.7-.54-.6-.91-1.36-1.49-1.58-1.78-.69-3.82-1.9-5.39-1.49-1.13.3-1.92,2.78-2.41,4.43-1,3.49-1.73,7.07-2.66,10.59A2.11,2.11,0,0,1,69,63.77a3.47,3.47,0,0,0-2.58,4.09c1.2,5.45-1.73,9.87-3.18,15a25.69,25.69,0,0,0-4-2.43c-1.21-.48-3.15-1.1-3.8-.53a5.71,5.71,0,0,0-1.64,4.11,15.67,15.67,0,0,0,5.38,11.11c1.49,1.38,2,5.78.52,7.07-2.43,2.15-2.18,4.74-1.09,7,4.15,8.6,4.75,18.13,7.47,27.09,1,3.35,1.75,6.79,2.62,10.19A23.06,23.06,0,0,1,68.55,159c-1.87,6.26-3.7,12.53-5.57,18.8a2.86,2.86,0,0,1-4.28,1.93C29.82,166.44,11.39,144.43,4.62,113.3A84.48,84.48,0,0,1,8.41,63.62C20.85,32.15,43.65,12,76.79,4.9,104.14-1,129.49,4.85,152,21.76,170.87,36,182.82,54.82,187.16,78c4.42,23.59.2,45.78-12.73,66.19C165.08,159,152.47,170,136.69,178.05Z"/><path class="cls-1" d="M62.58,112l5.19-2.17a146.47,146.47,0,0,1,20.69,19.11c.26.29.43.74.76.9a5.89,5.89,0,0,0,1.48.3c0-.49.27-1.07.09-1.45q-4.38-9.14-8.9-18.22A6.75,6.75,0,0,0,80,108.11c-4.87-3.61-9.78-7.15-14.7-10.69-3.37-2.43-6.58-5-8.43-9.1,1.8.63,3.41,1.72,4.91,1.58s2.75-1.55,4.69-2.76c4.49,3,9.58,6.53,14.89,9.73a30.1,30.1,0,0,1,11,11.25c2.78,4.92,6,9.59,9.11,14.33.4.6,1.27.9,1.92,1.34a9,9,0,0,0-.3-2.47c-.53-1.27-2.12-2.27-.59-3.92.22-.24-.21-1.19-.48-1.75Q97.41,105.81,92.72,96a5.65,5.65,0,0,0-1.35-1.93c-4.45-3.75-8.9-7.51-13.46-11.13-3.65-2.89-7.15-5.84-9.13-11.1,3.48,2.3,6.64,4.73,9.37-.23,5.35,4,10.49,8,15.85,11.73A27.26,27.26,0,0,1,102.93,94c3.54,7,7.43,13.93,11.17,20.88a3.54,3.54,0,0,0,.58,1,17.16,17.16,0,0,0,1.76,1.15c0-.7.27-1.53,0-2.08-3-5.73-6.08-11.4-9.14-17.09a7.58,7.58,0,0,1-.45-.84c-3.18-8.54-9.55-14.23-16.76-19.34-2.8-2-5-4.84-7.38-7.38a11.19,11.19,0,0,1-1.34-2.73c1.89.79,3.45,1.94,5,1.92,1.39,0,2.78-1.3,4.16-2l-.07-.69c.76.53,1.53,1,2.27,1.59,5.88,4.39,11.79,8.74,17.6,13.22A10.11,10.11,0,0,1,113,84.89c3.83,7.26,7.69,14.52,11.23,21.92a21.21,21.21,0,0,1,1.88,7.78c.87,15.76,1.3,31.56,2.43,47.3.3,4.22,2.48,8.32,3.84,12.45.37,1.12.91,2.19,1.43,3.41a60.6,60.6,0,0,1-19.5,7.81c-4.34.83-8.78,1.2-13.2,1.63A2.16,2.16,0,0,1,99.34,186c-.71-4.76-3.46-7.62-7.59-10-5.19-3-6.74-8.55-7.38-14.12-.83-7.12-1.22-14.3-1.85-21.45a5.86,5.86,0,0,0-.78-2.4c-1.17-2-2.56-3.87-3.69-5.88A77.32,77.32,0,0,0,64.4,114.68,15,15,0,0,1,62.58,112Z"/><path class="cls-1" d="M64,117.74c7.6,5.89,11.09,14.24,16,21.5a5.86,5.86,0,0,1,.46,2.53c.85,8.08,1.34,16.22,2.64,24.23a16.88,16.88,0,0,0,9.77,13.09c3.36,1.6,4,4.88,4.36,8.42-11.08-.06-21.71-1.41-31.74-6.1-1.43-.66-1-1.58-.7-2.56,1.74-6,3.39-12,5.28-17.87a28.94,28.94,0,0,0,.21-16.72c-2.12-8.09-4-16.24-6-24.36C64.19,119.3,64.15,118.68,64,117.74Z"/><path class="cls-1" d="M104.49,44.82c3.34,2.89,3.72,2.83,9.13-1.39a15.71,15.71,0,0,1-3.3,8.63c-2.94,4.06-6.06,8-9.09,12-1.24,1.64-2.42,3.32-3.77,5.17l-8.32-5.85Z"/><path class="cls-1" d="M113.88,55.3c3.21,3,4,2.92,8.59-.92l.64.3c-1.22,2.58-2.1,5.41-3.75,7.69-3.58,5-7.55,9.66-11.54,14.69l-8.47-6.5Z"/><path class="cls-1" d="M91.78,42.9c3.65,2.92,3.93,2.84,9.79-2.63-3.42,8-8.85,14.72-14,21.79a19.57,19.57,0,0,0-3.61-2.24c-1.16-.42-2.91-.87-3.66-.31a5,5,0,0,0-1.53,3.69A51.25,51.25,0,0,0,80,70.55c-2-1.51-3.75-2.75-5.39-4.11-.28-.23-.27-1.09-.08-1.51a19.16,19.16,0,0,1,2.3-4.4c4.69-5.74,9.51-11.37,14.29-17A4.88,4.88,0,0,1,91.78,42.9Z"/><path class="cls-1" d="M69.66,78.35l6.58,6v3.42l2.81-1.58c4.33,4.6,11.12,7.44,13.76,14.56,1.54,4.14,3.71,8,5.11,12.35-1.61-2.52-3.35-5-4.81-7.57a23.47,23.47,0,0,0-8.61-9C79.12,93.35,74,89.7,68.68,86.33c-1.26-.8-1.6-1.49-1-2.87C68.48,81.84,69,80.11,69.66,78.35Z"/><path class="cls-1" d="M84.24,121.07,66.44,106a11.43,11.43,0,0,0-1.83-1.53c-2.62-1.39-2.71-3.39-1.32-6.18,4.33,3.17,8.44,6.55,12.9,9.37C81.3,110.88,81.74,116.55,84.24,121.07Z"/><path class="cls-1" d="M116.1,85.73l-4.33-6.14c1.48-1.84,3.07-3.79,4.81-5.93,1.72,1.69,3.57,1.94,5.56.26l.46.65Z"/><path class="cls-1" d="M73.07,62c.8-3.71,1.62-7.66,2.55-11.59.1-.46,1-1.18,1.16-1.09a8.94,8.94,0,0,1,3.16,2.23c.37.54-.15,2-.71,2.79C77.25,57,75.07,59.49,73.07,62Z"/><path class="cls-1" d="M98.56,34.76c1.87,1.49,1.94,2.88.74,4.37A15.67,15.67,0,0,1,96.79,42c-.58.43-1.63.24-2.47.32,0-.78-.4-1.79,0-2.29C95.54,38.21,97,36.58,98.56,34.76Z"/><path class="cls-1" d="M81.72,60.78c1.92,1.37,3.89,2.68,5.73,4.15a1.92,1.92,0,0,1,.31,1.83c-.28.46-1.4.95-1.75.75a26.34,26.34,0,0,1-5-3.6C80.57,63.43,81,62,81,61Z"/><path class="cls-1" d="M111.68,37.05c1.77,1.46,1.85,2.83.59,4.31a15.27,15.27,0,0,1-2.59,2.78c-.61.43-1.66.22-2.51.29,0-.82-.24-1.87.17-2.42C108.6,40.31,110.13,38.79,111.68,37.05Z"/><path class="cls-1" d="M69.5,65.64c2,1.35,3.93,2.61,5.74,4.08a2.06,2.06,0,0,1,.23,2,2.09,2.09,0,0,1-2,.59,21.23,21.23,0,0,1-4.27-2.92C68.09,68.36,68.19,67.05,69.5,65.64Z"/><path class="cls-1" d="M56.9,81.28A54,54,0,0,1,62,84.83c.59.51.6,1.68.87,2.55-.91.06-2,.43-2.72.12a12.08,12.08,0,0,1-3.34-2.26C55.51,84.05,55.34,82.7,56.9,81.28Z"/><path class="cls-1" d="M120.82,47.48c1.86,1.43,1.92,2.83.77,4.33a17.18,17.18,0,0,1-2.67,3,2.33,2.33,0,0,1-2.23.09,2.25,2.25,0,0,1-.17-2.2C117.78,50.93,119.28,49.31,120.82,47.48Z"/><path class="cls-1" d="M60.93,104.19c1.3,1.12,2.65,2.19,3.83,3.42.21.22-.31,1.12-.49,1.71a25.54,25.54,0,0,1-3.57-2.54c-.47-.45-.33-1.52-.47-2.31Z"/><path class="cls-1" d="M122,67.2c1,1.86-.59,5.55-2.23,5.79a1.16,1.16,0,0,1-1-.39,2.41,2.41,0,0,1,0-1.31c0-.2.28-.37.43-.56Z"/></g></g></svg>