<svg xmlns="http://www.w3.org/2000/svg" viewBox="0 0 162.22 156.51"><defs><style>.cls-1{fill:#fefefe;}.cls-2{fill:#424242;}.cls-3{fill:#0d5b33;}.cls-4{fill:#13643b;}.cls-5{fill:#79a347;}.cls-6{fill:#7ca449;}.cls-7{fill:#0d562f;}</style></defs><g id="Layer_2" data-name="Layer 2"><g id="Layer_1-2" data-name="Layer 1"><path d="M82.23,0c21.08.42,40.48,7.57,56.11,23,20,19.7,27.9,43.75,21.94,71.43-4.87,22.56-18,39.61-38,50.93C98.92,158.48,74.45,160,49.72,150,28.29,141.41,12.93,126.11,5,104.21c-9-24.78-5.56-48.28,9.27-69.86C24,20.07,37.55,10.31,54,4.66A89,89,0,0,1,82.23,0Z"/><path class="cls-1" d="M81.4,2.39c24.09.64,44.85,9.18,60.4,27.79,18.34,22,23,47,13,74.08-6.71,18.27-19.27,31.79-36.46,40.55-22.52,11.46-45.84,12.36-69.14,2.43C30,139.05,16.06,125.14,8,105.71A70.51,70.51,0,0,1,4,63.62,73.71,73.71,0,0,1,22.19,28.23a78.55,78.55,0,0,1,34.53-22A80.2,80.2,0,0,1,81.4,2.39Z"/><path d="M118.82,132.07c-4.44.67-8.9.3-13.35.39-1.63,0-2.26.43-2.16,2.14.14,2.3,0,4.62,0,6.93-.86.31-.92-.48-1.17-.86q-6.66-10.48-13.29-21c-.52-.82-1-1.5-.32-2.57,4.67-7.41,9.26-14.87,13.88-22.31.06-.1.25-.13.87-.42v7.28c0,.83,0,1.61,1.2,1.6,8.12-.14,16.26.68,24.34-.7a21.83,21.83,0,0,0,13.65-8.11,1.18,1.18,0,0,1,1-.44q-2.52,5.58-5.06,11.14c-3.08,6.73-6.05,13.52-10.16,19.7-1.88,2.84-3.82,5.71-7.19,7.08C120.32,131.77,119.54,131.47,118.82,132.07Z"/><path d="M80.94,16.73c7.61-.84,15.22-1.29,22.77.48a7.87,7.87,0,0,1,5.44,4.24c2,3.71,4.27,7.27,6.31,11,.77,1.41,1.46,1.83,2.9.84a41.37,41.37,0,0,1,4.36-2.46c.42-.22.93-.86,1.45-.2.36.47-.12.9-.32,1.28q-2.31,4.32-4.66,8.6c-2.28,4.2-4.57,8.38-6.82,12.6a2.25,2.25,0,0,1-2.36,1.5c-8.68-.42-17.35-.76-26-1.13-.12,0-.23-.16-.66-.45,2.22-1.29,4.28-2.52,6.39-3.68.83-.46,1.19-.86.65-1.83-3.75-6.74-7-13.75-11.73-19.95A24.2,24.2,0,0,0,62.73,18l15.35-1.21A4,4,0,0,0,80.94,16.73Z"/><path d="M18.3,63.47c8.91,0,17.82,0,26.73,0a1.84,1.84,0,0,1,1.88,1.13C50.73,72.27,54.59,80,58.42,87.64c.06.12,0,.3-.05.71A38.35,38.35,0,0,1,52.22,85c-.85-.5-1.32-.54-1.9.37-3.83,6-7.83,11.82-11,18.18-2.91,5.87-3.86,11.91-1.54,18.22a4.07,4.07,0,0,1,.09,1c-.9,0-1-.77-1.3-1.24C31.7,114.09,26.45,107,22.08,99.28c-2.16-3.8-4.19-7.66-5-12a6.55,6.55,0,0,1,.83-4.79c2.32-3.89,4.55-7.85,7-11.7.84-1.35.92-2.08-.64-2.89-2.09-1.1-4-2.46-6.07-3.71Z"/><path class="cls-2" d="M78.77,31c-.32.66-.56,1.16-.82,1.65-5.16,9.86-10.36,19.69-15.44,29.59-.81,1.58-1.39,1.81-3,.91Q48.18,56.6,36.65,50.33c-1.39-.75-1.37-1.25-.61-2.43,5-7.81,10-15.66,15-23.5,1.6-2.51,4.26-3.42,6.91-3.72,8.58-1,15,3.06,20.26,9.4A6.11,6.11,0,0,1,78.77,31Z"/><path class="cls-2" d="M144.58,83.66c0,4.42-2.05,7.93-5.13,10.87A25.24,25.24,0,0,1,126,101.14a1.72,1.72,0,0,1-2.08-1q-9.43-14.48-18.95-28.91c-.72-1.1-.52-1.56.52-2.19q11.4-6.93,22.75-14c1.24-.78,1.78-.69,2.49.65Q137.16,67.93,143.8,80A6.66,6.66,0,0,1,144.58,83.66Z"/><path class="cls-2" d="M47.94,130.49c-6.66-2.62-9.44-10.19-9-17.4a25.82,25.82,0,0,1,1.86-8.33,2,2,0,0,1,2-1.48q17.09-.37,34.15-.94c1.8-.06,2,.6,2,2.17-.07,8.2,0,16.4,0,24.6,0,3.76,0,3.76-3.81,3a8.08,8.08,0,0,0-4.28-.15,31.91,31.91,0,0,1-6.25-.44,3.16,3.16,0,0,0-2.36,0c-4.19-.33-8.41-.16-12.58-.83a.79.79,0,0,1,.94-.25A6.49,6.49,0,0,0,47.94,130.49Z"/><path class="cls-3" d="M70.9,131.92a4.33,4.33,0,0,1,4.28.15Z"/><path class="cls-4" d="M47.94,130.49c.9-.7,1.88-.37,2.87,0l-1.1.16Z"/><path class="cls-5" d="M80.94,16.73a2.24,2.24,0,0,1-2.86.09Z"/><path class="cls-6" d="M118.82,132.07c.69-1.14,1.48-.51,2.27-.14A4.09,4.09,0,0,1,118.82,132.07Z"/><path class="cls-7" d="M62.29,131.46a1.7,1.7,0,0,1,2.36,0Z"/></g></g></svg>