<svg xmlns="http://www.w3.org/2000/svg" viewBox="0 0 202.98 189.98"><defs><style>.cls-1{fill:#fff;}.cls-2,.cls-3{fill:none;stroke:#000;}.cls-2{stroke-linecap:round;stroke-linejoin:round;stroke-width:2px;}.cls-3{stroke-miterlimit:10;}</style></defs><g id="Layer_2" data-name="Layer 2"><g id="Layer_1-2" data-name="Layer 1"><g id="Layer_2-2" data-name="Layer 2"><g id="Layer_1-2-2" data-name="Layer 1-2"><path d="M106.27,0c17.81.1,38.67,6.44,57.21,19.84,14.79,10.73,26,24.39,32.87,41.37a87.77,87.77,0,0,1,5.6,46.87c-3.2,21.38-13.11,39.32-28.81,54a101.56,101.56,0,0,1-53.91,26.38,106.14,106.14,0,0,1-56.86-5.87,100.22,100.22,0,0,1-37-24.91c-13.56-14.41-22-31.33-24.56-51-3-23.16,2.33-44.36,15.61-63.44,11.8-17,27.69-28.87,47-36.3C75.59,2.22,88.24,0,106.27,0Z"/><path class="cls-1" d="M103.16,186.84c-17.6-.08-33-3.27-47.27-10.51-22.89-11.6-39.73-29-48.07-53.54-7.94-23.41-6-46.33,5.4-68.29A89.66,89.66,0,0,1,46.83,18.67c28.35-17.22,58.45-20,89.8-9.47a93.05,93.05,0,0,1,34.64,21.1C187.68,45.93,197.69,65,199.48,87.75S195,131.12,180.8,149.12c-14.1,17.83-32.43,29.15-54.36,34.72A102.1,102.1,0,0,1,103.16,186.84Z"/><path d="M50.37,151.84a31.36,31.36,0,0,1-17.29,0c-.18-.41-.36-.62-.36-.84-.08-8.21-.62-16.42,1-24.56,2.06-10.39,9.13-18.14,18.47-20.08,5.54-1.15,11-.37,16.31,1.09,4.56,1.23,9.08,2.28,13.88,2.11,16-.55,28.35-16.07,25.11-31.78-1.23-6-4.06-11.21-7.24-16.3-1-1.56-2-3.1-3-4.65-3-4.87-5.16-10-5.43-15.88-.37-7.65,0-15.29-.2-23.19a32,32,0,0,1,17-.35,4.76,4.76,0,0,1,.59,3.11V34.88A11.29,11.29,0,0,0,110.2,40c1.11,2.26,2.85,2.93,5.13,1.87a27.18,27.18,0,0,0,3.45-2.14c6.38-4.24,13.26-6.5,21-5.46a28.06,28.06,0,0,1,14.91,7.08c10.8,9.49,16.25,21.55,17.25,35.86,2,28.11-17.48,55.51-40.7,65.51-11.42,4.92-23.2,7.05-35.49,4.4-9-1.93-16.82-5.88-22.36-13.6A32.4,32.4,0,0,0,67.11,127c-4.66-3.69-13-3.73-15.07,5.1-1.22,5.17-1.09,10.44-1.24,15.69C50.78,149,51.08,150.33,50.37,151.84Z"/><path class="cls-1" d="M106.66,140.28a36.57,36.57,0,0,1-18.83-4.63c-3.49-2-6.27-4.66-7.62-8.54-1.41-4.07.58-7.73,4.79-8.82,1.69-.44,3.44-.64,5.16-1,9.73-2,16.46-8,21.54-16.15s6.33-17,4.22-26.43a57,57,0,0,1-1.51-10.39c-.23-6.68,2.14-11.94,7.61-15.82,5.79-4.11,11.86-7,19.19-4.67,4.41,1.38,7.85,4.21,10.91,7.5,7.65,8.25,10.91,18.3,11.08,29.3.15,9.22-2.52,17.87-6.33,26.26a57.32,57.32,0,0,1-16.34,20.86A54.41,54.41,0,0,1,106.66,140.28Z"/><path d="M144.31,38.09l-2.76-1.25v-.4A13.2,13.2,0,0,1,147.08,38c7.08,3.21,12.08,8.62,16.17,15.09,5.23,8.28,7.27,17.4,7.64,27a10,10,0,0,1-.2,2.61c-.25,1.06.08,2.24-.6,3.2-.85.25-1.22-.36-1.57-.85s-.54-1.16-.9-1.67c-3.08-4.45-3.71-9.65-4.88-14.76a39.81,39.81,0,0,0-12.92-21.29C147,44.84,145.82,41.56,144.31,38.09Z"/><path d="M36.46,122.14c1.47-9.14,14.15-17.54,22-14.59C57.66,109.23,38.93,121.75,36.46,122.14Z"/><path class="cls-1" d="M99.91,103.49C109,95,112.19,85,107.55,73,115.08,80,110.14,99.44,99.91,103.49Z"/><path class="cls-2" d="M169.56,88.38a2.83,2.83,0,0,0,1.71-2.64c.49-7.57.14-15.08-2.47-22.25-4.65-12.76-12-23.15-25.58-27.77-1.38-.46-2.86-.93-4.07.47"/><path class="cls-2" d="M145.74,44.33c1.18,2.22,3.48,3.29,5.2,5a41.22,41.22,0,0,1,11.9,22.32c.6,3.12.61,6.36,1.93,9.33"/><path class="cls-2" d="M107.31,70.9c-1.5,2,.07,3.91.53,5.73a24.25,24.25,0,0,1-3.91,21.31,24.46,24.46,0,0,1-4,4.56,2.85,2.85,0,0,0-1.19,2.39"/><path class="cls-2" d="M59.66,107.05a1.89,1.89,0,0,0-1.44-.75c-10.4-.28-18.35,5-22.49,14.88a2.4,2.4,0,0,0,.22,2.63"/><path class="cls-3" d="M137.15,61.48c1.41.76,2.93.34,4.38.3s1.87.48,1.85,1.89c0,3.49,0,3.49-3.39,3.47-2.88,0-2.88,0-2.86,2.88,0,3.41,0,3.42-3,3.4-2.63,0-2.31.27-2.32-2.35V69.35c-.64-1.89-.64-1.86-2.76-1.9-3.42,0-3.7.78-3.64-3.64,0-2.15.32-2.45,2.44-2.47a12.94,12.94,0,0,1,2.33.08c1,.17,1.33-.33,1.33-1.23V56.9c0-.56-.13-1.17.47-1.56a19.64,19.64,0,0,1,3.51-.13,3,3,0,0,1,1.45.2,1.42,1.42,0,0,1,.49,1.39C137.29,58.36,137.76,60,137.15,61.48Z"/><path class="cls-3" d="M149.28,84.13a5.51,5.51,0,0,0,2.9.2c1,0,1.23.31,1.22,1.24,0,2.29,0,2.29-2.24,2.28-1.9,0-1.9,0-1.89,1.9,0,2.24,0,2.24-2,2.23-1.73,0-1.53.18-1.53-1.54V89.31c-.42-1.25-.42-1.23-1.83-1.25-2.25,0-2.44.51-2.4-2.4,0-1.41.21-1.61,1.61-1.62a7.92,7.92,0,0,1,1.54,0c.64.11.88-.22.88-.81V81.06c0-.36-.08-.77.32-1a12.87,12.87,0,0,1,2.32-.09,2,2,0,0,1,1,.14.93.93,0,0,1,.32.91C149.38,82.07,149.69,83.12,149.28,84.13Z"/><path class="cls-3" d="M133.25,102.07c1.41.76,2.93.33,4.38.3s1.87.47,1.85,1.89c0,3.48,0,3.48-3.39,3.47-2.88,0-2.88,0-2.86,2.88,0,3.4,0,3.41-3,3.4-2.63,0-2.31.27-2.32-2.35v-1.73c-.64-1.88-.64-1.86-2.76-1.89-3.42,0-3.7.77-3.64-3.65,0-2.14.31-2.44,2.43-2.46a13.05,13.05,0,0,1,2.34.07c1,.17,1.33-.32,1.33-1.23V97.49c0-.56-.13-1.18.47-1.56a20.47,20.47,0,0,1,3.5-.09A2.87,2.87,0,0,1,133,96a1.43,1.43,0,0,1,.49,1.38C133.39,98.94,133.86,100.54,133.25,102.07Z"/><path class="cls-3" d="M109.91,121.1a5.47,5.47,0,0,0,2.89.2c1,0,1.23.31,1.21,1.24,0,2.28,0,2.28-2.23,2.27-1.89,0-1.89,0-1.88,1.89,0,2.23,0,2.23-2,2.22-1.73,0-1.52.18-1.53-1.54v-1.12c-.43-1.24-.43-1.22-1.82-1.25-2.25,0-2.44.51-2.4-2.38,0-1.41.21-1.61,1.61-1.62a9.77,9.77,0,0,1,1.53,0c.64.11.88-.21.88-.81v-2.15c0-.37-.08-.77.31-1a12.76,12.76,0,0,1,2.31-.09,2,2,0,0,1,1,.13.93.93,0,0,1,.32.91C110,119.05,110.32,120.1,109.91,121.1Z"/></g></g></g></g></svg>