<svg xmlns="http://www.w3.org/2000/svg" viewBox="0 0 196.59 188.86"><defs><style>.cls-1{fill:#fff;}</style></defs><g id="Layer_2" data-name="Layer 2"><g id="Layer_1-2" data-name="Layer 1"><g id="Layer_2-2" data-name="Layer 2"><g id="Layer_1-2-2" data-name="Layer 1-2"><path class="cls-1" d="M100.31,188.86c2.79-.24,7.84-.36,12.78-1.13,25.72-4,47.14-15.87,63.34-36.36,17.69-22.38,23.82-47.88,18.06-75.8-4.92-23.83-18-42.7-37.78-56.78C133,1.89,106.58-3.47,78.15,2.14,53.83,7,33.88,19.35,18.87,39.2,2.71,60.59-3.29,84.82,1.71,111.16c5.77,30.37,23.55,52.15,50.52,66.58C66.51,185.36,82,188.64,100.31,188.86Z"/><path d="M100.31,188.86c-18.35-.22-33.8-3.5-48-11.12-27-14.43-44.79-36.21-50.6-66.58-5-26.34,1-50.57,17.16-72,15-19.85,35-32.25,59.28-37.06,28.43-5.61,54.85-.25,78.56,16.65,19.79,14.08,32.82,33,37.74,56.78,5.76,27.92-.37,53.42-18.06,75.8-16.2,20.49-37.62,32.32-63.34,36.36C108.15,188.5,103.1,188.59,100.31,188.86Zm-2.12-3.27c4.37-.3,8.78-.33,13.11-1,26-3.71,47.29-15.63,63.42-36.42,14.5-18.7,20.37-40,17.84-63.47-2.71-25.16-14.7-45.29-34.35-60.77C137.8,7.9,114.34,1.48,88.52,4,65.08,6.21,45,15.81,28.71,32.79,9.5,52.79,1.1,76.71,4.11,104.25c3.1,28.39,17.76,50,41.18,65.58C61.18,180.43,79,185.5,98.19,185.59Z"/><path class="cls-1" d="M98.19,185.59c-19.2-.07-37-5.14-52.9-15.74C21.87,154.2,7.21,132.64,4.11,104.25c-3-27.54,5.39-51.48,24.6-71.46C45,15.79,65.08,6.21,88.52,4c25.82-2.48,49.28,3.94,69.69,20,19.65,15.5,31.64,35.63,34.35,60.77,2.53,23.48-3.34,44.77-17.84,63.47-16.13,20.79-37.47,32.71-63.42,36.42C107,185.24,102.56,185.27,98.19,185.59Zm-38.67-84c1.12,1,2.86,1.26,3,3.39.08,1.73,1.49,2.64,3.27,2.3a2.62,2.62,0,0,0,2.25-3,2,2,0,0,0-.05-.24c-.28-1.81-1.57-2.5-3.28-2.44s-3.45,0-5.18-.06l-5.06-4.16a1.64,1.64,0,0,0,0,1.49c2.09,3.1,3.92,6.13,2,10.13a2.28,2.28,0,0,0,1.28,3,2.18,2.18,0,0,0,.79.16,3.9,3.9,0,0,0,3.08-1.43,2.23,2.23,0,0,0-1.12-3.55c-3.19-.87-2.79-3.33-3.33-5.81Zm37.81,3.79v.78a41.39,41.39,0,0,1-4.45.61,6.55,6.55,0,0,0-5.52,2.74c-2.9,4-1.9,10.29,2,13.8,3.27,2.94,7.12,2.51,11,2.76,6.09.4,10.37-4,11.62-9.54.89-3.9-1.12-9.63-7-9.39-2.22.09-4.64-.43-6.14-2.87-.57-.92-2.27-1.19-3.52-1.58-.26-.08-1,.56-1.08.94s.44,1,.84,1.19a10.55,10.55,0,0,0,2.2.54Zm26.22-22.55A18,18,0,0,1,122,86.35c-.9,1.31-.51,2.16.42,3.13s1.59.8,2.68.12a7.08,7.08,0,0,1,7.21-.53c2.83,1.46,6.65-.18,7.18-3.3a16.13,16.13,0,0,0,.27-6.49c-.69-3.22-3.7-4.29-5.09-6.74,0-.06-.14-.08-.22-.08-2.93,0-5.69-1.56-8.84-.28-3.5,1.43-4.74,3.94-2.9,7.25a15.29,15.29,0,0,1,.88,3.38Zm-54.71,48.9c-.48-5.26-2.87-9-7.09-11.37a12.4,12.4,0,0,0-13,.22c-1.39.79-2.42,1.7-.84,3.31q7.53,7.65,15,15.35c1.26,1.3,2.35,1.07,3-.34,1.16-2.31,2-4.79,2.93-7.19ZM123.3,96.07c-.13-2.86-1.86-5.41-4.88-7.26-2.84-1.74-5.24-.67-7.49,1A24,24,0,0,0,106,94.28a6.81,6.81,0,0,0-1.12,4.6,8.83,8.83,0,0,0,9.62,7.42,10.42,10.42,0,0,0,8.79-10.25ZM134.59,132c.29-3.47,2.68-2.49,5-2.47a9.77,9.77,0,0,0,5.58-1.44c4.48-3.29,6-8.47,7.41-13.53a3,3,0,0,0-.86-2.6c-.57-.37-1.86,0-2.67.43-1.85.89-3.6,2.81-5.38,2.8-3.12,0-5.67,1.31-8.3,2.37a6.71,6.71,0,0,0-4.14,5.94c-.06,1.07,1.33,2.23,2,3.36.23.36.41.75.7,1.29a13.33,13.33,0,0,0-3,.49c-.62.26-1,1-1.55,1.57a8.33,8.33,0,0,0,1.7,1c1,.34,2.14.48,3.51.77ZM64.27,96.59l.2-.85a12.2,12.2,0,0,1,3-1.22c2.55-.3,3.49-1.87,3.83-4.15.64-4.38-.65-8.44-2.59-12.17-1.71-3.3-8.76-3-10.41.34a25.06,25.06,0,0,0-2.45,7.92c-.68,6-.35,6.21,5.11,8.62a6.1,6.1,0,0,1,1.75,1.72c.52.59.8,1.48,1.42,1.85a5.79,5.79,0,0,0,2.26.27,14,14,0,0,0-1.12-1.75C65.08,96.89,64.63,96.79,64.27,96.59ZM37.46,51c.7,2.61-1.09,3.09-3.18,3.69a9.25,9.25,0,0,0-6.87,7.22c-.67,3.73-.43,7.65-.33,11.48,0,.85,1.13,1.68,1.74,2.52a16.35,16.35,0,0,0,2.43-1.87c1.29-1.38,2.25-3.1,3.67-4.3,2.12-1.8,4.65-3.13,6.77-4.93s2.41-4.06,2.18-6.7c-.2-2.3-1.89-2.46-3.37-3.1a8.54,8.54,0,0,1-1.25-.84,11.49,11.49,0,0,0,2.66-1.41A6.71,6.71,0,0,0,43,50.59a11.45,11.45,0,0,0-2.34-.3A23.27,23.27,0,0,0,37.46,51Zm-1.41,55.41a10.58,10.58,0,0,0,6.27,9.41,9,9,0,0,0,10.14-2.71c2.48-3,2.52-5.46.07-9.14a28.38,28.38,0,0,0-2.37-3C48,98.5,45.5,96.89,42,98.23A9.15,9.15,0,0,0,36.05,106.44Zm9.59-60.56-.56.73c.91.6,1.77,1.58,2.75,1.74A3.57,3.57,0,0,1,51,51.08a3.59,3.59,0,0,0,4,2.66,18,18,0,0,0,11.74-5.15C69.15,46.42,68,40.16,65,39.15c-4.29-1.47-8.77-2-13,0a5.18,5.18,0,0,0-2.48,3.44C48.9,46.49,49.07,46.52,45.64,45.88Zm62.54,113.35c.35-1.89-.35-3.21-2.28-3.49-2.83-.42-4.14-2.26-5.12-4.68A2,2,0,0,0,97,151a7.14,7.14,0,0,1-4.88,4.75,3.49,3.49,0,0,0-1.84,1.63c-1.4,2.72-.22,6.3,2.46,8.25a9.78,9.78,0,0,0,6.09,1.81C104,167.47,108,164.39,108.18,159.23Zm52.15-69.14a30.77,30.77,0,0,0-2.16-3.5c-3.07-3.78-6.21-7.49-9.33-11.22-1.17-1.4-2.3-3-4.17-.78l.73-1.74-.62-.25a11.12,11.12,0,0,0-3.34,9.29c.57,4.67,2.83,8.34,7.47,10A11.41,11.41,0,0,0,160.33,90.09ZM65.24,111.35c.7,2.28,1.45,4.78,2.24,7.27.09.28.39.5.56.76,1.2,2,2.56,3.83,3.57,5.88a11.84,11.84,0,0,0,5.71,5.86,5.47,5.47,0,0,0,6.6-1.08c1.85-1.83,2.48-4.25,1.13-6.55-1.06-1.8-2.43-3.8-4.19-4.73C75.71,116.05,71.21,112,65.24,111.35ZM97.18,76.09l.71.43c1.22-.57,2.45-1.12,3.65-1.72a33,33,0,0,0,3.89-2.08c1.77-1.19,3.33-2.68,5.13-3.8A12.13,12.13,0,0,0,116,62.8,5.68,5.68,0,0,0,114.13,56a5.36,5.36,0,0,0-7-.1,12.89,12.89,0,0,0-3.84,4.43C101,65.47,99.17,70.81,97.18,76.09ZM83,150.21q-1.53.54-3,1.23c-1.9,1.05-1.39,2.76-.82,4.22.71,1.78,1.8.36,2.74.08.43-.14.93-.45,1.3-.34,2.75.76,4,0,5.52-2.43a10.15,10.15,0,0,1,3.66-3.26c1.59-.86,3.78-.8,5.16-1.85,3.67-2.79,7.07-5.93,10.53-9,1.07-1,2-2.06,3-3.09l-.45-.79a21.3,21.3,0,0,0-3.77.74c-4.6,1.81-9.17,3.69-13.7,5.69-1.11.49-2.57,1.35-2.86,2.33-.75,2.59-2.4,2.93-4.67,3S82.57,147.8,83,150.21ZM137.71,96.7c-.51.48-1,1-1.53,1.45a7.72,7.72,0,0,0,10.27,11.44c3.15-2.49,4.06-7.1,1.53-10.25a22,22,0,0,0-8.27-6.18c-1.11-.49-2.65,0-4,0l1.8,3S137.55,96.29,137.71,96.7ZM45.09,78.33l.31.35c-1.4,1-2.74,2.15-4.2,3.07a7.74,7.74,0,0,0,7.89,13.32,6.81,6.81,0,0,0,1.11-.8,7.82,7.82,0,0,0,.63-11L50.56,83a8.5,8.5,0,0,0-1.85-1.07c.8-1,1.14-1.3,1.38-1.69.39-.63.72-1.31,1.07-2a8.51,8.51,0,0,0-2.4-.58A25.59,25.59,0,0,0,45.09,78.33Zm73.07,65.56c-.43-.76-.74-1.4-1.13-2-1.39-2-3.6-2.74-5.64-1.58a10.26,10.26,0,0,0-5.51,8.45c-.3,4.47,4.54,8.43,8.9,7.45a15.6,15.6,0,0,0,3-.94c4.14-1.75,6.83-5.27,2.19-9.49-.09-.09-.08-.3-.12-.45l2-3-.69-.58ZM164,63.82a10.32,10.32,0,0,1-2.49,1.69c-2.15.65-2.88,2.2-2.28,4a60.05,60.05,0,0,0,3.8,9.63c1.53,2.92,4.48,1.77,6.63,1a5.3,5.3,0,0,0,2.68-3.72,51,51,0,0,0,.11-9,3,3,0,0,0-2.77-3.2h-.38a5.55,5.55,0,0,1-4.71-2.3c-.44-.64-1.71-.69-2.6-1l-.35.79ZM80.48,99.66c3.6,0,8.17-2.62,9.68-5.27a7,7,0,0,0-.8-8,5,5,0,0,0-6.65-1.11,4.39,4.39,0,0,1-1.14.26c-3.48.73-5.8,3.08-7.53,5.92a4.59,4.59,0,0,0,0,3.6A7.24,7.24,0,0,0,80.48,99.66Zm34.81,28.64.43-.39,6.59,5.93,1.31-3,8.09,10.32.85-.32c-.28-1.52-.15-3.28-.9-4.51-4.25-7-10.13-11.76-18.5-13-1.73-.25-2,.41-1.65,1.82,2,8,6.37,14.18,13.85,17.9a17.71,17.71,0,0,0,3.71.94l.18-.54-9.13-9.86-.31.24.64,1.72-.52.28q-2.31-3.77-4.64-7.53Zm3.73-20c-1.27.61-3.43,1-4.37,2.27-1.45,2-.18,4.18,1.3,5.83a35.63,35.63,0,0,0,5.36,5.06,9.54,9.54,0,0,0,4.44,1.46c.44,0,1-1.48,1.59-2.26.18-.25.55-.37.7-.63.47-.81.91-1.65,1.31-2.51.22-.47.19-1.14.52-1.47.92-.93,2.15-1.6.43-3-.9-.73-1.31-2.4-2.25-2.71a89.41,89.41,0,0,0-9-2.06ZM143.9,47.39c-2.06,0-5.15,1.41-8.33,3.69-3,2.14-3.26,5.28-.7,7.94,2.23,2.32,5.13,2.88,8.34,1.4s5.93-3.31,5.89-7.35c0-3.3-2.3-5.75-5.2-5.7ZM91.45,55.86c-1.36-1.74-2.74-3.56-4.18-5.27-1.78-2.1-3.61-4.16-5.5-6.16a14.35,14.35,0,0,0-3-2.6,4.89,4.89,0,0,0-6.11.92c-1.69,1.68-2.6,3.67-1.82,6,.87,2.64,3.08,3.71,5.58,4.28,2.83.66,5.66,1.34,8.52,1.87C87.13,55.36,89.4,55.59,91.45,55.86ZM32.88,101c.49-2,1-3.94,1.4-5.88a13.09,13.09,0,0,0,.09-1.66c.2-1.87.39-3.75.64-5.61.17-1.26.55-2.49.63-3.74a5.14,5.14,0,0,0-3.24-5.57,6.23,6.23,0,0,0-6.69,1.21c-2,1.74-2.09,4.06-1.07,6.35a40.61,40.61,0,0,0,2.22,3.64c.71,1.23,1.36,2.49,2,3.73Zm132.33-.16a24.53,24.53,0,0,0-1.09-4.29A3.4,3.4,0,0,0,162,94.88a16,16,0,0,0-4.26-.46c-3.45,0-5.63,2.24-5.82,5.69-.13,2.3-.25,4.6-.39,6.9-.06,1.1.22,1.64,1.51,1.4,2.18-.42,4.38-.73,6.57-1C163.29,106.87,165.2,104.77,165.21,100.82ZM79.87,67.91c-1.76.48-3,.79-4.19,1.17a6.06,6.06,0,0,0-4.32,7.4,6.22,6.22,0,0,0,.51,1.32c.9,1.93,1.66,3.93,2.67,5.79a2,2,0,0,0,1.87.56c1.45-.75,2.71-1.87,4.13-2.69,5-2.84,5.72-6.83,2-11.15A25.38,25.38,0,0,0,79.87,67.91Zm-4.26,83.68a51.87,51.87,0,0,0,5.27-3.69c2.69-2.47,2.72-5.76.39-8.55-1.37-1.64-2.61-3.39-4-5-.34-.38-1.58-.57-1.83-.31C73.66,136,72,138,70.37,140a4.91,4.91,0,0,0-.3,6.24C71.5,148.18,73.58,149.66,75.61,151.59Zm66.62-113.5c-2.33.46-4.26,1-6.22,1.19-3.69.45-7.41.61-11.09,1.15-3.86.56-5.44,3.68-3.92,7.27,1.66,3.9,5.84,4.5,9.43,1.32,2.36-2.1,4.68-4.23,7-6.37C139,41.25,140.43,39.8,142.23,38.09ZM48.08,74.82a10.64,10.64,0,0,0,2.45.22c4.36-.92,8.72-1.85,13-2.92A4.51,4.51,0,0,0,66,70.44,3.16,3.16,0,0,1,69.27,69a5.56,5.56,0,0,0,2.79-.78,11.68,11.68,0,0,0,2.79-2.2,5.32,5.32,0,0,0,1.29-2.3,1.74,1.74,0,0,0-.7-1.55C73,61,70.12,61.88,68,64a8.86,8.86,0,0,1-3.28,1.83c-1.53.52-3.33.43-4.71,1.16-3.29,1.71-6.35,3.72-9.44,5.65A22.81,22.81,0,0,0,48.08,74.82Zm75.86-8.11v.73a7.26,7.26,0,0,0,1.65.65c4,.46,7.92,1,11.89,1.2,1.32.07,2.67-.81,4-1.13a12.38,12.38,0,0,1,2.78-.22,20.84,20.84,0,0,0,3.15.21,7.92,7.92,0,0,0,3-1.16,13.86,13.86,0,0,0,2.3-2.16c-.6-.54-1.16-1.1-1.8-1.59-.29-.23-.77-.22-1.06-.46-1.72-1.43-3.23-.84-5,.1a9.07,9.07,0,0,1-3.93.57c-1.32,0-2.69-.47-3.94-.22-3.52.68-7,1.59-10.48,2.47A24.29,24.29,0,0,0,123.94,66.71ZM100,94.35c3.91.21,6.77-2.7,6.9-7,.08-2.57-1.1-3.79-3.68-3.93-1.71-.1-3.42-.3-5.13-.5s-3,.12-3.76,1.78a6.91,6.91,0,0,0,3.56,9.1A6.78,6.78,0,0,0,100,94.35Zm58.51-46a5.6,5.6,0,0,0-5.88,5.3c0,.16,0,.32,0,.47,0,3.74,2.33,6.18,5.84,6.18,4.3,0,7.63-2.59,7.68-6s-3.4-6-7.63-6ZM77.15,101c-3.63,0-6.09,2.14-6,5.29s4.22,7.08,7.64,7c2.74,0,5.59-3.34,5.59-6.46C84.34,103.16,81.71,101,77.15,101Zm53.47-46.77-.69-.65a5.53,5.53,0,0,0-1,.44c-4.25,3.09-7,2.73-10.44-1.24a29.26,29.26,0,0,0-4.1-4c-.58-.45-1.71-.21-2.59-.28A6.94,6.94,0,0,0,112,51a8.89,8.89,0,0,0,2.2,2.49c3.94,3.33,4,5.09,1.73,11.27a10.83,10.83,0,0,0-.26,2.34,7.46,7.46,0,0,0,2.3-.83c3.47-2.91,6.91-5.85,10.26-8.9A18.61,18.61,0,0,0,130.62,54.19Zm-40.53,15V69a11.64,11.64,0,0,0,1.67,0c2.53-.31,3.5-1.34,3.38-3.85a25.92,25.92,0,0,0-.68-4c-.29-1.48-2.71-3.17-4-2.54a34.78,34.78,0,0,0-7,4.08c-2.2,1.8-1.52,4.43,1.23,5.38A45.58,45.58,0,0,0,90.09,69.19Zm1.62,57.25c-1.45.43-3.12.41-3.71,1.2A34.36,34.36,0,0,0,83.71,135a2.71,2.71,0,0,0,1.35,3.58,2.66,2.66,0,0,0,1.82.14,28.72,28.72,0,0,0,7.8-3.36c1.12-.7,2.92-2.25.69-4.23A32.72,32.72,0,0,1,91.71,126.44Zm-45.26-58c3,.35,13.91-6.79,13.77-8.75-.31.09-.62.14-.9.25-4.13,1.65-5.81,1.1-8.15-2.65a30.92,30.92,0,0,0-2.94-4c-.34-.39-1.22-.3-1.86-.43,0,.66-.33,1.41-.1,1.94a15.16,15.16,0,0,0,1.81,2.79c2.07,2.73,1.82,5.47.08,8.22-.45.78-1,1.53-1.73,2.61Zm19.16,72.85.72.26a6.65,6.65,0,0,0,1.25-.93c4.2-4.8,4.41-14.28-1.21-19.63s-14.58-6.13-19.83-1.47a4.63,4.63,0,0,0-.76,1.33c3.3-1,6.37-2.42,9.57-2.84a11.13,11.13,0,0,1,9.19,3.33C70.77,127.47,70.25,134.26,65.61,141.29Zm48.79-65.7c.34,2.29.6,4-1.33,5.5-1.31,1-.86,2.46.11,3.61s2.41,1.36,3.31.24c.64-.8,1.12-2.64.65-3.25-2.07-2.71-1.69-5.49-1-8.42a16.91,16.91,0,0,0,.27-2.24c-.67.5-.91.6-1,.79-1.73,3-3.68,5.48-7.6,5.69a2.14,2.14,0,0,0-1.92,2.35,2,2,0,0,0,.2.73,4,4,0,0,0,2.72,2,2.17,2.17,0,0,0,2.42-1.89,2,2,0,0,0,0-.74C110.79,77.45,112.41,76.66,114.4,75.59Zm31.74-35.11a19,19,0,0,0-3,1.48c-.55.37-.75,1.26-1.11,1.91a5.67,5.67,0,0,0,2,.76,8.77,8.77,0,0,1,7.13,2.62,2,2,0,0,0,1.81.39,2.28,2.28,0,0,0,.52-1.86c-.31-3-3.47-5.41-7.35-5.35ZM93.36,77.66c0-2.19-1.77-5.23-3.51-5.86a1.94,1.94,0,0,0-1.53,0,1.59,1.59,0,0,0-.23,1.46c1.58,3,1.1,5.8-.47,8.62a1.59,1.59,0,0,0,.1,1.47,1.82,1.82,0,0,0,1.51.15C91.44,82.94,93.36,80.16,93.36,77.66ZM163.65,86c1.83-.27,3.4-.81,4.67.89,1,1.31,2.33,1.7,3.4.41a3.21,3.21,0,0,0,.31-2.93c-.82-1.47-2.27-1.25-3.46-.24-1.8,1.51-3.81,1.36-5.88.92-.71-.15-1.4-.37-2.1-.56l-.32.61a8.82,8.82,0,0,1,1.94,1.48,25.86,25.86,0,0,1,3.11,4.79c.6,1.36,1.15,2.69,2.73,2.31a3.18,3.18,0,0,0,1.9-2.24c.19-1.63-1-2.4-2.63-2.31C165.23,89.25,164.44,87.94,163.65,86ZM152,73.52c.39,3.23,3.07,6.56,5.85,6.82a2.71,2.71,0,0,0,1.87-.63c.21-.18,0-1.27-.39-1.6a9.15,9.15,0,0,1-3.12-7.87,1.12,1.12,0,0,0-2.07-.8C153.36,70.75,152.71,72.15,152,73.52ZM110.9,132.06a4.42,4.42,0,0,0-5.12-3.58,5.29,5.29,0,0,0-.54.13c-3,.7-5,3-4.21,5.65C103.82,131.23,107.22,131,110.9,132.06ZM75.23,57.93c-2.69-4.42-7.71-4.68-10.37-1a6.33,6.33,0,0,0-.55,2.1c.69-.18,1.6-.13,2-.56,1.86-1.78,3.92-1.79,6.18-1.08C73.24,57.59,74,57.68,75.23,57.93Zm52.94,37.8c.93,3.94-.09,7.3-3.08,10.38a5.92,5.92,0,0,0,5.44-4.24,5,5,0,0,0-2.36-6.14Zm-93.7-21.2a5.6,5.6,0,0,0,7-.93c1.09-1.27,1.55-4.15.65-5.42A10.54,10.54,0,0,1,34.47,74.53ZM89.1,103.59l5.78-6.21c-1.8.6-3.43.82-4.63,1.64C88.81,100,88.4,101.66,89.1,103.59Z"/><path d="M97.33,105.36a10.16,10.16,0,0,1-2.15-.56c-.4-.2-.89-.83-.84-1.19s.82-1,1.08-.94c1.25.39,3,.66,3.52,1.58a6.3,6.3,0,0,0,6.14,2.87c5.83-.24,7.84,5.49,7,9.39-1.25,5.52-5.53,9.94-11.62,9.54-3.89-.25-7.74.18-11-2.76-3.9-3.51-4.9-9.75-2-13.8a6.55,6.55,0,0,1,5.52-2.74,41.39,41.39,0,0,0,4.45-.61Z"/><path d="M123.55,82.81a14.93,14.93,0,0,0-.88-3.4c-1.84-3.31-.6-5.82,2.9-7.25,3.15-1.28,5.91.23,8.84.28.08,0,.19,0,.22.08C136,75,139,76,139.72,79.26a16.13,16.13,0,0,1-.27,6.49c-.53,3.12-4.35,4.76-7.18,3.3a7.08,7.08,0,0,0-7.21.53c-1.09.68-1.78.81-2.68-.12s-1.32-1.82-.42-3.13A18,18,0,0,0,123.55,82.81Z"/><path d="M68.84,131.71c-.94,2.4-1.77,4.85-2.87,7.17-.66,1.41-1.75,1.64-3,.34q-7.44-7.72-15-15.35c-1.58-1.61-.55-2.52.84-3.31a12.4,12.4,0,0,1,13-.22C66,122.74,68.36,126.45,68.84,131.71Z"/><path d="M123.3,96.05a10.42,10.42,0,0,1-8.79,10.25,8.83,8.83,0,0,1-9.62-7.42,6.81,6.81,0,0,1,1.12-4.6,24,24,0,0,1,4.92-4.47c2.25-1.69,4.65-2.76,7.49-1C121.44,90.64,123.17,93.19,123.3,96.05Z"/><path d="M134.59,131.93c-1.37-.29-2.46-.43-3.49-.76a8.33,8.33,0,0,1-1.7-1c.51-.55.93-1.31,1.55-1.57a13.33,13.33,0,0,1,3-.49c-.29-.54-.47-.93-.7-1.29-.71-1.13-2.1-2.29-2-3.36a6.71,6.71,0,0,1,4.14-5.94c2.63-1.06,5.18-2.38,8.3-2.37,1.78,0,3.53-1.91,5.38-2.8.81-.39,2.1-.8,2.67-.43a3,3,0,0,1,.86,2.6c-1.44,5.06-2.93,10.24-7.41,13.53a9.77,9.77,0,0,1-5.58,1.44C137.27,129.44,134.88,128.46,134.59,131.93Z"/><path d="M64.27,96.59c.36.19.81.29,1,.57a14,14,0,0,1,1.12,1.75,5.79,5.79,0,0,1-2.26-.27c-.62-.37-.9-1.26-1.42-1.85a6,6,0,0,0-1.81-1.71c-5.46-2.41-5.79-2.61-5.11-8.62a25.1,25.1,0,0,1,2.49-7.87c1.65-3.37,8.7-3.64,10.41-.34C70.63,82,71.92,86,71.28,90.42c-.34,2.28-1.28,3.85-3.83,4.15a12.2,12.2,0,0,0-3,1.22Zm-4-14.74,1.19.5,1.13-4.1-1-.31Z"/><path d="M37.46,51a23.5,23.5,0,0,1,3.18-.71,11.45,11.45,0,0,1,2.34.3,6.57,6.57,0,0,1-1.07,2.17,11.49,11.49,0,0,1-2.66,1.41A8.54,8.54,0,0,0,40.5,55c1.48.64,3.17.8,3.37,3.1.23,2.64-.19,5-2.18,6.7S37,68,34.92,69.77c-1.42,1.2-2.38,2.92-3.67,4.3a16.35,16.35,0,0,1-2.43,1.87c-.61-.84-1.72-1.67-1.74-2.52-.1-3.83-.34-7.75.33-11.48a9.25,9.25,0,0,1,6.87-7.22C36.37,54.12,38.16,53.64,37.46,51Z"/><path d="M36.05,106.44A9.16,9.16,0,0,1,42,98.24c3.52-1.34,6,.27,8.18,2.77a28.38,28.38,0,0,1,2.37,3c2.45,3.68,2.41,6.12-.07,9.14a9,9,0,0,1-10.14,2.71A10.59,10.59,0,0,1,36.05,106.44Zm12.08-3.85-.42.38,4.78,5.12.45-.43Z"/><path d="M45.64,45.88c3.43.64,3.26.61,3.9-3.34A5.23,5.23,0,0,1,52,39.17c4.25-2,8.73-1.52,13,0,3,1,4.13,7.27,1.75,9.44A18,18,0,0,1,55,53.79a3.59,3.59,0,0,1-4-2.66,3.57,3.57,0,0,0-3.2-2.73c-1-.16-1.84-1.14-2.75-1.74Z"/><path d="M108.17,159.23c-.2,5.16-4.16,8.24-9.39,8.17a9.78,9.78,0,0,1-6.07-1.81c-2.68-2-3.86-5.53-2.46-8.25a3.49,3.49,0,0,1,1.84-1.63A7.14,7.14,0,0,0,97,151a2,2,0,0,1,3.83.1c1,2.42,2.29,4.26,5.12,4.68C107.83,156,108.53,157.34,108.17,159.23Z"/><path d="M160.33,90.09a11.4,11.4,0,0,1-11.42,1.72c-4.64-1.61-6.9-5.28-7.47-10a11.11,11.11,0,0,1,3.34-9.22l.62.25-.69,1.75c1.87-2.25,3-.62,4.17.78,3.12,3.73,6.26,7.44,9.33,11.22A31.94,31.94,0,0,1,160.33,90.09Z"/><path d="M65.24,111.35c6,.69,10.5,4.7,15.62,7.41,1.76.93,3.13,2.93,4.19,4.73,1.35,2.3.72,4.72-1.13,6.55a5.47,5.47,0,0,1-6.6,1.08,11.84,11.84,0,0,1-5.71-5.86c-1-2-2.37-3.93-3.57-5.88-.17-.26-.47-.48-.56-.76C66.71,116.13,65.94,113.59,65.24,111.35Z"/><path d="M97.18,76.09c2-5.28,3.84-10.62,6.07-15.79a12.89,12.89,0,0,1,3.84-4.43,5.36,5.36,0,0,1,7,.1,5.68,5.68,0,0,1,1.85,6.83,12.13,12.13,0,0,1-5.42,6.12c-1.8,1.12-3.36,2.61-5.13,3.8a33,33,0,0,1-3.89,2.08c-1.2.6-2.43,1.15-3.65,1.72Z"/><path d="M83,150.21c-.42-2.41.31-3.48,2.67-3.51s3.92-.36,4.67-3c.29-1,1.75-1.84,2.86-2.33,4.53-2,9.1-3.88,13.7-5.69a21.3,21.3,0,0,1,3.77-.74l.45.79c-1,1-1.94,2.14-3,3.09-3.46,3.06-6.86,6.2-10.53,9-1.38,1-3.57,1-5.16,1.85a10.07,10.07,0,0,0-3.71,3.3c-1.52,2.46-2.77,3.19-5.52,2.43-.37-.11-.87.2-1.3.34-.94.28-2,1.7-2.74-.08-.57-1.46-1.08-3.17.82-4.22C81,151,82,150.57,83,150.21Z"/><path d="M137.71,96.7c-.16-.41-.17-.49-.21-.56l-1.8-3c1.35,0,2.89-.49,4,0A22,22,0,0,1,148,99.36c2.53,3.15,1.62,7.76-1.53,10.25a7.72,7.72,0,0,1-10.27-11.48C136.71,97.65,137.2,97.18,137.71,96.7Z"/><path d="M45.09,78.33a24.85,24.85,0,0,1,3.62-.69,8.51,8.51,0,0,1,2.4.58c-.35.66-.68,1.34-1.07,2-.24.39-.58.72-1.38,1.69A8.71,8.71,0,0,1,50.54,83,7.81,7.81,0,0,1,50.46,94a3.45,3.45,0,0,1-.28.26A7.74,7.74,0,0,1,40.07,82.58a8.67,8.67,0,0,1,1.11-.8c1.46-.92,2.8-2,4.2-3.07Z"/><path d="M118.16,143.89l3-2.14.69.58-2,3c0,.15,0,.36.12.45,4.64,4.22,2,7.74-2.19,9.49a15.6,15.6,0,0,1-3,.94c-4.36,1-9.2-3-8.9-7.45a10.26,10.26,0,0,1,5.51-8.45c2-1.16,4.25-.44,5.64,1.58C117.42,142.49,117.71,143.13,118.16,143.89Z"/><path d="M164,63.82l-2.31-2.14.35-.79c.89.31,2.16.36,2.6,1a5.55,5.55,0,0,0,4.71,2.3A3,3,0,0,1,172.53,67c0,.12,0,.25,0,.37a51,51,0,0,1-.11,9,5.29,5.29,0,0,1-2.7,3.77c-2.15.78-5.1,1.93-6.63-1a60.05,60.05,0,0,1-3.8-9.63c-.6-1.84.13-3.39,2.28-4A10.27,10.27,0,0,0,164,63.82Z"/><path d="M80.48,99.66a7.23,7.23,0,0,1-6.43-4.6,4.59,4.59,0,0,1,0-3.6c1.66-2.87,4-5.19,7.49-5.87a4.21,4.21,0,0,0,1.17-.31,5,5,0,0,1,6.68,1.09,7,7,0,0,1,.8,8C88.65,97,84.08,99.66,80.48,99.66Z"/><path d="M115.29,128.3q2.31,3.76,4.64,7.53l.52-.28-.64-1.72.31-.24,9.12,9.86-.18.54a17.71,17.71,0,0,1-3.71-.94c-7.48-3.72-11.87-9.89-13.85-17.9-.34-1.41-.08-2.07,1.65-1.82,8.37,1.24,14.25,6,18.5,13,.75,1.23.62,3,.9,4.51l-.85.32-8.08-10.33-1.31,3-6.6-5.92Z"/><path d="M119,108.28a91.39,91.39,0,0,1,9,2c.94.31,1.35,2,2.25,2.71,1.72,1.39.49,2.06-.43,3-.33.33-.3,1-.52,1.47-.4.86-.84,1.7-1.31,2.51-.15.26-.52.38-.7.63-.56.78-1.15,2.3-1.59,2.26a9.54,9.54,0,0,1-4.44-1.46,35.63,35.63,0,0,1-5.36-5.06c-1.48-1.65-2.75-3.86-1.3-5.83C115.59,109.27,117.71,108.89,119,108.28Z"/><path d="M143.9,47.37c2.9,0,5.17,2.4,5.2,5.68,0,4-2.75,5.89-5.89,7.35a6.87,6.87,0,0,1-8.34-1.4c-2.56-2.66-2.28-5.8.7-7.94C138.71,48.78,141.84,47.41,143.9,47.37Z"/><path d="M91.45,55.86c-2-.28-4.32-.5-6.56-.92-2.86-.53-5.69-1.21-8.52-1.87-2.5-.57-4.71-1.64-5.58-4.28-.78-2.38.13-4.37,1.82-6a4.9,4.9,0,0,1,6.1-.92,14.35,14.35,0,0,1,3,2.6c1.89,2,3.72,4.06,5.5,6.16C88.71,52.3,90.09,54.12,91.45,55.86Z"/><path d="M32.88,101l-4-7.53c-.66-1.24-1.31-2.5-2-3.73a40.61,40.61,0,0,1-2.22-3.64c-1-2.29-.9-4.61,1.07-6.35a6.23,6.23,0,0,1,6.69-1.21,5.14,5.14,0,0,1,3.24,5.57c-.08,1.25-.46,2.48-.63,3.74-.25,1.86-.44,3.74-.64,5.61a13.09,13.09,0,0,1-.09,1.66C33.85,97,33.37,99,32.88,101Z"/><path d="M165.21,100.82c0,4-1.92,6-5.59,6.55-2.19.31-4.39.62-6.57,1-1.29.24-1.57-.3-1.51-1.4.14-2.3.26-4.6.39-6.9.19-3.45,2.37-5.64,5.82-5.69a16,16,0,0,1,4.26.46,3.4,3.4,0,0,1,2.11,1.65A25,25,0,0,1,165.21,100.82Z"/><path d="M79.87,67.91a26.31,26.31,0,0,1,2.66,2.4c3.73,4.32,3,8.31-2,11.15-1.42.82-2.68,1.94-4.13,2.69a2,2,0,0,1-1.86-.56c-1-1.86-1.77-3.86-2.67-5.79a6.07,6.07,0,0,1,2.5-8.2,6.64,6.64,0,0,1,1.34-.52C76.88,68.7,78.11,68.39,79.87,67.91Z"/><path d="M75.61,151.59c-2-1.89-4.11-3.37-5.59-5.31a4.91,4.91,0,0,1,.3-6.24c1.62-2,3.29-4.06,5.07-6,.25-.26,1.49-.07,1.83.31,1.44,1.58,2.68,3.33,4,5,2.33,2.79,2.3,6.08-.39,8.55A50.13,50.13,0,0,1,75.61,151.59Z"/><path d="M142.23,38.09c-1.8,1.71-3.28,3.16-4.8,4.56-2.32,2.14-4.64,4.27-7,6.37-3.59,3.18-7.77,2.58-9.43-1.32-1.52-3.59.06-6.71,3.92-7.27,3.68-.54,7.4-.7,11.09-1.15C138,39,139.9,38.59,142.23,38.09Z"/><path d="M48.08,74.82a22.81,22.81,0,0,1,2.48-2.23c3.09-2,6.16-4,9.4-5.67,1.38-.73,3.18-.64,4.71-1.16A8.83,8.83,0,0,0,68,63.93c2.13-2.07,5-2.92,7.45-1.74a1.74,1.74,0,0,1,.7,1.55A5.32,5.32,0,0,1,74.89,66a11.68,11.68,0,0,1-2.79,2.2,5.56,5.56,0,0,1-2.79.78,3.16,3.16,0,0,0-3.24,1.4,4.51,4.51,0,0,1-2.5,1.68c-4.32,1.07-8.68,2-13,2.92A10.43,10.43,0,0,1,48.08,74.82Z"/><path d="M123.94,66.71a24.22,24.22,0,0,1,2.56-1c3.48-.88,7-1.79,10.48-2.47,1.25-.25,2.62.25,3.94.22a9.07,9.07,0,0,0,3.93-.57c1.77-.94,3.28-1.53,5-.1.29.24.77.23,1.06.46.64.49,1.2,1,1.8,1.59A13.69,13.69,0,0,1,150.5,67a7.92,7.92,0,0,1-3,1.16,20.84,20.84,0,0,1-3.15-.21,12.38,12.38,0,0,0-2.78.22c-1.37.32-2.72,1.2-4,1.13-4-.21-7.93-.74-11.89-1.2a7.26,7.26,0,0,1-1.65-.65Z"/><path d="M100,94.35a6.93,6.93,0,0,1-5.67-9.67c.76-1.66,2.12-2,3.76-1.78s3.42.4,5.13.5c2.58.14,3.76,1.36,3.68,3.93C106.79,91.65,103.93,94.59,100,94.35Z"/><path d="M158.53,48.33c4.23,0,7.69,2.68,7.63,6s-3.38,6-7.68,6c-3.51,0-5.82-2.44-5.84-6.18A5.6,5.6,0,0,1,158,48.33Zm-2.75,7.26,1.14.07.19-3.07L156,52.51Z"/><path d="M77.15,101c4.52,0,7.19,2.2,7.2,5.86,0,3.12-2.85,6.42-5.59,6.46-3.42,0-7.57-3.78-7.64-7S73.52,101,77.15,101Zm4.1,5.64L80,106.13l-1,3.06,1.09.39Z"/><path d="M130.62,54.19a19.13,19.13,0,0,1-2.38,3.22c-3.35,3-6.79,6-10.26,8.9a7.46,7.46,0,0,1-2.3.83,10.83,10.83,0,0,1,.26-2.34c2.27-6.18,2.21-7.94-1.73-11.27A8.89,8.89,0,0,1,112,51a6.94,6.94,0,0,1-.22-2.57c.88.07,2-.17,2.59.28a29.26,29.26,0,0,1,4.1,4c3.41,4,6.19,4.33,10.44,1.24a5.53,5.53,0,0,1,1-.44Z"/><path d="M90.09,69.19A43.33,43.33,0,0,1,84.71,68c-2.75-1-3.43-3.58-1.23-5.38a34.78,34.78,0,0,1,7-4.08c1.33-.63,3.75,1.06,4,2.54a25.92,25.92,0,0,1,.68,4c.12,2.51-.85,3.54-3.38,3.85a11.64,11.64,0,0,1-1.67,0Z"/><path d="M91.71,126.44a33,33,0,0,0,3.7,4.7c2.23,2,.43,3.53-.69,4.23a28.72,28.72,0,0,1-7.8,3.36A2.71,2.71,0,0,1,83.71,135,34.44,34.44,0,0,1,88,127.64C88.57,126.85,90.24,126.87,91.71,126.44Z"/><path d="M46.43,68.42c.71-1.08,1.28-1.83,1.73-2.63,1.74-2.75,2-5.49-.08-8.22a14.5,14.5,0,0,1-1.81-2.81,3.94,3.94,0,0,1,.1-1.94c.64.13,1.52,0,1.86.43a30.92,30.92,0,0,1,2.94,4c2.34,3.75,4,4.32,8.13,2.63.28-.11.59-.16.9-.25C60.34,61.59,49.43,68.77,46.43,68.42Z"/><path d="M65.61,141.29c4.64-7,5.16-13.82-1.07-19.95A11.13,11.13,0,0,0,55.35,118c-3.2.42-6.27,1.82-9.57,2.84a4.63,4.63,0,0,1,.76-1.33c5.25-4.66,14.26-3.83,19.83,1.47s5.41,14.83,1.21,19.63a6.65,6.65,0,0,1-1.25.93Z"/><path d="M114.4,75.59c-2,1.12-3.61,1.91-3.21,4.43a2.17,2.17,0,0,1-1.71,2.55,2.14,2.14,0,0,1-.67,0,4,4,0,0,1-2.72-2,2.16,2.16,0,0,1,1-2.88,2.47,2.47,0,0,1,.75-.21c3.92-.21,5.87-2.73,7.6-5.69.11-.19.35-.29,1-.79a16.91,16.91,0,0,1-.27,2.24c-.72,2.93-1.1,5.71,1,8.42.47.61,0,2.45-.65,3.25-.9,1.12-2.32.93-3.31-.24s-1.42-2.63-.11-3.61C115,79.59,114.71,77.83,114.4,75.59Z"/><path d="M146.14,40.43c3.88-.06,7,2.38,7.45,5.3a2.28,2.28,0,0,1-.52,1.86,2,2,0,0,1-1.81-.39,8.74,8.74,0,0,0-7.13-2.61,5.67,5.67,0,0,1-2-.76c.36-.65.56-1.54,1.11-1.91A18.91,18.91,0,0,1,146.14,40.43Z"/><path d="M93.36,77.66c0,2.5-1.92,5.28-4.13,5.85a1.81,1.81,0,0,1-1.52-.15,1.59,1.59,0,0,1-.1-1.47c1.57-2.82,2-5.63.47-8.62a1.59,1.59,0,0,1,.23-1.46,1.94,1.94,0,0,1,1.53,0C91.59,72.43,93.36,75.47,93.36,77.66Z"/><path d="M163.65,86c.79,1.93,1.58,3.24,3.67,3.12,1.58-.09,2.82.68,2.63,2.31a3.18,3.18,0,0,1-1.9,2.24c-1.58.38-2.13-1-2.73-2.31a25.78,25.78,0,0,0-3.11-4.78,9,9,0,0,0-1.94-1.47l.32-.61c.7.19,1.39.41,2.1.56,2.07.44,4.08.59,5.88-.92,1.19-1,2.64-1.23,3.46.24a3.21,3.21,0,0,1-.31,2.93c-1.07,1.29-2.41.9-3.4-.41C167.05,85.2,165.48,85.74,163.65,86Z"/><path d="M152,73.52c.7-1.37,1.34-2.77,2.14-4.08a1.12,1.12,0,0,1,2.07.8,9.15,9.15,0,0,0,3.12,7.87c.36.33.6,1.42.39,1.6a2.71,2.71,0,0,1-1.87.63C155.09,80.08,152.41,76.75,152,73.52Z"/><path d="M59.52,101.59l-2.37-.19c.54,2.48.14,4.94,3.33,5.81A2.25,2.25,0,0,1,62,110a2.29,2.29,0,0,1-.41.77,3.9,3.9,0,0,1-3.08,1.43,2.29,2.29,0,0,1-2.23-2.33,2.37,2.37,0,0,1,.16-.79c1.93-4,.1-7-2-10.13-.21-.3-.3-.69,0-1.49l5,4.14Z"/><path d="M110.9,132.06c-3.68-1.09-7.08-.83-9.87,2.2-.74-2.64,1.19-4.95,4.21-5.65a4.41,4.41,0,0,1,5.53,2.92A3.16,3.16,0,0,1,110.9,132.06Z"/><path d="M59.49,101.59c1.73,0,3.45.09,5.18.06s3,.63,3.28,2.42a2.62,2.62,0,0,1-2,3.15l-.25,0c-1.78.34-3.19-.57-3.27-2.3-.1-2.13-1.84-2.39-3-3.39Z"/><path d="M75.23,57.93c-1.22-.25-2-.34-2.7-.56-2.26-.71-4.32-.7-6.18,1.08-.44.43-1.35.38-2,.56a6.33,6.33,0,0,1,.55-2.1C67.52,53.25,72.54,53.51,75.23,57.93Z"/><path d="M128.17,95.73a5,5,0,0,1,2.36,6.14,5.92,5.92,0,0,1-5.44,4.24C128.08,103,129.1,99.67,128.17,95.73Z"/><path d="M34.47,74.53a10.51,10.51,0,0,0,7.62-6.35c.9,1.27.44,4.15-.65,5.42A5.6,5.6,0,0,1,34.47,74.53Z"/><path d="M89.1,103.59c-.7-1.92-.29-3.58,1.15-4.57,1.2-.82,2.83-1,4.63-1.64Z"/><path class="cls-1" d="M60.27,81.86,61.63,78l1,.31-1.13,4.1Z"/><path class="cls-1" d="M48.13,102.59l4.81,5.07-.45.43L47.71,103Z"/><path class="cls-1" d="M155.78,55.59,156,52.5l1.12.08-.19,3.08Z"/><path class="cls-1" d="M81.25,106.59l-1.18,3L79,109.2l1-3.06Z"/></g></g></g></g></svg>