<svg xmlns="http://www.w3.org/2000/svg" viewBox="0 0 192.31 188.46"><defs><style>.cls-1{fill:#fdfdfd;}.cls-2{fill:#0a0a0a;}.cls-3,.cls-9{fill:none;}.cls-4{fill:#fff;}.cls-4,.cls-7,.cls-9{stroke:#000;stroke-miterlimit:10;}.cls-5{fill:#ececec;}.cls-6{fill:#d9d9d9;}.cls-7{fill:#fefefe;stroke-width:3px;}.cls-8{fill:#a7a7a7;}</style></defs><g id="Layer_2" data-name="Layer 2"><g id="Layer_1-2" data-name="Layer 1"><path class="cls-1" d="M93.27,0c-3.43.4-9.93.68-16.22,2C51.78,7.15,31.41,20.28,16.68,41.42,2.3,62.05-2.88,85.1,1.52,110c5.3,29.88,21.93,51.9,48.16,66.58C69,187.33,89.8,190.65,111.57,187.08c28.29-4.64,50.39-19.11,66-43.13,13.41-20.65,17.61-43.41,12.87-67.44-5.26-26.7-20-47.18-43-61.76C131.81,4.85,114.66.33,93.27,0Z"/><path class="cls-2" d="M93.27,0c21.39.33,38.54,4.85,54.15,14.75,23,14.58,37.75,35.06,43,61.76,4.74,24,.54,46.79-12.87,67.44-15.6,24-37.7,38.49-66,43.13-21.77,3.57-42.62.25-61.89-10.54C23.45,161.86,6.82,139.84,1.52,110c-4.4-24.86.78-47.91,15.16-68.54C31.41,20.28,51.78,7.15,77.05,2,83.34.68,89.84.4,93.27,0ZM16.37,140.74l-.13,0,0,.13.64.92,2.48,3.91a.28.28,0,0,0,.17.3l2.16,2.87.38.5,5.84,6.25,2.72,2.86a20.91,20.91,0,0,0,2.06,2.5C46.22,173.17,61.91,181.11,80,184.12a83.09,83.09,0,0,0,22.6,1l1,0,18.74-3.35.47-.14L135.21,177l.46-.16,10-5.54a71,71,0,0,0,16.47-12.89c1.35-1.32,2.8-2.57,4-4a83.77,83.77,0,0,0,13.2-19.35,81.16,81.16,0,0,0,8.38-24.54,85.8,85.8,0,0,0,0-33A88.4,88.4,0,0,0,168,36.22l-7.89-8.14,0,0-3.3-3-.12.08.13-.06L152,21.37l0,0L147.16,18l-5.69-3.42-1-.59-.89-.44L138.51,13l-1-.49c-.77-.38-1.53-.8-2.31-1.15a89.32,89.32,0,0,0-26.9-7.55l-8.64-.62h-7.6a88.9,88.9,0,0,0-34.6,8c-2.28,1-4.4,2.37-6.59,3.57l-2,1.32-8.7,5.35-.41.35-3,2.17C32.22,28.5,27.52,33,23,37.68c-1.27,1.31-2,3.16-2.93,4.77l.06-.05-2,3L15.91,48.7a19.1,19.1,0,0,0-2,2.56A87.28,87.28,0,0,0,3,94.78c.06,3.83.53,7.65.81,11.47L4,107.64a5.32,5.32,0,0,0,0,1.19,89.16,89.16,0,0,0,6.47,21.26C12,133.51,14,136.71,15.87,140v0Z"/><path class="cls-3" d="M137.53,12.51l1,.49.47,1.09.6-.55.89.44.31,1,.69-.41L147.16,18c.84,2.23,2.68,3,4.83,3.41l0,0a5.74,5.74,0,0,0,4.86,3.79l-.13.06.12-.08c.42,1.75,1.08,3.23,3.3,3l0,0a11.16,11.16,0,0,0,1.65,3c2,1.84,4.15,3.46,6.24,5.18a88.4,88.4,0,0,1,19.78,41.35,85.8,85.8,0,0,1,0,33c-2.5-1.51-4.91-3.23-7.53-4.48A187.53,187.53,0,0,0,137,91.43c-8-1.65-16.24-2.61-24.36-3.88l-8.38-9.65C105,77.41,106,76.69,107,76c4.26-2.77,8.49-5.57,12.79-8.26,3.18-2,3.17-4.12,1-7.27a56.32,56.32,0,0,0-16.47-15.71c-5.58-3.46-5.1-3.34-.63-8.19.6-.66,2.07-.68,3.15-.7.84,0,1.67.57,2.53.62a13.11,13.11,0,0,0,2.61-.36,16,16,0,0,0-1.1-3.19c-.3-.5-1.3-.54-1.88-.93-1.89-1.25-4.35-2.19-5.46-4-2.21-3.53-5.31-4.52-9-4.74-.38-2-.79-4-1.15-6.05-.75-4.35-1.48-8.72-2.22-13.08l1-1h7.6l8.17,1.5c3.17.55,6.43.79,9.48,1.73,6.33,1.94,12.53,4.27,18.8,6.39C136.52,12.94,137.06,12.62,137.53,12.51Z"/><path class="cls-3" d="M91.09,4.21c.74,4.36,1.47,8.73,2.22,13.08.36,2,.77,4,1.15,6.05-1.55.53-3.71.59-4.54,1.67-2.84,3.7-3.68,8.17-3.31,12.77.19,2.41,2,3.35,4.25,3.84,3,.65,3.39,1.68,1.45,4a18.66,18.66,0,0,1-4.66,4,6.67,6.67,0,0,0-3.27,5.69,14.06,14.06,0,0,0,1.88,8.23c.93,1.67.23,2.62-1.66,2.34a3.05,3.05,0,0,1-2-1.06c-2-3.28-3.93-6.66-5.86-10-.47-.81-.73-1.93-1.43-2.39a4,4,0,0,0-3-.6c-.65.23-1.24,1.59-1.25,2.45a6.78,6.78,0,0,0,1,3.35c3.77,6.19,7.7,12.26,13.7,16.63A3.9,3.9,0,0,1,87.43,79c-.62,2.25-.46,4.71-.65,7.08a22.53,22.53,0,0,1-2.56.46c-7.36.5-14.75.68-22.06,1.52-7.54.88-15,2.16-22.48,3.67a199,199,0,0,0-34.3,10.68c-.37-.27-1.06-.53-1.06-.79,0-6.38-.41-12.81.27-19.12a79.3,79.3,0,0,1,8.23-26.77c1.14-2.29,2.06-4.69,3.09-7l2.23-3.35,2-3-.06.05a7.56,7.56,0,0,0,1.45-1C25.3,37.31,29,33.12,32.8,29c1.33-1.46,2.8-2.78,4.2-4.17,1.39-.6,2.92-1.07,2.81-3.05l.41-.35a15,15,0,0,0,8.7-5.35l2-1.32a10.38,10.38,0,0,0,2.32-.29C59,12.28,64.55,9.54,70.45,8,77.19,6.18,84.2,5.42,91.09,4.21Z"/><path class="cls-4" d="M3.13,102.42A209,209,0,0,1,38.37,91.74C46,90.23,53.73,89,61.48,88.07c7.51-.84,15.11-1,22.67-1.52a23.73,23.73,0,0,0,2.63-.46,17.17,17.17,0,0,1-3.11,9.24c-4.09,5.78-8.41,11.5-10.42,18.45a54.86,54.86,0,0,1-2.68,6.3c-2.09.31-4.2.56-6.28.94-9.28,1.74-18.65,3.14-27.79,5.39-8.3,2-16.34,5-24.5,7.58-.74-1.72-1.41-3.48-2.23-5.16s-1.88-3.08-2.51-4.72a48,48,0,0,1-1.91-6.54c-.43-1.83-.35-3.8-1-5.55a23.19,23.19,0,0,0-2.66-4.38l-.2-1.39c1.42.08,1.74-.67,1.59-1.88A11.56,11.56,0,0,1,3.13,102.42Z"/><path class="cls-4" d="M112.64,87.55c8.12,1.27,16.32,2.23,24.36,3.88a187.53,187.53,0,0,1,43.21,14.62c2.62,1.25,5,3,7.53,4.48a81.16,81.16,0,0,1-8.38,24.54c-1.49-.53-3-1.09-4.47-1.58q-9.57-3.13-19.16-6.22v0l-.37-.45a6.89,6.89,0,0,1-.6-1.22c-1.26-4.37-2.12-4.71-5.81-1.9-1.46,1.11-2.6.89-4.06.07-3-1.68-6-3.34-9.07-4.74-4.68-2.12-9.5-3.59-14.76-2.35-2.59.61-4.3-.61-5.17-3.06a12.24,12.24,0,0,1-.85-2.72C114.21,103.13,113.43,95.34,112.64,87.55Z"/><path class="cls-5" d="M20.14,42.4l-2,3Z"/><path class="cls-6" d="M139.58,13.54l-.6.55L138.51,13Z"/><path class="cls-6" d="M141.47,14.57l-.69.41-.31-1Z"/><path class="cls-7" d="M48.36,154c-.4-2.93,1.83-3.89,3.85-4.31,5.82-1.2,9.19-5,11.76-9.94a81,81,0,0,0,7-19.68,56.09,56.09,0,0,0,2.6-6.3c2-7,6.16-12.67,10.14-18.45a17.49,17.49,0,0,0,3-9.24c.19-2.37,0-4.83.65-7.08a3.9,3.9,0,0,0-1.69-4.71c-6-4.37-9.93-10.44-13.7-16.63a6.78,6.78,0,0,1-1-3.35c0-.86.6-2.22,1.25-2.45a4,4,0,0,1,3,.6c.7.46,1,1.58,1.43,2.39,1.93,3.34,3.83,6.72,5.86,10a3.05,3.05,0,0,0,2,1.06c1.89.28,2.59-.67,1.66-2.34a14.06,14.06,0,0,1-1.88-8.23,6.67,6.67,0,0,1,3.27-5.69,18.66,18.66,0,0,0,4.66-4c1.94-2.34,1.5-3.37-1.45-4-2.22-.49-4.06-1.43-4.25-3.84-.37-4.6.47-9.07,3.31-12.77.83-1.08,3-1.14,4.54-1.67,3.72.22,6.82,1.21,9,4.74,1.11,1.77,3.57,2.71,5.46,4,.58.39,1.58.43,1.88.93a16,16,0,0,1,1.1,3.19,13.11,13.11,0,0,1-2.61.36c-.86-.05-1.69-.64-2.53-.62-1.08,0-2.55,0-3.15.7-4.47,4.85-5,4.73.63,8.19A56.32,56.32,0,0,1,120.74,60.5c2.21,3.15,2.22,5.28-1,7.27-4.3,2.69-8.53,5.49-12.79,8.26-1,.66-2,1.38-2.73,1.87l8.38,9.65c.79,7.79,1.57,15.58,2.41,23.37a12.24,12.24,0,0,0,.85,2.72c.87,2.45,2.58,3.67,5.17,3.06,5.26-1.24,10.08.23,14.76,2.35,3.11,1.4,6.1,3.06,9.07,4.74,1.46.82,2.6,1,4.06-.07,3.69-2.81,4.55-2.47,5.81,1.9a6.89,6.89,0,0,0,.6,1.22l.37.45v0c.82,3,1.64,5.92,2.48,8.88.24.83.62,1.64.81,2.49s1.09,2.16-.62,2.45c-1.25.21-2.47.45-3.51-1.1-4.5-6.74-9.74-12.46-18.74-12.71-5.72-.16-11.43-.86-17.14-.86s-9.66-2-11.6-7.51a13.2,13.2,0,0,0-1-2.85c-2.22-3.48-4.66-6.82-6.81-10.34s-3.29-3.47-5.91-.4c-3.3,3.87-6.86,7.51-10.31,11.25L81,119.1a8.25,8.25,0,0,0-1.39,2c-.48,1.5-.51,3.15-1.09,4.59a113.21,113.21,0,0,1-5.24,11.86c-1.8,3.3-4.38,6.17-6.34,9.4-.59,1-.23,2.51-.31,3.79l0,.92a2.53,2.53,0,0,1-2.63,2.78c-5,.13-10.09,0-15.14-.05C48.73,154.42,48.55,154.15,48.36,154Zm59.4-94.17c-1.39,2.95-2.77,5.58-3.84,8.34-.67,1.7.34,2.67,2.06,2a18.9,18.9,0,0,0,8.49-6.57Z"/><path class="cls-8" d="M155.74,127.29l-.37-.45Z"/><path class="cls-9" d="M102.15,118.83l-17.55.28c-1.19,0-2.38,0-3.57,0l2.33-2.53c3.45-3.74,7-7.38,10.31-11.25,2.62-3.07,3.81-3,5.91.4s4.59,6.86,6.81,10.34a13.2,13.2,0,0,1,1,2.85Z"/><path class="cls-6" d="M22.15,148.34c0-.13,0-.25,0-.38a1.7,1.7,0,0,1,.18.26Z"/><path class="cls-3" d="M107.76,59.84l6.71,3.78A18.9,18.9,0,0,1,106,70.19c-1.72.66-2.73-.31-2.06-2C105,65.42,106.37,62.79,107.76,59.84Z"/></g></g></svg>