<svg xmlns="http://www.w3.org/2000/svg" viewBox="0 0 192.49 190.65"><defs><style>.cls-1{fill:#fff;}</style></defs><g id="Layer_2" data-name="Layer 2"><g id="Layer_1-2" data-name="Layer 1"><g id="Layer_2-2" data-name="Layer 2"><g id="Layer_1-2-2" data-name="Layer 1-2"><path class="cls-1" d="M192.48,95.32C192.75,43.17,149.75.35,97,0,43.36-.36.33,42.36,0,94.87c-.36,53.5,43.77,95.7,96,95.78,53.29.08,96.87-43.34,96.48-95.33Z"/><path d="M192.48,95.32c.39,52-43.19,95.41-96.49,95.33C43.75,190.57-.38,148.37,0,94.87.33,42.36,43.36-.36,97,0,149.75.35,192.75,43.17,192.48,95.32ZM7.14,118.26h0c.18,1.74,0,3.58.61,5.2,8.83,25.6,25.5,44.29,50.13,55.52,23.26,10.6,47.07,10.9,71.08,2.45a19,19,0,0,0,1.93-.92l-.15-.62c-5.6-.59-11.22-1.12-16.82-1.78-7.27-.85-14.58-1.53-21.8-2.76a174.59,174.59,0,0,1-36.95-10.53c-10-4.08-19.84-8.4-28.62-14.78C22,146.76,17.79,143.1,16,137.69c-2.23-6.64-2.65-10.42,2.63-14.93a10.92,10.92,0,0,0,2-2.34c4.27-6.43,8.49-12.91,12.76-19.35A228.68,228.68,0,0,1,57.5,70.18C65.05,62.18,73.14,54.7,81,47c2.34-2.28,4.86-4.37,7.29-6.54,4.87-4.34,9.72-8.7,14.62-13a11.31,11.31,0,0,1,3.35-2.2,45.36,45.36,0,0,1,25.23-1.47c9.24,2,18.24,5.16,27.33,7.82,2.95.87,4.11,3.15,4.36,6,.52,6,.94,12.06,1.4,18.09.21,2.77-.7,4.11-3.3,5-1.37.5-2.71,1.11-4.33,1.78a16.69,16.69,0,0,1,4,10.18c.14,3.15-1.64,5.29-4.72,4.74a11.6,11.6,0,0,1-5.34-2.92c-1.44-1.3-2.32-3.22-3.38-4.91-1.71-2.74-3.45-5-7.34-4.87-2.85.06-5.73-1.11-8.58-1.8-4.38-1.07-8.34-2.56-8.24-8.22,0-.5-.87-1.3-1.48-1.47-2.51-.72-5.08-1.27-7.64-1.84a1.41,1.41,0,0,0-1.08.14c-3.48,3.26-7,6.4-9.37,10.73-3.79,7.08-7.94,14-11.67,21.09-5.28,10.1-10.31,20.32-15.45,30.49-.58,1.15-1.09,2.34-1.8,3.86,1-.16,1.59-.2,2.1-.33,9-2.33,18.2-3.39,27.45-1.6,5,1,9.88,2.45,14.83,3.63a33.06,33.06,0,0,0,15,.51,102.67,102.67,0,0,1,28.1-1.58c7,.47,13.91,1.64,20.82,2.75,1.79.29,2.38,0,2.82-1.7a89.53,89.53,0,0,0,3-26.52c-.05-1.38-.42-2.19-1.9-2.55-1.64-.41-2.89-1.38-2.8-3.35.24-5.23,0-5.54-5-5.54-4.54,0-6.13-2.37-4.48-6.7q2.64-6.92,5.31-13.84c1-2.52.67-3.95-1.65-5.24-2.59-1.43-3.3-3.56-3.46-6.32a9.93,9.93,0,0,0-1.52-4.87,92.91,92.91,0,0,0-27-26.36A91.72,91.72,0,0,0,85.05,4c-24.73,2.93-45,14.41-61,33.51A87.29,87.29,0,0,0,10.46,59.89c-.82,2-1,3.52,1.37,4.43a26.73,26.73,0,0,1,4.07,1.76c3.77,2.27,7.48,4.65,11.19,7,1.76,1.12,3.65,2.17,4,5.36-2.34-1.49-4.2-2.65-6-3.86-4.73-3.11-9.42-6.27-14.19-9.31-.56-.36-1.5-.13-2.27-.17a21.94,21.94,0,0,0,1,2.34c.17.29.69.37,1,.59Q18.91,73.52,27.18,79a13,13,0,0,1,1.57,1.67,6.72,6.72,0,0,1-1.58-.32C21.36,76.63,15.48,73,9.78,69.15c-1.91-1.3-2.58-.75-2.91,1.06-1.2,6.65-2.33,13.32-3.46,20C3.11,92,4,92.94,5.76,93c2.42,0,4.85.1,7.27.11,2.22,0,4.45-.11,6.66,0a8.67,8.67,0,0,1,2.51,1l-.2.78a22.46,22.46,0,0,1-2.72.34H5.88c-1.09,0-2.58-.15-2.32,1.51C3.65,97.29,5.05,98,5.87,98c4.38.12,8.78,0,13.16.08a21.66,21.66,0,0,1,3,.42,4.28,4.28,0,0,1-2.68,1.41c-3.17.14-6.34.08-9.51.14a31,31,0,0,0-5,.31,2.28,2.28,0,0,0-1.2,1.8c.18,2.77.54,5.55.94,8.3.18,1.16.31,2.61,1,3.29.59.54,2.07.11,3.14.11C5.41,116.7,5.41,116.7,7.14,118.26Zm170,23.06-.55-.86c-.92-.05-1.84-.18-2.76-.14-9.3.45-18.59,1.22-27.89,1.31-9,.09-18-.17-27-.87a347.49,347.49,0,0,1-45.62-6.51c-3.58-.76-7.22-1.27-10.77-2.15-6.85-1.69-13.67-3.58-20.55-5.32a5,5,0,0,0-2.86.09c-3.13,1.35-4.41,4.17-5.36,7.23-1.66,5.39-.48,8.14,5,9.47a180.56,180.56,0,0,0,19,3.57c9.94,1.29,19.93,2.2,29.91,3.16,5.38.51,10.8.66,16.19,1.17,8.4.8,16.81,1.53,25.16,2.73q14.4,2.07,28.67,5c3.28.67,5.74.77,7.53-2.41.38-.67,1.15-1.11,1.62-1.75,3.45-4.52,6.85-9.14,10.26-13.72ZM154.89,71.76l.93-.4a33.12,33.12,0,0,0-1.34-4.09c-1.55-3.24-1.61-7.39.8-8.54,3.95-1.88,4.44-4.67,3.72-8.31v-.24c-.16-3.81-.26-7.63-.5-11.44-.11-1.8-1.25-2.72-3-3.24-4.42-1.31-8.79-2.82-13.19-4.19-9.66-3-19.45-4.88-29.6-3a18,18,0,0,0-4.53,1.45c-1.77.87-2.61,2.24-1.47,4.3a45.33,45.33,0,0,1,2,4.58,5,5,0,0,0,3.86,3.12c1.55.39,3.61,1.36,4.14,2.62,1.24,2.94,3.28,4,6.15,4.46a6,6,0,0,1,5.44,5.77,3.36,3.36,0,0,0,2.93,3.27c3.58.77,7.12,1.79,10.73,2.29a12.36,12.36,0,0,1,9.3,6.35C152.41,68.33,153.69,70,154.89,71.76ZM152.26,169l-.33-.78c-2.41-.51-4.8-1.17-7.23-1.5-10.17-1.38-20.33-2.85-30.53-4-12-1.28-24.08-2.14-36.11-3.33-9.18-.91-18.33-2.06-27.49-3.1a8.34,8.34,0,0,0-1,0,4.45,4.45,0,0,0,2,1.79c2.9,1.3,5.8,2.63,8.77,3.78a188.21,188.21,0,0,0,32.46,8.84c4.77.93,9.6,1.56,14.42,2.09,9.32,1,18.74,1.26,27.9,3.59,1.49.38,3.44.79,4.63.16C144,174.26,148.08,171.52,152.26,169ZM71.4,113l-.8-.31c-1.37,2.19-2.84,4.33-4.1,6.59s-1,3.15,1.55,3.79c3.62.9,7.29,1.67,11,2.24,9.59,1.47,19.18,3,28.82,4.14a247.07,247.07,0,0,0,25.91,2c12.65.14,25.32-.6,38-.78,2.73,0,5.47.78,8.23,1.08a2.37,2.37,0,0,0,1.85-.73,16.88,16.88,0,0,0,1.14-2.57c1.06-1.93.28-2.79-1.65-3.1-4.87-.79-9.73-2.11-14.62-2.26-11.21-.35-22.47-.71-33.59,1.6a29.76,29.76,0,0,1-16-1.18,66.73,66.73,0,0,0-34.84-2.73,29.52,29.52,0,0,1-6.63.63c-3.21-.14-4.8-2.26-4.53-5.46ZM92.24,40.92a11.25,11.25,0,0,0-2.08,1.42c-2.53,2.76-5.19,5.44-7.43,8.42Q70.41,67.23,58.36,83.88c-5.65,7.81-11.08,15.77-16.6,23.68-5.79,8.28-12.08,16.26-16,25.72-.21.5-.68,1.16-.52,1.49a14.41,14.41,0,0,0,6.17,6.93,5.78,5.78,0,0,0,0-1.44c-1-3.87,0-7.44,1.77-10.84a7.37,7.37,0,0,1,6.45-4.27A3.55,3.55,0,0,0,42,123.37c1.6-3,2.73-6.32,4.5-9.23,5.82-9.51,12-18.84,17.78-28.35,8-13.11,17.75-24.9,27.82-36.43C94.59,46.52,94.77,44.52,92.24,40.92ZM105.29,53c-3.14-1.86-5.74-3.49-8.46-4.9-.44-.23-1.67.29-2.06.82-4,5.46-8.12,10.85-11.77,16.57-9.87,15.13-20,30.1-30.82,44.6-3,4-4.92,8.7-7.1,13.2a3.3,3.3,0,0,0,.91,3,4.06,4.06,0,0,0,3.44.46,5,5,0,0,0,2.21-2.92c1.9-6.27,6.1-11.19,9.67-16.41,4.77-7,9.88-13.71,15.25-20.22,7.44-9,15.27-17.71,22.87-26.6C101.52,58.18,103.37,55.52,105.29,53Zm-3.89-19c-1,.5-1.61.79-2.21,1.16-3.66,2.28-4.39,9.35.06,12.28,2,1.31,3,.81,4.47-.43s2.47-2.35,1.45-4.44-1.58-4.12-2.42-6.17A18.89,18.89,0,0,0,101.4,34.08Zm83,31.63h-.91c-1.12,3-2.32,5.87-3.28,8.86a2.4,2.4,0,0,0,1,2.07c2,.81,4.1,1.31,6.61,2.06ZM113.91,48.37a24.25,24.25,0,0,0-.83-3,2.08,2.08,0,0,0-1.12-1c-.16-.07-.57.6-.91.87a12.41,12.41,0,0,1-2.32,1.69c-1.13.55-2.43.75-3.54,1.32-1.34.67-1.58,1.56,0,2.34,2.59,1.28,5.08.28,7.52-.51C113.26,49.9,113.56,48.89,113.91,48.37Z"/><path class="cls-1" d="M7.14,118.26C5.41,116.7,5.41,116.7,8.83,114c-1.07,0-2.55.43-3.14-.11-.74-.68-.87-2.13-1.05-3.29-.4-2.75-.76-5.53-.94-8.3a2.28,2.28,0,0,1,1.2-1.8,31,31,0,0,1,5-.31c3.17-.06,6.34,0,9.51-.14a4.28,4.28,0,0,0,2.68-1.41,21.66,21.66,0,0,0-3-.42c-4.38,0-8.78,0-13.16-.08-.82,0-2.22-.72-2.31-1.28-.26-1.66,1.23-1.5,2.32-1.51h13.4A21.54,21.54,0,0,0,22,94.93l.2-.78a8.67,8.67,0,0,0-2.51-1c-2.21-.14-4.44,0-6.66,0-2.42,0-4.85-.06-7.27-.11C4,93,3.11,92,3.41,90.26c1.13-6.68,2.26-13.35,3.46-20,.33-1.81,1-2.36,2.91-1.06,5.7,3.88,11.58,7.48,17.39,11.17a6.72,6.72,0,0,0,1.58.32A13,13,0,0,0,27.18,79q-8.25-5.49-16.58-11c-.33-.22-.85-.3-1-.59a21.94,21.94,0,0,1-1-2.34c.77,0,1.71-.19,2.27.17,4.77,3,9.46,6.2,14.19,9.31,1.83,1.21,3.69,2.37,6,3.86-.34-3.19-2.23-4.24-4-5.36-3.71-2.37-7.42-4.75-11.19-7a26.73,26.73,0,0,0-4.07-1.76c-2.37-.91-2.19-2.45-1.37-4.43A87.33,87.33,0,0,1,24.08,37.52C40,18.42,60.32,6.94,85.05,4a91.75,91.75,0,0,1,61.5,14.09,92.91,92.91,0,0,1,27,26.36,9.93,9.93,0,0,1,1.52,4.87c.16,2.76.87,4.89,3.46,6.32,2.32,1.29,2.62,2.72,1.65,5.24l-5.31,13.84c-1.65,4.33-.06,6.69,4.48,6.7,5,0,5.24.31,5,5.54-.09,2,1.16,2.94,2.8,3.35,1.48.36,1.85,1.17,1.9,2.55a89.53,89.53,0,0,1-3,26.52c-.44,1.65-1,2-2.82,1.7-6.91-1.11-13.85-2.28-20.82-2.75a102.67,102.67,0,0,0-28.1,1.58,33.06,33.06,0,0,1-15-.51c-5-1.18-9.84-2.67-14.83-3.63-9.25-1.79-18.4-.73-27.45,1.6-.51.13-1,.17-2.1.33.71-1.52,1.22-2.71,1.8-3.86,5.14-10.17,10.17-20.39,15.45-30.49,3.73-7.11,7.88-14,11.67-21.09,2.32-4.33,5.89-7.47,9.37-10.73a1.41,1.41,0,0,1,1.08-.14c2.56.57,5.13,1.12,7.64,1.84.61.17,1.49,1,1.48,1.47-.1,5.66,3.86,7.15,8.24,8.22,2.85.69,5.73,1.86,8.58,1.8,3.89-.1,5.63,2.13,7.34,4.87,1.06,1.69,1.94,3.61,3.38,4.91a11.59,11.59,0,0,0,5.38,2.94c3.08.55,4.86-1.59,4.72-4.74A16.6,16.6,0,0,0,157,62.52c1.62-.67,3-1.28,4.33-1.78,2.6-.94,3.51-2.28,3.3-5-.46-6-.88-12.07-1.4-18.09-.25-2.81-1.41-5.09-4.36-6-9.09-2.66-18.09-5.79-27.33-7.82a45.36,45.36,0,0,0-25.23,1.47A11.25,11.25,0,0,0,103,27.52c-4.9,4.3-9.75,8.66-14.62,13-2.43,2.17-5,4.26-7.29,6.54-7.9,7.66-16,15.15-23.54,23.14a228.42,228.42,0,0,0-24.09,30.9C29.19,107.54,25,114,20.7,120.45a10.92,10.92,0,0,1-2,2.34c-5.28,4.51-4.86,8.29-2.63,14.93,1.82,5.41,6.07,9.07,10.58,12.35,8.78,6.38,18.65,10.7,28.62,14.78a174.59,174.59,0,0,0,36.95,10.53c7.22,1.23,14.53,1.91,21.8,2.76,5.6.66,11.22,1.19,16.82,1.78l.15.62a19,19,0,0,1-1.93.92c-24,8.45-47.82,8.15-71.08-2.45-24.72-11.25-41.39-29.94-50.22-55.49-.56-1.62-.43-3.46-.61-5.2,3.66-1,7.4-1.81,10.63-3.84l-.52-1.19ZM39.78,61.13l.78-.79C36.11,55.73,32,50.82,27.23,46.52l-.73.72Zm-2.31,2.21.81-.81L23.62,48.28l-.53.52C28.4,53.14,32.07,59.09,37.47,63.34Zm15-8c1.6-3.07,1.54-7.45,0-9.15a9.52,9.52,0,0,0,0,9.13Zm4.31-1.9c1.91-1.87,1.79-4.39,0-6.66ZM10.28,113l.55.61c1.28-.86,3.49-.7,3.79-2.66l-.76-.87Z"/><path class="cls-1" d="M177.12,141.32c-3.41,4.58-6.81,9.16-10.25,13.72-.47.64-1.24,1.08-1.62,1.75-1.79,3.18-4.25,3.08-7.53,2.41q-14.25-2.92-28.67-5c-8.35-1.2-16.76-1.93-25.16-2.73-5.39-.51-10.81-.66-16.19-1.17-10-1-20-1.87-29.91-3.16a180.56,180.56,0,0,1-19-3.57c-5.49-1.33-6.67-4.08-5-9.47,1-3.06,2.23-5.88,5.36-7.23a5,5,0,0,1,2.86-.09c6.86,1.73,13.68,3.63,20.54,5.32,3.55.88,7.19,1.39,10.77,2.15A346.71,346.71,0,0,0,119,140.76q13.5,1.05,27,.87c9.3-.09,18.59-.86,27.89-1.31.92,0,1.84.09,2.76.14Z"/><path class="cls-1" d="M154.89,71.76c-1.2-1.74-2.48-3.43-3.58-5.23a12.36,12.36,0,0,0-9.3-6.35c-3.61-.5-7.15-1.52-10.73-2.29a3.36,3.36,0,0,1-2.93-3.27,6,6,0,0,0-5.44-5.77c-2.87-.48-4.91-1.52-6.15-4.46-.53-1.26-2.59-2.23-4.14-2.62a5,5,0,0,1-3.86-3.12,45.33,45.33,0,0,0-2-4.58c-1.14-2.06-.3-3.43,1.47-4.3a18,18,0,0,1,4.53-1.45c10.15-1.89,19.94,0,29.6,3,4.4,1.37,8.77,2.88,13.19,4.19,1.75.52,2.89,1.44,3,3.24.24,3.81.34,7.63.5,11.44v.24c.72,3.64.23,6.43-3.72,8.31-2.41,1.15-2.35,5.3-.8,8.54a33.12,33.12,0,0,1,1.34,4.09Z"/><path class="cls-1" d="M152.26,169c-4.18,2.56-8.28,5.3-12.6,7.59-1.19.63-3.14.22-4.63-.16-9.16-2.33-18.58-2.56-27.9-3.59-4.82-.53-9.65-1.16-14.42-2.09a188.21,188.21,0,0,1-32.46-8.84c-3-1.15-5.87-2.48-8.77-3.78a4.45,4.45,0,0,1-2-1.79,8.34,8.34,0,0,1,1,0c9.16,1,18.31,2.19,27.49,3.1,12,1.19,24.09,2,36.11,3.33,10.2,1.1,20.36,2.57,30.53,4,2.43.33,4.82,1,7.23,1.5Z"/><path class="cls-1" d="M71.4,113l-.24,3c-.27,3.2,1.32,5.32,4.53,5.46a29.52,29.52,0,0,0,6.63-.63,66.73,66.73,0,0,1,34.84,2.73,29.76,29.76,0,0,0,16,1.18c11.12-2.31,22.38-2,33.59-1.6,4.89.15,9.75,1.47,14.62,2.26,1.93.31,2.71,1.17,1.65,3.1a17.76,17.76,0,0,1-1.2,2.58,2.37,2.37,0,0,1-1.85.73c-2.76-.3-5.5-1.12-8.23-1.08-12.66.18-25.33.92-38,.78a246.5,246.5,0,0,1-25.88-2c-9.64-1.13-19.23-2.67-28.82-4.14-3.7-.57-7.37-1.34-11-2.24-2.55-.64-2.85-1.48-1.55-3.79s2.73-4.4,4.1-6.59Z"/><path class="cls-1" d="M92.24,40.92c2.53,3.59,2.35,5.58-.15,8.44C82,60.89,72.29,72.68,64.27,85.79c-5.82,9.51-12,18.84-17.78,28.35-1.77,2.91-2.9,6.21-4.5,9.23a3.56,3.56,0,0,1-2.34,1.78,7.37,7.37,0,0,0-6.45,4.27c-1.73,3.4-2.79,7-1.77,10.84a5.78,5.78,0,0,1,0,1.44,14.41,14.41,0,0,1-6.17-6.93c-.16-.33.31-1,.52-1.49,3.88-9.46,10.17-17.44,16-25.72,5.52-7.91,11-15.87,16.6-23.68q12-16.66,24.37-33.12a111.79,111.79,0,0,1,7.43-8.42A10.78,10.78,0,0,1,92.24,40.92Z"/><path class="cls-1" d="M105.29,53c-1.92,2.5-3.77,5.15-5.86,7.6C91.83,69.52,84,78.23,76.56,87.27c-5.37,6.51-10.48,13.25-15.25,20.25-3.57,5.22-7.77,10.14-9.67,16.41a5,5,0,0,1-2.21,2.92,4.06,4.06,0,0,1-3.44-.46,3.3,3.3,0,0,1-.91-3c2.18-4.5,4.14-9.23,7.1-13.2C63,95.62,73.13,80.65,83,65.52,86.68,59.85,90.8,54.46,94.8,49a2.53,2.53,0,0,1,2.06-.82C99.55,49.52,102.15,51.17,105.29,53Z"/><path class="cls-1" d="M101.4,34.08a22.09,22.09,0,0,1,1.35,2.36c.84,2,1.46,4.19,2.42,6.17s0,3.21-1.45,4.44-2.46,1.74-4.47.43c-4.45-2.89-3.72-10-.06-12.24C99.79,34.87,100.44,34.58,101.4,34.08Z"/><path class="cls-1" d="M184.4,65.71c1.13,4.3,2.26,8.59,3.43,13-2.51-.75-4.62-1.25-6.61-2.06a2.4,2.4,0,0,1-1-2.07c1-3,2.16-5.91,3.28-8.86Z"/><path class="cls-1" d="M113.91,48.37c-.35.52-.65,1.53-1.21,1.71-2.44.79-4.93,1.79-7.52.51-1.57-.78-1.33-1.67,0-2.34,1.11-.57,2.41-.77,3.54-1.32A12.41,12.41,0,0,0,111,45.24c.34-.27.75-.94.91-.87a2.08,2.08,0,0,1,1.12,1A24.3,24.3,0,0,1,113.91,48.37Z"/><path d="M39.78,61.13,26.5,47.22l.73-.72c4.77,4.32,8.88,9.23,13.33,13.84Z"/><path d="M37.47,63.34c-5.4-4.25-9.07-10.2-14.38-14.54l.53-.52L38.28,62.52Z"/><path d="M52.45,55.32a9.53,9.53,0,0,1,0-9.15C54,47.87,54.05,52.25,52.45,55.32Z"/><path d="M7.14,118.26l10.12-5,.52,1.19c-3.23,2-7,2.84-10.63,3.84Z"/><path d="M56.76,53.42V46.76C58.55,49,58.67,51.52,56.76,53.42Z"/><path d="M10.26,113l3.58-2.92.76.87c-.3,2-2.51,1.8-3.79,2.66Z"/></g></g></g></g></svg>