<svg xmlns="http://www.w3.org/2000/svg" viewBox="0 0 202.94 189.99"><defs><style>.cls-1{fill:#fff;}.cls-2,.cls-3{fill:none;stroke:#000;}.cls-2{stroke-linecap:round;stroke-linejoin:round;stroke-width:2px;}.cls-3{stroke-miterlimit:10;}</style></defs><g id="Layer_2" data-name="Layer 2"><g id="Layer_1-2" data-name="Layer 1"><path d="M106.24,0c17.82.1,38.67,6.44,57.21,19.89,14.79,10.72,26,24.38,32.87,41.36a87.77,87.77,0,0,1,5.6,46.87c-3.2,21.38-13.11,39.32-28.81,54a101.74,101.74,0,0,1-53.91,26.38,106.32,106.32,0,0,1-56.86-5.88,100,100,0,0,1-37-24.9c-13.56-14.42-22-31.34-24.56-51-3-23.15,2.33-44.36,15.61-63.44,11.8-17,27.69-28.87,47-36.3C75.56,2.23,88.21.05,106.24,0Z"/><path class="cls-1" d="M103.14,186.84c-17.61-.08-33-3.26-47.28-10.51C33,164.74,16.13,147.38,7.79,122.8c-7.94-23.41-6-46.34,5.4-68.3A89.61,89.61,0,0,1,46.8,18.67c28.35-17.21,58.45-20,89.8-9.46A93.21,93.21,0,0,1,171.24,30.3C187.65,45.94,197.66,65,199.45,87.76s-4.46,43.36-18.68,61.36c-14.1,17.84-32.43,29.16-54.36,34.73A102.33,102.33,0,0,1,103.14,186.84Z"/><path d="M50.34,151.82a31.26,31.26,0,0,1-17.34,0c-.18-.41-.36-.62-.36-.84-.08-8.2-.62-16.42,1-24.56,2.06-10.39,9.13-18.14,18.47-20.08,5.54-1.14,11-.36,16.32,1.09,4.55,1.24,9.07,2.28,13.87,2.12,16-.56,28.35-16.08,25.11-31.79-1.23-6-4.06-11.21-7.24-16.3-1-1.56-2-3.09-2.94-4.65-3-4.87-5.16-10-5.44-15.88-.37-7.65,0-15.28-.2-23.19a32.1,32.1,0,0,1,17-.34,4.76,4.76,0,0,1,.59,3.1c0,4.79,0,9.57,0,14.36a11.29,11.29,0,0,0,.94,5.13c1.11,2.26,2.85,2.94,5.13,1.87a27.45,27.45,0,0,0,3.45-2.14c6.38-4.24,13.26-6.5,21-5.45a28,28,0,0,1,14.91,7.08c10.8,9.48,16.25,21.54,17.25,35.85,2,28.11-17.48,55.51-40.7,65.52-11.42,4.91-23.19,7-35.49,4.39-9-1.93-16.82-5.88-22.36-13.6A32.32,32.32,0,0,0,67.1,127c-4.66-3.69-13-3.73-15.07,5.09-1.22,5.18-1.09,10.44-1.24,15.7C50.76,149,51.05,150.34,50.34,151.82Z"/><path class="cls-1" d="M106.63,140.28a36.54,36.54,0,0,1-18.83-4.63c-3.49-2-6.27-4.66-7.62-8.54-1.41-4.07.58-7.72,4.79-8.82,1.69-.44,3.44-.63,5.16-1,9.73-2,16.46-8,21.54-16.16S118,84.1,115.89,74.72a56.49,56.49,0,0,1-1.51-10.38c-.23-6.68,2.14-12,7.61-15.83,5.79-4.1,11.86-7,19.19-4.67,4.41,1.38,7.85,4.21,10.91,7.51,7.65,8.24,10.91,18.29,11.08,29.3.15,9.22-2.52,17.86-6.33,26.26a57.34,57.34,0,0,1-16.34,20.85A54.34,54.34,0,0,1,106.63,140.28Z"/><path d="M144.28,38.09c-.91-.42-1.84-.85-2.76-1.3,0,0,0-.15,0-.4A13.31,13.31,0,0,1,147.07,38c7.08,3.21,12.08,8.63,16.17,15.1,5.23,8.28,7.27,17.4,7.64,27a10.42,10.42,0,0,1-.2,2.61c-.25,1.06.08,2.24-.6,3.2-.84.24-1.22-.37-1.57-.85s-.54-1.16-.9-1.68c-3.08-4.45-3.71-9.65-4.88-14.76a39.81,39.81,0,0,0-12.94-21.3C147,44.86,145.79,41.56,144.28,38.09Z"/><path d="M36.43,122.14c1.47-9.13,14.15-17.53,22-14.58C57.63,109.23,38.9,121.75,36.43,122.14Z"/><path class="cls-1" d="M99.88,103.5C109,95,112.16,85,107.52,73,115,80,110.11,99.45,99.88,103.5Z"/><path class="cls-2" d="M169.53,88.38a2.81,2.81,0,0,0,1.71-2.63c.49-7.57.14-15.09-2.47-22.25-4.65-12.76-12-23.15-25.58-27.77-1.38-.47-2.86-.94-4.07.46"/><path class="cls-2" d="M145.71,44.33c1.18,2.23,3.48,3.3,5.2,5a41.19,41.19,0,0,1,11.9,22.33c.6,3.12.61,6.36,1.93,9.33"/><path class="cls-2" d="M107.28,70.9c-1.5,2.06.07,3.91.53,5.73,2,7.75.78,14.85-3.91,21.31a24.69,24.69,0,0,1-4.05,4.56,2.84,2.84,0,0,0-1.19,2.4"/><path class="cls-2" d="M59.63,107.05a1.89,1.89,0,0,0-1.44-.74c-10.4-.28-18.35,5-22.49,14.87a2.39,2.39,0,0,0,.22,2.63"/><path class="cls-3" d="M137.12,61.49c1.41.75,2.93.33,4.38.3s1.87.47,1.85,1.89c0,3.48,0,3.48-3.39,3.46-2.88,0-2.88,0-2.86,2.89,0,3.4,0,3.41-3,3.39-2.63,0-2.31.27-2.32-2.35,0-.57,0-1.14,0-1.72-.64-1.89-.64-1.86-2.76-1.89-3.42,0-3.7.77-3.64-3.65,0-2.14.32-2.45,2.44-2.46a12.13,12.13,0,0,1,2.33.07c1,.17,1.33-.32,1.33-1.23,0-1.09,0-2.19,0-3.29,0-.55-.13-1.17.47-1.55a19.6,19.6,0,0,1,3.51-.14,2.87,2.87,0,0,1,1.45.21,1.41,1.41,0,0,1,.49,1.38C137.26,58.36,137.73,60,137.12,61.49Z"/><path class="cls-3" d="M149.25,84.13a5.51,5.51,0,0,0,2.9.2c1,0,1.23.31,1.22,1.25,0,2.29,0,2.29-2.24,2.28-1.9,0-1.9,0-1.89,1.89,0,2.24,0,2.25-2,2.24-1.73,0-1.52.18-1.53-1.55,0-.38,0-.75,0-1.13-.42-1.24-.42-1.23-1.83-1.25-2.25,0-2.44.51-2.4-2.4,0-1.41.21-1.61,1.61-1.62a8.81,8.81,0,0,1,1.54,0c.64.11.88-.21.88-.81s0-1.44,0-2.16c0-.37-.09-.78.31-1a12.83,12.83,0,0,1,2.32-.09,2,2,0,0,1,1,.14.94.94,0,0,1,.32.91C149.35,82.08,149.66,83.13,149.25,84.13Z"/><path class="cls-3" d="M133.22,102.08c1.41.75,2.93.33,4.38.29s1.87.48,1.85,1.89c0,3.49,0,3.49-3.39,3.47-2.88,0-2.88,0-2.86,2.88,0,3.41,0,3.42-3,3.4-2.63,0-2.31.27-2.32-2.35,0-.57,0-1.15,0-1.72-.64-1.89-.64-1.86-2.76-1.9-3.42-.05-3.7.78-3.64-3.64,0-2.15.31-2.45,2.43-2.47a13.09,13.09,0,0,1,2.34.08c1,.17,1.33-.33,1.33-1.23,0-1.1,0-2.19,0-3.29,0-.56-.13-1.17.47-1.56a19.6,19.6,0,0,1,3.51-.13A3,3,0,0,1,133,96a1.46,1.46,0,0,1,.49,1.39C133.36,99,133.83,100.54,133.22,102.08Z"/><path class="cls-3" d="M109.88,121.11a5.57,5.57,0,0,0,2.89.19c1,0,1.23.31,1.21,1.24,0,2.28,0,2.28-2.23,2.27-1.89,0-1.89,0-1.88,1.89,0,2.23,0,2.24-2,2.23-1.73,0-1.52.18-1.52-1.54,0-.38,0-.75,0-1.13-.43-1.24-.43-1.22-1.82-1.24-2.25,0-2.44.51-2.4-2.39,0-1.41.21-1.6,1.61-1.62a8.7,8.7,0,0,1,1.53,0c.64.11.88-.21.88-.8s0-1.44,0-2.16c0-.36-.08-.77.31-1a12.76,12.76,0,0,1,2.31-.09,2,2,0,0,1,1,.14.93.93,0,0,1,.32.9C110,119.06,110.29,120.1,109.88,121.11Z"/></g></g></svg>